<?xml version="1.0" encoding="UTF-8"?>
<svg width="28px" height="28px" viewBox="0 0 28 28" version="1.1" xmlns="http://www.w3.org/2000/svg" xmlns:xlink="http://www.w3.org/1999/xlink">
    <title>阴</title>
    <g id="页面-1" stroke="none" stroke-width="1" fill="none" fill-rule="evenodd">
        <g id="天气图标" transform="translate(-696.000000, -767.000000)" fill="#FFFFFF" fill-rule="nonzero">
            <g id="2" transform="translate(66.000000, 767.000000)">
                <g id="阴" transform="translate(630.000000, 0.000000)">
                    <path d="M20.363352,8.10323784 C19.9128492,8.10323784 19.4592179,8.15511104 19.0087151,8.23749788 C17.5789944,6.2083404 15.2701676,5 12.7267039,5 C9.69519553,5 6.93586592,6.78199695 5.73452514,9.46719783 C2.44022346,10.0500085 0,12.8633667 0,16.1710459 C0,19.4024411 2.35575419,22.2157993 5.6,22.8626886 C6.05675978,22.9542295 6.52916201,23 6.99843575,23 L20.363352,23 C21.089162,23 21.7930726,22.9054077 22.4437989,22.7162231 C25.7130726,21.8191219 28,18.8715036 28,15.5516189 C28,11.4444821 24.5743017,8.10323784 20.363352,8.10323784 Z M22.0934078,21.5200882 C21.5490503,21.6757077 20.9671508,21.7550432 20.363352,21.7550432 L6.99843575,21.7550432 C6.61050279,21.7550432 6.22569832,21.7184269 5.85340782,21.6421427 C3.19731844,21.1142567 1.27329609,18.8135277 1.27329609,16.1679946 C1.27329609,13.3607391 3.41944134,10.9837261 6.27575419,10.6328191 C6.4947486,10.6023055 6.72312849,10.5901 6.95150838,10.5870487 C7.54592179,10.5809459 8.15284916,10.6663841 8.71910615,10.8403119 C9.05385475,10.9440583 9.41050279,10.7609764 9.51687151,10.4344804 C9.62324022,10.1079844 9.43553073,9.76012884 9.10078212,9.65638244 C8.49385475,9.47024919 7.84625698,9.37565689 7.21117318,9.3573487 C8.33117318,7.46245126 10.436648,6.23885404 12.7298324,6.23885404 C14.6976536,6.23885404 16.5059218,7.09933887 17.7072626,8.57314799 C16.2681564,9.09187998 15.0136313,10.0225462 14.1188827,11.2614002 C13.9155307,11.5421258 13.9843575,11.9296491 14.2721788,12.1249364 C14.56,12.3232751 14.9573184,12.2561451 15.1575419,11.9754196 C16.0522905,10.7365655 17.3693855,9.86387523 18.8710615,9.51601966 C19.3653631,9.40006781 19.8659218,9.34209188 20.363352,9.34209188 C23.8735196,9.34209188 26.7267039,12.1249364 26.7267039,15.5485676 C26.7267039,18.3161553 24.824581,20.7725038 22.0934078,21.5200882 L22.0934078,21.5200882 Z" id="形状"></path>
                </g>
            </g>
        </g>
    </g>
</svg>