<?xml version="1.0" encoding="UTF-8"?>
<svg width="28px" height="28px" viewBox="0 0 28 28" version="1.1" xmlns="http://www.w3.org/2000/svg" xmlns:xlink="http://www.w3.org/1999/xlink">
    <title>多云（白天）</title>
    <g id="页面-1" stroke="none" stroke-width="1" fill="none" fill-rule="evenodd">
        <g id="天气图标" transform="translate(-66.000000, -827.000000)" fill="#FFFFFF" fill-rule="nonzero">
            <g id="2" transform="translate(66.000000, 767.000000)">
                <g id="多云（白天）" transform="translate(0.000000, 60.000000)">
                    <path d="M24.2611714,13.6490665 C24.2392722,13.6490665 24.217373,13.6490665 24.1954739,13.6459868 C23.8482153,13.6121094 23.5948104,13.3041329 23.6292234,12.9622791 C23.6761503,12.5126335 23.6667649,12.0568283 23.6010673,11.604103 C23.3883324,10.1196565 22.6030901,8.80459712 21.3861209,7.90222615 C20.1691518,6.99985517 18.6706217,6.61796439 17.1627062,6.82738837 C14.3533532,7.21543868 12.2447743,9.6114954 12.2541597,12.3986822 C12.2541597,12.7436158 11.9725987,13.0238744 11.6222117,13.0238744 L11.6190833,13.0238744 C11.2686963,13.0238744 10.9870899,12.7466956 10.9870899,12.401762 C10.9746214,8.99554251 13.5524687,6.06668656 16.9843842,5.59240284 C18.8301729,5.33678239 20.6603193,5.80490658 22.1463356,6.90746224 C23.6323519,8.0100179 24.5959161,9.61765492 24.8524495,11.4316362 C24.9306609,11.982914 24.9431747,12.5403514 24.883734,13.0885494 C24.8555779,13.4119247 24.5802739,13.6490665 24.2611714,13.6490665 L24.2611714,13.6490665 Z M16.8091907,4.98568925 C16.4994736,4.98568925 16.227298,4.76086645 16.1834996,4.44981024 L16.0051777,3.21174495 C15.9551224,2.8698911 16.1960135,2.55575513 16.543272,2.5064789 C16.8874021,2.45720266 17.209633,2.69434452 17.2596883,3.03619837 L17.4348818,4.2711839 C17.4849371,4.61303775 17.244046,4.92717372 16.8967875,4.97644995 C16.8686314,4.98260948 16.8373468,4.98568925 16.8091907,4.98568925 L16.8091907,4.98568925 Z M11.3781922,8.13320848 C11.2467971,8.13320848 11.1122735,8.09317154 10.9965206,8.00693814 L9.98602955,7.25547562 C9.70759702,7.0491314 9.65128482,6.65800132 9.86089133,6.38082253 C10.0704978,6.10672349 10.4678117,6.05128773 10.7493727,6.25763195 L11.7598637,7.00909447 C12.0382963,7.21543868 12.0946085,7.60656876 11.885002,7.88374756 C11.7598637,8.04697507 11.5721564,8.13320848 11.3781922,8.13320848 Z M26.1100885,11.8812818 C25.8003715,11.8812818 25.5281958,11.656459 25.4843975,11.3454028 C25.4343422,11.0035489 25.6752332,10.6894129 26.0224918,10.6401367 L27.2770024,10.4676699 C27.6273894,10.4183937 27.9433634,10.6586153 27.9934187,10.9973894 C28.043474,11.3392432 27.8025829,11.6533792 27.4553243,11.7026554 L26.2008137,11.8751222 C26.1695292,11.8812818 26.1413731,11.8812818 26.1100885,11.8812818 Z M22.9128071,6.53789051 C22.781412,6.53789051 22.6468884,6.49785357 22.5311356,6.41162017 C22.2527031,6.20527595 22.1963909,5.81414587 22.4059974,5.53696708 L23.1693405,4.54220317 C23.378947,4.26810414 23.7762608,4.21266838 24.0578218,4.4190126 C24.3362543,4.62535681 24.3925665,5.01648689 24.18296,5.29366569 L23.4164885,6.28842959 C23.2944787,6.45165711 23.1036429,6.53789051 22.9128071,6.53789051 Z" id="形状"></path>
                    <path d="M20.9043388,25.5 L7.60214656,25.5 C6.87947336,25.5 6.18182782,25.4045273 5.52172373,25.2135819 C2.27438706,24.3112109 0,21.3515573 0,18.0161725 C0,13.8892882 3.41001636,10.532345 7.60214656,10.532345 C8.19655308,10.532345 8.79721651,10.6031795 9.38536612,10.7417689 C11.177971,11.1606169 12.7547126,12.2169761 13.8215158,13.7075821 C14.021737,13.9878406 13.9560394,14.3789707 13.6682215,14.5760756 C13.3835321,14.7762603 12.9862183,14.7085055 12.7859971,14.4251672 C11.8943873,13.1809423 10.5835645,12.3032095 9.09129131,11.9521163 C8.59699536,11.8350853 8.0964425,11.7765698 7.60214656,11.7765698 C4.1076619,11.7796495 1.26702443,14.5760756 1.26702443,18.0161725 C1.26702443,20.7971997 3.15973993,23.2610113 5.87211073,24.0124738 C6.41959042,24.1726215 6.99835467,24.2496156 7.60214656,24.2496156 L20.9043388,24.2496156 C21.2891388,24.2496156 21.6739388,24.2126585 22.046225,24.1387441 C24.6897698,23.6090247 26.6075129,21.2961216 26.6075129,18.6382849 C26.6075129,15.8203005 24.4707779,13.4273235 21.6395258,13.0762304 C20.8073567,12.9591993 19.978316,13.0392732 19.1962022,13.2825746 C18.8645859,13.3872866 18.507942,13.2025007 18.4015745,12.8760457 C18.295207,12.5465109 18.4829143,12.1984975 18.8145306,12.0937855 C19.7749664,11.7950484 20.8198705,11.7026554 21.8053339,11.8412448 C25.2591487,12.2693321 27.8714089,15.1920285 27.8714089,18.6382849 C27.8714089,21.8843566 25.5281958,24.7115803 22.2965014,25.3614106 C21.8428754,25.4538035 21.3736071,25.5 20.9043388,25.5 Z" id="路径"></path>
                </g>
            </g>
        </g>
    </g>
</svg>