<?xml version="1.0" encoding="UTF-8"?>
<svg width="28px" height="28px" viewBox="0 0 28 28" version="1.1" xmlns="http://www.w3.org/2000/svg" xmlns:xlink="http://www.w3.org/1999/xlink">
    <title>浮尘</title>
    <g id="页面-1" stroke="none" stroke-width="1" fill="none" fill-rule="evenodd">
        <g id="天气图标" transform="translate(-486.000000, -767.000000)" fill="#FFFFFF" fill-rule="nonzero">
            <g id="2" transform="translate(66.000000, 767.000000)">
                <g id="浮尘" transform="translate(420.000000, 0.000000)">
                    <path d="M25.9534314,14.7990827 C25.9534314,15.0052668 26.0646141,15.1957888 26.245098,15.2988809 C26.425582,15.401973 26.6479474,15.401973 26.8284314,15.2988809 C27.0089153,15.1957888 27.120098,15.0052668 27.120098,14.7990827 C27.120098,14.5928985 27.0089153,14.4023765 26.8284314,14.2992845 C26.6479474,14.1961924 26.425582,14.1961924 26.245098,14.2992845 C26.0646141,14.4023765 25.9534314,14.5928985 25.9534314,14.7990827 L25.9534314,14.7990827 Z" id="路径"></path>
                    <path d="M14.5931373,23.3079245 C14.2820716,23.3108045 13.9924571,23.1514174 13.8308824,22.8884233 C13.2794118,22.6459371 11.1568627,22.2894823 7.73284315,22.2894823 C4.30882356,22.2894823 2.18382353,22.6556365 1.63235294,22.8884233 C1.47077815,23.1514174 1.18116369,23.3108045 0.87009803,23.3079245 C0.644748167,23.3137836 0.426313597,23.2306345 0.263051,23.0768465 C0.0997884025,22.9230586 0.00513439854,22.7112886 0,22.488321 C0,22.0348718 0,20.6527002 7.73284315,20.6527002 C15.4656863,20.6527002 15.4705882,22.0372966 15.4705882,22.488321 C15.4654841,22.7125889 15.3698156,22.9254947 15.2049464,23.0794945 C15.0400773,23.2334944 14.8197397,23.3157614 14.5931373,23.3079245 Z" id="路径"></path>
                    <path d="M20.3553921,25.5 C12.7083333,25.5 12.7083333,24.1202533 12.7083333,23.6668041 C12.7128377,23.444915 12.8062759,23.2338898 12.9680822,23.0801746 C13.1298885,22.9264594 13.3468013,22.8426529 13.5710784,22.8472006 C13.8800536,22.8448245 14.1668582,23.0056461 14.3235294,23.2691267 C14.8676471,23.5116129 16.9681373,23.8656428 20.3553921,23.8656428 C23.742647,23.8656428 25.8406863,23.4994886 26.3848039,23.2691267 C26.5426452,23.0056287 26.8301196,22.8449549 27.1397059,22.8472006 C27.3637499,22.8426563 27.5804058,22.9265385 27.7418231,23.080321 C27.9032404,23.2341035 27.9961385,23.4451339 28,23.6668041 C28,24.1202533 28,25.5 20.3553921,25.5 L20.3553921,25.5 Z" id="路径"></path>
                    <path d="M5.72058822,15.3761999 C5.72052283,15.7886113 5.94287393,16.1697228 6.30386872,16.3759472 C6.6648635,16.5821716 7.1096463,16.5821716 7.47064108,16.3759472 C7.83163586,16.1697228 8.05398697,15.7886113 8.05392157,15.3761999 C8.05398697,14.9637885 7.83163586,14.582677 7.47064108,14.3764526 C7.1096463,14.1702282 6.6648635,14.1702282 6.30386872,14.3764526 C5.94287393,14.582677 5.72052283,14.9637885 5.72058822,15.3761999 L5.72058822,15.3761999 Z" id="路径"></path>
                    <path d="M0.825980383,8.15738485 C0.825980383,8.4761179 1.08714761,8.73450208 1.40931372,8.73450208 C1.73147983,8.73450208 1.99264706,8.4761179 1.99264706,8.15738485 C1.99264706,7.95120072 1.88146436,7.76067873 1.70098039,7.65758666 C1.52049643,7.55449459 1.29813101,7.55449459 1.11764705,7.65758666 C0.937163083,7.76067873 0.825980383,7.95120072 0.825980383,8.15738485 L0.825980383,8.15738485 Z" id="路径"></path>
                    <path d="M17.9656863,15.3761999 C17.9656863,16.013666 18.4880207,16.5304344 19.1323529,16.5304344 C19.7766852,16.5304344 20.2990196,16.013666 20.2990196,15.3761999 C20.2990196,14.7387338 19.7766852,14.2219654 19.1323529,14.2219654 C18.4880207,14.2219654 17.9656863,14.7387338 17.9656863,15.3761999 Z" id="路径"></path>
                    <path d="M13.0710784,8.15738485 C13.0710784,8.36356898 13.1822611,8.55409098 13.3627451,8.65718305 C13.5432291,8.76027512 13.7655945,8.76027512 13.9460784,8.65718305 C14.1265624,8.55409098 14.2377451,8.36356898 14.2377451,8.15738485 C14.2377451,7.83865182 13.9765779,7.58026764 13.6544118,7.58026764 C13.3322457,7.58026764 13.0710784,7.83865182 13.0710784,8.15738485 L13.0710784,8.15738485 Z" id="路径"></path>
                    <path d="M7.00490196,8.73450207 C7.00483656,9.14691346 7.22718767,9.52802498 7.58818245,9.73424936 C7.94917723,9.94047373 8.39396003,9.94047373 8.75495481,9.73424936 C9.1159496,9.52802498 9.3383007,9.14691346 9.33823531,8.73450207 C9.3383007,8.32209068 9.1159496,7.94097916 8.75495481,7.73475478 C8.39396003,7.52853041 7.94917723,7.52853041 7.58818245,7.73475478 C7.22718767,7.94097916 7.00483656,8.32209068 7.00490196,8.73450207 Z" id="路径"></path>
                    <path d="M13.0686274,14.7990827 C13.0686274,15.1178157 13.3297947,15.3761999 13.6519608,15.3761999 C13.9741269,15.3761999 14.2352941,15.1178157 14.2352941,14.7990827 C14.2352941,14.4803496 13.9741269,14.2219655 13.6519608,14.2219655 C13.3297947,14.2219655 13.0686274,14.4803496 13.0686274,14.7990827 Z" id="路径"></path>
                    <path d="M19.8897059,8.73450207 C19.8896405,9.14691346 20.1119916,9.52802498 20.4729864,9.73424936 C20.8339811,9.94047373 21.2787639,9.94047373 21.6397587,9.73424936 C22.0007535,9.52802498 22.2231046,9.14691346 22.2230392,8.73450207 C22.2231046,8.32209068 22.0007535,7.94097916 21.6397587,7.73475478 C21.2787639,7.52853041 20.8339811,7.52853041 20.4729864,7.73475478 C20.1119916,7.94097916 19.8896405,8.32209068 19.8897059,8.73450207 Z" id="路径"></path>
                    <path d="M4.16911763,3.65441557 C4.16905224,4.06682695 4.39140334,4.44793848 4.75239813,4.65416285 C5.11339291,4.86038723 5.55817571,4.86038723 5.91917049,4.65416285 C6.28016527,4.44793848 6.50251638,4.06682695 6.50245099,3.65441557 C6.50251638,3.24200418 6.28016527,2.86089266 5.91917049,2.65466828 C5.55817571,2.44844391 5.11339291,2.44844391 4.75239813,2.65466828 C4.39140334,2.86089266 4.16905224,3.24200418 4.16911763,3.65441557 L4.16911763,3.65441557 Z" id="路径"></path>
                    <path d="M16.4142157,3.65441557 C16.4142157,4.29188166 16.9365501,4.80865003 17.5808824,4.80865003 C18.2252146,4.80865003 18.747549,4.29188166 18.747549,3.65441557 C18.747549,3.2420473 18.5251836,2.8610033 18.1642157,2.65481916 C17.8032478,2.44863502 17.3585169,2.44863502 16.997549,2.65481916 C16.6365811,2.8610033 16.4142157,3.2420473 16.4142157,3.65441557 L16.4142157,3.65441557 Z" id="路径"></path>
                    <path d="M11.5147059,3.0797232 C11.5147059,3.39845625 11.7758731,3.65684044 12.0980392,3.65684044 C12.4202053,3.65684044 12.6813726,3.39845625 12.6813726,3.0797232 C12.6813726,2.76099016 12.4202053,2.50260597 12.0980392,2.50260597 C11.7758731,2.50260597 11.5147059,2.76099016 11.5147059,3.0797232 L11.5147059,3.0797232 Z" id="路径"></path>
                    <path d="M24.3995098,3.0797232 C24.3995098,3.39845625 24.660677,3.65684044 24.9828431,3.65684044 C25.3050092,3.65684044 25.5661765,3.39845625 25.5661765,3.0797232 C25.5661765,2.76099016 25.3050092,2.50260597 24.9828431,2.50260597 C24.660677,2.50260597 24.3995098,2.76099016 24.3995098,3.0797232 L24.3995098,3.0797232 Z" id="路径"></path>
                </g>
            </g>
        </g>
    </g>
</svg>