<?xml version="1.0" encoding="UTF-8"?>
<svg width="28px" height="28px" viewBox="0 0 28 28" version="1.1" xmlns="http://www.w3.org/2000/svg" xmlns:xlink="http://www.w3.org/1999/xlink">
    <title>雾</title>
    <g id="页面-1" stroke="none" stroke-width="1" fill="none" fill-rule="evenodd">
        <g id="天气图标" transform="translate(-556.000000, -767.000000)" fill="#FFFFFF" fill-rule="nonzero">
            <g id="2" transform="translate(66.000000, 767.000000)">
                <g id="雾" transform="translate(490.000000, 0.000000)">
                    <path d="M22.3981483,7.09024832 L1.23316689,7.09024832 C0.543628249,7.06017673 0,6.48950477 0,5.79573546 C0,5.10196614 0.543628249,4.53129418 1.23316689,4.50122259 L22.3981483,4.50122259 C22.8715709,4.48057608 23.3180923,4.72269381 23.5609326,5.1317202 C23.8037728,5.5407466 23.8037728,6.05072431 23.5609326,6.45975071 C23.3180923,6.8687771 22.8715709,7.11089483 22.3981483,7.09024832 Z M26.7668331,12.5605699 L5.60185167,12.5605699 C5.12842909,12.5812164 4.68190769,12.3390987 4.43906745,11.9300723 C4.19622721,11.5210459 4.19622721,11.0110682 4.43906745,10.6020418 C4.68190769,10.1930154 5.12842909,9.95089764 5.60185167,9.97154415 L26.7668331,9.97154415 C27.4563718,10.0016157 28,10.5722877 28,11.266057 C28,11.9598263 27.4563718,12.5304983 26.7668331,12.5605699 L26.7668331,12.5605699 Z M26.7111039,23.4987774 L5.54612246,23.4987774 C5.07269988,23.5194239 4.62617848,23.2773062 4.38333824,22.8682798 C4.14049799,22.4592534 4.14049799,21.9492757 4.38333824,21.5402493 C4.62617848,21.1312229 5.07269988,20.8891052 5.54612246,20.9097517 L26.7111039,20.9097517 C27.4006426,20.9398233 27.9442708,21.5104952 27.9442708,22.2042645 C27.9442708,22.8980339 27.4006426,23.4687058 26.7111039,23.4987774 L26.7111039,23.4987774 Z M22.85852,18.0284558 L1.69353854,18.0284558 C1.22011596,18.0491024 0.773594558,17.8069846 0.530754318,17.3979582 C0.287914077,16.9889318 0.287914077,16.4789541 0.530754318,16.0699277 C0.773594558,15.6609013 1.22011596,15.4187836 1.69353854,15.4394301 L22.85852,15.4394301 C23.5480587,15.4695017 24.0916869,16.0401737 24.0916869,16.733943 C24.0916869,17.4277123 23.5480587,17.9983843 22.85852,18.0284558 L22.85852,18.0284558 Z" id="形状"></path>
                </g>
            </g>
        </g>
    </g>
</svg>