<?xml version="1.0" encoding="UTF-8"?>
<svg width="28px" height="28px" viewBox="0 0 28 28" version="1.1" xmlns="http://www.w3.org/2000/svg" xmlns:xlink="http://www.w3.org/1999/xlink">
    <title>大雨</title>
    <g id="页面-1" stroke="none" stroke-width="1" fill="none" fill-rule="evenodd">
        <g id="天气图标" transform="translate(-346.000000, -827.000000)" fill="#FFFFFF" fill-rule="nonzero">
            <g id="2" transform="translate(66.000000, 767.000000)">
                <g id="大雨" transform="translate(280.000000, 60.000000)">
                    <path d="M20.361077,5.15756792 C19.9106245,5.15756792 19.4570439,5.21034929 19.0065914,5.29417853 C17.5770305,3.22949547 15.2684616,2 12.7252821,2 C9.69411239,2 6.93509105,3.81319534 5.73388448,6.5454075 C2.43995084,7.13842173 0,10.0041397 0,13.3697283 C0,16.6576973 2.35549101,19.5203105 5.59937437,20.1785252 C5.82772875,20.225097 6.0623394,20.2592497 6.3000782,20.284088 C6.3219752,20.2871928 6.34387219,20.2871928 6.36264105,20.2871928 C6.68483968,20.2871928 6.96324433,20.0450194 6.99452575,19.7190168 C7.02893531,19.3712807 6.77242766,19.0639069 6.42520389,19.0297542 C6.23125908,19.0111255 6.04044241,18.9831824 5.85275388,18.9428202 C3.19696123,18.4056921 1.27315384,16.0646831 1.27315384,13.3728331 C1.27315384,10.5164295 3.41905932,8.09780078 6.27505307,7.74075032 C6.49402301,7.70970246 6.72237739,7.69728331 6.95073176,7.69417853 C7.54507876,7.68796895 8.14881019,7.77490298 8.71813205,7.95187581 C9.05284326,8.05743855 9.40945146,7.87115136 9.51580829,7.5389392 C9.62216512,7.20672704 9.43447659,6.85278137 9.09976539,6.74721863 C8.49290582,6.55782665 7.8453804,6.46157827 7.21036756,6.44294955 C8.33024243,4.51177232 10.4354821,3.2698577 12.7284102,3.2698577 C14.6960116,3.2698577 16.5040778,4.1454075 17.7052843,5.6450194 C16.266339,6.17283312 15.011954,7.11979301 14.1173053,8.38033635 C13.9139761,8.66597671 13.9827952,9.06028461 14.2705843,9.25899094 C14.5583734,9.46080207 14.9556474,9.39249677 15.1558485,9.1068564 C16.0504972,7.84631307 17.367445,6.95834411 18.8689532,6.60439845 C19.3631996,6.48641656 19.8637024,6.42742561 20.361077,6.42742561 C23.8708524,6.42742561 26.723718,9.25899094 26.723718,12.7425614 C26.723718,15.5586028 24.8218076,18.0548512 22.0909396,18.8186287 C21.903251,18.8745149 21.7124344,18.9179819 21.5184896,18.9552393 C21.1743939,19.0204398 20.9460395,19.3495472 21.0086024,19.6910737 C21.0649089,19.9953428 21.3339292,20.2064683 21.6342308,20.2064683 C21.6717685,20.2064683 21.7124344,20.2033635 21.7531002,20.1971539 C21.990839,20.1536869 22.2223215,20.0978008 22.4444196,20.0326003 C25.7133281,19.119793 28,16.1205692 28,12.7425614 C27.9968719,8.55730918 24.5715563,5.15756792 20.361077,5.15756792 L20.361077,5.15756792 Z" id="路径"></path>
                    <path d="M15.9066026,26 C15.5562507,26 15.2715898,25.7174644 15.2715898,25.3697283 L15.2715898,19.6848642 C15.2715898,19.3371281 15.5562507,19.0545925 15.9066026,19.0545925 C16.2569545,19.0545925 16.5416155,19.3371281 16.5416155,19.6848642 L16.5416155,25.3697283 C16.5447436,25.7174644 16.2600827,26 15.9066026,26 Z M12.0902692,24.1060802 C11.7399173,24.1060802 11.4552564,23.8235446 11.4552564,23.4758085 L11.4552564,19.687969 C11.4552564,19.3402329 11.7399173,19.0576973 12.0902692,19.0576973 C12.4406212,19.0576973 12.7252821,19.3402329 12.7252821,19.687969 L12.7252821,23.4758085 C12.7252821,23.8204398 12.4406212,24.1060802 12.0902692,24.1060802 Z M20.999218,22.8424321 C20.5331248,22.8424321 20.1014412,22.9759379 19.7260641,23.193273 L19.7260641,19.6848642 C19.7260641,19.3371281 19.4414032,19.0545925 19.0910513,19.0545925 C18.7406994,19.0545925 18.4560384,19.3371281 18.4560384,19.6848642 L18.4560384,25.3697283 C18.4560384,25.7174644 18.7406994,26 19.0910513,26 C19.4414032,26 19.7260641,25.7174644 19.7260641,25.3697283 C19.7260641,24.6742561 20.295386,24.1060802 20.999218,24.1060802 C21.3495699,24.1060802 21.6342308,23.8235446 21.6342308,23.4758085 C21.6342308,23.1249677 21.3495699,22.8424321 20.999218,22.8424321 Z M8.90894872,19.0514877 C8.5585968,19.0514877 8.27393587,19.3340233 8.27393587,19.6817594 L8.27393587,23.1901682 C7.89855882,22.9728331 7.46687521,22.8393273 7.00078204,22.8393273 C6.65043012,22.8393273 6.36576919,23.1218629 6.36576919,23.469599 C6.36576919,23.8173351 6.65043012,24.0998706 7.00078204,24.0998706 C7.70148587,24.0998706 8.27393587,24.6649418 8.27393587,25.3635188 C8.27393587,25.7112549 8.5585968,25.9937904 8.90894872,25.9937904 C9.25930064,25.9937904 9.54396157,25.7112549 9.54396157,25.3635188 L9.54396157,19.6848642 C9.54396157,19.3340233 9.25930064,19.0514877 8.90894872,19.0514877 Z M5.08948721,22.8424321 C4.73913529,22.8424321 4.45447436,23.1249677 4.45447436,23.4727038 C4.45447436,23.8204398 4.73913529,24.1029754 5.08948721,24.1029754 C5.43983912,24.1029754 5.72450006,23.8204398 5.72450006,23.4727038 C5.7276282,23.1249677 5.44296727,22.8424321 5.08948721,22.8424321 Z M12.0902692,24.7363519 C11.7399173,24.7363519 11.4552564,25.0188875 11.4552564,25.3666235 C11.4552564,25.7143596 11.7399173,25.9968952 12.0902692,25.9968952 C12.4406212,25.9968952 12.7252821,25.7143596 12.7252821,25.3666235 C12.7252821,25.0188875 12.4406212,24.7363519 12.0902692,24.7363519 Z M22.9073846,22.8424321 C22.5570327,22.8424321 22.2723718,23.1249677 22.2723718,23.4727038 C22.2723718,23.8204398 22.5570327,24.1029754 22.9073846,24.1029754 C23.2577366,24.1029754 23.5423975,23.8204398 23.5423975,23.4727038 C23.5423975,23.1249677 23.2577366,22.8424321 22.9073846,22.8424321 Z" id="形状"></path>
                </g>
            </g>
        </g>
    </g>
</svg>