<?xml version="1.0" encoding="UTF-8"?>
<svg width="28px" height="28px" viewBox="0 0 28 28" version="1.1" xmlns="http://www.w3.org/2000/svg" xmlns:xlink="http://www.w3.org/1999/xlink">
    <title>重度雾霾</title>
    <g id="页面-1" stroke="none" stroke-width="1" fill="none" fill-rule="evenodd">
        <g id="天气图标" transform="translate(-416.000000, -767.000000)" fill="#FFFFFF" fill-rule="nonzero">
            <g id="2" transform="translate(66.000000, 767.000000)">
                <g id="重度雾霾" transform="translate(350.000000, 0.000000)">
                    <path d="M7.26555387,18.9637246 C3.1913674,18.9637246 0,16.6274261 0,13.6409427 C0,10.6544594 3.1913674,8.3181608 7.26555387,8.3181608 C11.3397403,8.3181608 14.5311077,10.6568854 14.5311077,13.6409427 C14.5311077,16.625 11.3397403,18.9637246 7.26555387,18.9637246 Z M7.26555387,10.2493068 C4.34800202,10.2493068 1.88130164,11.8019871 1.88130164,13.6457948 C1.88130164,15.4896026 4.34800202,17.0422828 7.26555387,17.0422828 C10.1831057,17.0422828 12.6521666,15.4896026 12.6521666,13.6457948 C12.6521666,11.801987 10.1854662,10.2493068 7.26555387,10.2493068 Z" id="形状"></path>
                    <path d="M20.7344461,18.9637246 C16.6602597,18.9637246 13.4688923,16.6274261 13.4688923,13.6409427 C13.4688923,10.6544594 16.6602597,8.3181608 20.7344461,8.3181608 C24.8086326,8.3181608 28,10.6568854 28,13.6409427 C28,16.625 24.8086326,18.9637246 20.7344461,18.9637246 L20.7344461,18.9637246 Z M20.7344461,10.2493068 C17.8145338,10.2493068 15.3478334,11.8019871 15.3478334,13.6457948 C15.3478334,15.4896026 17.8145338,17.0422828 20.7344461,17.0422828 C23.6543585,17.0422828 26.1186984,15.4896026 26.1186984,13.6457948 C26.1186984,11.801987 23.651998,10.2493068 20.7344461,10.2493068 L20.7344461,10.2493068 Z" id="形状"></path>
                    <path d="M0.939470588,4.86344733 C0.939470588,5.35056014 1.19231703,5.80067095 1.60276513,6.04422736 C2.01321323,6.28778377 2.51890614,6.28778377 2.92935424,6.04422736 C3.33980234,5.80067095 3.59264879,5.35056014 3.59264879,4.86344733 C3.59264879,4.37633452 3.33980234,3.92622371 2.92935424,3.68266731 C2.51890614,3.4391109 2.01321323,3.4391109 1.60276513,3.68266731 C1.19231703,3.92622371 0.939470588,4.37633452 0.939470588,4.86344733 Z" id="路径"></path>
                    <path d="M24.4073512,4.86344733 C24.4073512,5.61645849 25.0012854,6.22689464 25.7339403,6.22689464 C26.4665952,6.22689464 27.0605294,5.61645849 27.0605294,4.86344733 C27.0605294,4.11043617 26.4665952,3.50000002 25.7339403,3.50000002 C25.0012854,3.50000002 24.4073512,4.11043617 24.4073512,4.86344733 L24.4073512,4.86344733 Z" id="路径"></path>
                    <path d="M12.6734109,5.98186228 C12.6734109,6.4689751 12.9262573,6.91908592 13.3367054,7.16264234 C13.7471535,7.40619875 14.2528465,7.40619875 14.6632946,7.16264234 C15.0737427,6.91908592 15.3265891,6.4689751 15.3265891,5.98186228 C15.3265891,5.22885113 14.7326549,4.61841497 14,4.61841497 C13.2673451,4.61841497 12.6734109,5.22885113 12.6734109,5.98186228 L12.6734109,5.98186228 Z" id="路径"></path>
                    <path d="M0.939470588,23.1365527 C0.939470588,23.6236655 1.19231703,24.0737763 1.60276513,24.3173327 C2.01321323,24.5608891 2.51890614,24.5608891 2.92935424,24.3173327 C3.33980234,24.0737763 3.59264879,23.6236655 3.59264879,23.1365527 C3.59264879,22.6494398 3.33980234,22.199329 2.92935424,21.9557726 C2.51890614,21.7122162 2.01321323,21.7122162 1.60276513,21.9557726 C1.19231703,22.199329 0.939470588,22.6494398 0.939470588,23.1365527 L0.939470588,23.1365527 Z" id="路径"></path>
                    <path d="M24.4073512,23.1365527 C24.4073512,23.8895638 25.0012854,24.5 25.7339403,24.5 C26.4665952,24.5 27.0605294,23.8895638 27.0605294,23.1365527 C27.0605294,22.3835415 26.4665952,21.7731054 25.7339403,21.7731054 C25.0012854,21.7731054 24.4073512,22.3835415 24.4073512,23.1365527 L24.4073512,23.1365527 Z" id="路径"></path>
                    <path d="M12.6734109,21.7755314 C12.6734109,22.2626442 12.9262573,22.712755 13.3367054,22.9563115 C13.7471535,23.1998679 14.2528465,23.1998679 14.6632946,22.9563115 C15.0737427,22.712755 15.3265891,22.2626442 15.3265891,21.7755314 C15.3265891,21.0225202 14.7326549,20.4120841 14,20.4120841 C13.2673451,20.4120841 12.6734109,21.0225202 12.6734109,21.7755314 L12.6734109,21.7755314 Z" id="路径"></path>
                </g>
            </g>
        </g>
    </g>
</svg>