<?xml version="1.0" encoding="UTF-8"?>
<svg width="28px" height="28px" viewBox="0 0 28 28" version="1.1" xmlns="http://www.w3.org/2000/svg" xmlns:xlink="http://www.w3.org/1999/xlink">
    <title>大雪</title>
    <g id="页面-1" stroke="none" stroke-width="1" fill="none" fill-rule="evenodd">
        <g id="天气图标" transform="translate(-626.000000, -827.000000)" fill="#FFFFFF" fill-rule="nonzero">
            <g id="2" transform="translate(66.000000, 767.000000)">
                <g id="大雪" transform="translate(560.000000, 60.000000)">
                    <path d="M20.363352,4.72898146 C19.9128492,4.72898146 19.4592179,4.78295657 19.0087151,4.86868174 C17.5789944,2.75730251 15.2701676,1.5 12.7267039,1.5 C9.69519553,1.5 6.93586592,3.35420371 5.73452514,6.1482093 C2.44022346,6.75463551 0,9.68516637 0,13.1236982 C0,16.48603 2.35575419,19.4133858 5.6,20.0864872 C5.82837989,20.1341123 6.06301676,20.1690373 6.30078212,20.1944374 C6.32268156,20.1976124 6.34458101,20.1976124 6.36335196,20.1976124 C6.68558659,20.1976124 6.96402235,19.9499619 6.99530726,19.6165862 C7.02972067,19.2609855 6.77318436,18.9466599 6.42592179,18.9117348 C6.23195531,18.8926848 6.04111732,18.8641097 5.85340782,18.8228346 C3.19731844,18.2735585 1.27329609,15.8796038 1.27329609,13.1268733 C1.27329609,10.2058674 3.41944134,7.73253747 6.27575419,7.36741173 C6.4947486,7.33566167 6.72312849,7.32296165 6.95463687,7.31978664 C7.54905028,7.31343663 8.15284916,7.4023368 8.71910615,7.58331217 C9.05385475,7.69126238 9.41050279,7.500762 9.51687151,7.16103632 C9.62324022,6.82131064 9.43553073,6.45935992 9.10078212,6.3514097 C8.49385475,6.15773432 7.84625698,6.05930912 7.21117318,6.04025908 C8.32804469,4.06223012 10.436648,2.79222758 12.7267039,2.79222758 C14.6945251,2.79222758 16.5027933,3.68757938 17.7041341,5.22110744 C16.2650279,5.76085852 15.0105028,6.72923546 14.1157542,8.01828804 C13.9124022,8.31038862 13.9812291,8.71361443 14.2690503,8.91681483 C14.5568715,9.12319025 14.9541899,9.05334011 15.1544134,8.76123952 C16.049162,7.47218694 17.366257,6.56413513 18.867933,6.2021844 C19.3622346,6.08153416 19.8627933,6.02120904 20.3602235,6.02120904 C23.8703911,6.02120904 26.7235754,8.91681483 26.7235754,12.479172 C26.7235754,15.3589027 24.8214525,17.9116078 22.0902793,18.6926594 C21.9025698,18.7498095 21.7117318,18.7942596 21.5177654,18.8323597 C21.1736313,18.8990348 20.9452514,19.2355855 21.0078212,19.5848362 C21.0641341,19.8959868 21.3331844,20.1118872 21.6335196,20.1118872 C21.6710615,20.1118872 21.7117318,20.1087122 21.7524022,20.1023622 C21.9901676,20.0579121 22.221676,20.000762 22.4437989,19.9340869 C25.7130726,19.000635 28,15.9335789 28,12.479172 C28,8.20561341 24.5743017,4.72898146 20.363352,4.72898146 Z" id="路径"></path>
                    <path d="M15.8082682,18.0798832 C15.9834637,17.7719075 15.8802235,17.3750318 15.5767598,17.1972314 L14.6256983,16.6384303 L15.5767598,16.0796292 C15.8802235,15.9018288 15.9865922,15.504953 15.8082682,15.1969774 C15.6330726,14.8890018 15.2420112,14.7810516 14.9385475,14.9620269 L13.987486,15.520828 L13.987486,14.4159258 C13.987486,14.0603251 13.7027933,13.7713995 13.3524022,13.7713995 C13.0020112,13.7713995 12.7173184,14.0603251 12.7173184,14.4159258 L12.7173184,15.520828 L11.7756425,14.9683769 C11.4721788,14.7905766 11.0811173,14.8953518 10.9059218,15.2033274 C10.7307263,15.511303 10.8339665,15.9081788 11.1374302,16.0859792 L12.0791061,16.6384303 L11.1374302,17.1908814 C10.8339665,17.3686817 10.7275978,17.7655575 10.9059218,18.0735331 C11.0248045,18.2799086 11.2375419,18.3973838 11.4565363,18.3973838 C11.562905,18.3973838 11.6755307,18.3688087 11.7756425,18.3116586 L12.7173184,17.7592075 L12.7173184,18.8736347 C12.7173184,19.2292355 13.0020112,19.518161 13.3524022,19.518161 C13.7027933,19.518161 13.987486,19.2292355 13.987486,18.8736347 L13.987486,17.7592075 L14.9385475,18.3180086 C15.0386592,18.3751588 15.1481564,18.4037338 15.2576536,18.4037338 C15.476648,18.4005588 15.6893855,18.2862586 15.8082682,18.0798832 L15.8082682,18.0798832 Z M20.0442458,23.0741681 L19.0931844,22.515367 L20.0442458,21.9597409 C20.3477095,21.7819406 20.4540782,21.3850648 20.2757542,21.0770892 C20.1005587,20.7691135 19.7094972,20.6611633 19.4060335,20.8421387 L18.4581006,21.3977648 L18.4581006,20.2928626 C18.4581006,19.9372619 18.1734078,19.6483363 17.8230168,19.6483363 C17.4726257,19.6483363 17.187933,19.9372619 17.187933,20.2928626 L17.187933,21.3977648 L16.246257,20.8453137 C15.9427933,20.6675133 15.5517318,20.7722885 15.3765363,21.0802642 C15.2013408,21.3882398 15.304581,21.7851156 15.6080447,21.9629159 L16.5497207,22.515367 L15.6080447,23.0678181 C15.304581,23.2456185 15.1982123,23.6424943 15.3765363,23.9504699 C15.495419,24.1568453 15.7081564,24.2743205 15.9271508,24.2743205 C16.0335196,24.2743205 16.1430168,24.2457455 16.246257,24.1885954 L17.187933,23.6361443 L17.187933,24.7505715 C17.187933,25.1061722 17.4726257,25.3950978 17.8230168,25.3950978 C18.1734078,25.3950978 18.4581006,25.1061722 18.4581006,24.7505715 L18.4581006,23.6361443 L19.409162,24.1949454 C19.5092737,24.2520955 19.6187709,24.2806706 19.7282682,24.2806706 C19.9472626,24.2806706 20.1631285,24.1663703 20.2788827,23.9568199 C20.4540782,23.6456693 20.350838,23.2519685 20.0442458,23.0741681 L20.0442458,23.0741681 Z M11.1655866,22.1819914 C10.9903911,21.8740157 10.5993296,21.7660655 10.2958659,21.9470409 L9.34480447,22.505842 L9.34480447,21.3977648 C9.34480447,21.0421641 9.06011173,20.7532385 8.70972067,20.7532385 C8.35932961,20.7532385 8.07463687,21.0421641 8.07463687,21.3977648 L8.07463687,22.502667 L7.13296089,21.9502159 C6.82636872,21.7724155 6.43843575,21.8771908 6.26324022,22.1851664 C6.08804469,22.493142 6.19128492,22.8900178 6.4947486,23.0678181 L7.43642458,23.6202692 L6.4947486,24.1727203 C6.19128492,24.3505207 6.0849162,24.7473965 6.26324022,25.0553721 C6.38212291,25.2617475 6.59486034,25.3792228 6.81385475,25.3792228 C6.92022346,25.3792228 7.02972067,25.3506477 7.13296089,25.2934976 L8.07463687,24.7410465 L8.07463687,25.8554737 C8.07463687,26.2110744 8.35932961,26.5 8.70972067,26.5 C9.06011173,26.5 9.34480447,26.2110744 9.34480447,25.8554737 L9.34480447,24.7410465 L10.2958659,25.2998476 C10.3959777,25.3569977 10.5054749,25.3855728 10.6149721,25.3855728 C10.8339665,25.3855728 11.0498324,25.2712725 11.1655866,25.0617221 C11.3407821,24.7537465 11.2375419,24.3568707 10.9340782,24.1790704 L9.98301676,23.6202692 L10.9340782,23.0614681 C11.2375419,22.8868428 11.3439106,22.489967 11.1655866,22.1819914 L11.1655866,22.1819914 Z" id="形状"></path>
                </g>
            </g>
        </g>
    </g>
</svg>