<?xml version="1.0" encoding="UTF-8"?>
<svg width="28px" height="28px" viewBox="0 0 28 28" version="1.1" xmlns="http://www.w3.org/2000/svg" xmlns:xlink="http://www.w3.org/1999/xlink">
    <title>小雪</title>
    <g id="页面-1" stroke="none" stroke-width="1" fill="none" fill-rule="evenodd">
        <g id="天气图标" transform="translate(-486.000000, -827.000000)" fill="#FFFFFF" fill-rule="nonzero">
            <g id="2" transform="translate(66.000000, 767.000000)">
                <g id="小雪" transform="translate(420.000000, 60.000000)">
                    <path d="M20.363352,5.70336894 C19.9128492,5.70336894 19.4592179,5.75691591 19.0087151,5.84196111 C17.5789944,3.7473295 15.2701676,2.5 12.7267039,2.5 C9.69519553,2.5 6.93586592,4.33949603 5.73452514,7.11133936 C2.44022346,7.71295535 0,10.620241 0,14.0314982 C0,17.3671597 2.35575419,20.2712955 5.6,20.9390578 C6.05675978,21.0335525 6.52916201,21.0807998 6.99843575,21.0807998 L8.90681564,21.0807998 C9.2572067,21.0807998 9.54189944,20.794166 9.54189944,20.4413859 C9.54189944,20.0886059 9.2572067,19.8019721 8.90681564,19.8019721 L6.99843575,19.8019721 C6.61050279,19.8019721 6.22569832,19.7641742 5.85340782,19.6854286 C3.19731844,19.1405094 1.27329609,16.7655437 1.27329609,14.034648 C1.27329609,11.1368118 3.41944134,8.68310052 6.27575419,8.32087099 C6.4947486,8.28937277 6.72312849,8.27677349 6.95463687,8.27362366 C7.54905028,8.26732402 8.15284916,8.35551904 8.71910615,8.53505889 C9.05385475,8.64215283 9.41050279,8.45316352 9.51687151,8.11613257 C9.62324022,7.77910162 9.43553073,7.42002191 9.10078212,7.31292796 C8.49385475,7.12078882 7.84625698,7.02314434 7.21117318,7.00424541 C8.33117318,5.04820597 10.436648,3.78512736 12.7298324,3.78512736 C14.6976536,3.78512736 16.5059218,4.67337716 17.7072626,6.19474117 C16.2681564,6.7302109 15.0136313,7.6909066 14.1188827,8.96973432 C13.9155307,9.25951794 13.9843575,9.65954533 14.2721788,9.86113394 C14.56,10.0658724 14.9573184,9.99657628 15.1575419,9.70679266 C16.0522905,8.42796494 17.3693855,7.52711586 18.8710615,7.16803615 C19.3653631,7.04834292 19.8659218,6.9884963 20.363352,6.9884963 C23.8735196,6.9884963 26.7267039,9.86113394 26.7267039,13.3952342 C26.7267039,16.2521227 24.824581,18.7845796 22.0934078,19.5594358 C21.5490503,19.7200767 20.9671508,19.8019721 20.363352,19.8019721 L19.0900559,19.8019721 C18.7396648,19.8019721 18.4549721,20.0886059 18.4549721,20.4413859 C18.4549721,20.794166 18.7396648,21.0807998 19.0900559,21.0807998 L20.363352,21.0807998 C21.089162,21.0807998 21.7930726,20.9831553 22.4437989,20.7878663 C25.7130726,19.8618187 28,16.8190907 28,13.3920844 C28,9.15242399 24.5743017,5.70336894 20.363352,5.70336894 L20.363352,5.70336894 Z" id="路径"></path>
                    <path d="M16.227486,23.1974801 L15.2764246,22.6431115 L16.227486,22.0887428 C16.5309497,21.9123528 16.6373184,21.518625 16.4589944,21.2130923 C16.2837989,20.9075596 15.8927374,20.8004656 15.5892737,20.9800055 L14.6382123,21.5343741 L14.6382123,20.4382361 C14.6382123,20.085456 14.3535196,19.7988222 14.0031285,19.7988222 C13.6527374,19.7988222 13.3680447,20.085456 13.3680447,20.4382361 L13.3680447,21.5343741 L12.4263687,20.9863051 C12.122905,20.8099151 11.7318436,20.9138592 11.556648,21.2193919 C11.3814525,21.5249247 11.4846927,21.9186524 11.7881564,22.0950425 L12.7298324,22.6431115 L11.7881564,23.1911805 C11.4846927,23.3675705 11.378324,23.7612983 11.556648,24.066831 C11.6755307,24.2715694 11.8882682,24.3881128 12.1072626,24.3881128 C12.2136313,24.3881128 12.326257,24.3597644 12.4263687,24.3030677 L13.3680447,23.7549986 L13.3680447,24.8605861 C13.3680447,25.2133662 13.6527374,25.5 14.0031285,25.5 C14.3535196,25.5 14.6382123,25.2133662 14.6382123,24.8605861 L14.6382123,23.7549986 L15.5892737,24.3093673 C15.6893855,24.3660641 15.7988827,24.3944125 15.9083799,24.3944125 C16.1273743,24.3944125 16.3432402,24.2810189 16.4589944,24.0731306 C16.6373184,23.7675979 16.5309497,23.3738702 16.227486,23.1974801 L16.227486,23.1974801 Z" id="形状"></path>
                </g>
            </g>
        </g>
    </g>
</svg>