<?xml version="1.0" encoding="UTF-8"?>
<svg width="28px" height="28px" viewBox="0 0 28 28" version="1.1" xmlns="http://www.w3.org/2000/svg" xmlns:xlink="http://www.w3.org/1999/xlink">
    <title>轻度雾霾</title>
    <g id="页面-1" stroke="none" stroke-width="1" fill="none" fill-rule="evenodd">
        <g id="天气图标" transform="translate(-276.000000, -767.000000)" fill="#FFFFFF" fill-rule="nonzero">
            <g id="2" transform="translate(66.000000, 767.000000)">
                <g id="轻度雾霾" transform="translate(210.000000, 0.000000)">
                    <path d="M7.26441822,19.5 C3.19190557,19.5 0,17.0834093 0,14 C0,10.9165907 3.19190557,8.5 7.26441822,8.5 C11.3369309,8.5 14.5311973,10.9165907 14.5311973,14 C14.5311973,17.0834093 11.3392917,19.5 7.26441822,19.5 Z M7.26441822,10.4954421 C4.34637437,10.4904284 1.87925803,12.0998177 1.87925803,14 C1.87925803,15.9001823 4.34637437,17.5095716 7.26441822,17.5095716 C10.1824621,17.5095716 12.6519393,15.905196 12.6519393,14 C12.6519393,12.094804 10.184823,10.4904284 7.26441822,10.4904284 L7.26441822,10.4954421 Z" id="形状"></path>
                    <path d="M20.7355818,19.5 C16.6607083,19.5 13.4688027,17.0834093 13.4688027,14 C13.4688027,10.9165907 16.6607083,8.5 20.7355818,8.5 C24.8104553,8.5 28,10.9165907 28,14 C28,17.0834093 24.8080944,19.5 20.7355818,19.5 L20.7355818,19.5 Z M20.7355818,10.4954421 C17.8151771,10.4954421 15.3480607,12.0998177 15.3480607,14.0050137 C15.3480607,15.9102097 17.8151771,17.5095716 20.7355818,17.5095716 C23.6559865,17.5095716 26.120742,15.905196 26.120742,14 C26.120742,12.094804 23.6536256,10.4904284 20.7355818,10.4904284 L20.7355818,10.4954421 Z" id="形状"></path>
                </g>
            </g>
        </g>
    </g>
</svg>