<?xml version="1.0" encoding="UTF-8"?>
<svg width="28px" height="28px" viewBox="0 0 28 28" version="1.1" xmlns="http://www.w3.org/2000/svg" xmlns:xlink="http://www.w3.org/1999/xlink">
    <title>中度雾霾</title>
    <g id="页面-1" stroke="none" stroke-width="1" fill="none" fill-rule="evenodd">
        <g id="天气图标" transform="translate(-346.000000, -767.000000)" fill="#FFFFFF" fill-rule="nonzero">
            <g id="2" transform="translate(66.000000, 767.000000)">
                <g id="中度雾霾" transform="translate(280.000000, 0.000000)">
                    <path d="M7.26417329,19.2483973 C3.19140294,19.2483973 0,16.9435202 0,14 C0,11.0564798 3.19140294,8.75160268 7.26417329,8.75160268 C11.3369436,8.75160268 14.5307159,11.0564798 14.5307159,14 C14.5307159,16.9435202 11.3393129,19.2483973 7.26417329,19.2483973 Z M7.26417329,10.6555273 C4.3452361,10.6555273 1.87882892,12.1873102 1.87882892,14 C1.87882892,15.8126898 4.3452361,17.3444727 7.26417329,17.3444727 C10.1831105,17.3444727 12.6518869,15.8126898 12.6518869,14 C12.6518869,12.1873102 10.1854798,10.6555273 7.26417329,10.6555273 Z" id="形状"></path>
                    <path d="M20.7358267,19.2483973 C16.6606871,19.2483973 13.4692841,16.9435202 13.4692841,14 C13.4692841,11.0564798 16.6606871,8.75160268 20.7358267,8.75160268 C24.8109663,8.75160268 28,11.0564798 28,14 C28,16.9435202 24.8085971,19.2483973 20.7358267,19.2483973 L20.7358267,19.2483973 Z M20.7358267,10.6555273 C17.8145202,10.6555273 15.3481131,12.1873102 15.3481131,14 C15.3481131,15.8126898 17.8145202,17.3444727 20.7358267,17.3444727 C23.6571332,17.3444727 26.1211711,15.8126898 26.1211711,14 C26.1211711,12.1873102 23.6547639,10.6555273 20.7358267,10.6555273 Z" id="形状"></path>
                    <path d="M5.93738365,5.34470617 C5.93731509,5.82510024 6.19018477,6.26903241 6.60072307,6.50924951 C7.01126138,6.74946661 7.51708523,6.74946661 7.92762354,6.50924951 C8.33816184,6.26903241 8.59103152,5.82510024 8.59096296,5.34470617 C8.59103152,4.86431209 8.33816184,4.42037993 7.92762354,4.18016283 C7.51708523,3.93994572 7.01126138,3.93994572 6.60072307,4.18016283 C6.19018477,4.42037993 5.93731509,4.86431209 5.93738365,5.34470617 L5.93738365,5.34470617 Z" id="路径"></path>
                    <path d="M19.409037,5.34470617 C19.4089685,5.82510024 19.6618382,6.26903241 20.0723765,6.50924951 C20.4829148,6.74946661 20.9887386,6.74946661 21.3992769,6.50924951 C21.8098152,6.26903241 22.0626849,5.82510024 22.0626163,5.34470617 C22.0626849,4.86431209 21.8098152,4.42037993 21.3992769,4.18016283 C20.9887386,3.93994572 20.4829148,3.93994572 20.0723765,4.18016283 C19.6618382,4.42037993 19.4089685,4.86431209 19.409037,5.34470617 L19.409037,5.34470617 Z" id="路径"></path>
                    <path d="M5.93738365,22.6552938 C5.93731509,23.1356879 6.19018477,23.5796201 6.60072307,23.8198372 C7.01126138,24.0600543 7.51708523,24.0600543 7.92762354,23.8198372 C8.33816184,23.5796201 8.59103152,23.1356879 8.59096296,22.6552938 C8.59103152,22.1748998 8.33816184,21.7309676 7.92762354,21.4907505 C7.51708523,21.2505334 7.01126138,21.2505334 6.60072307,21.4907505 C6.19018477,21.7309676 5.93731509,22.1748998 5.93738365,22.6552938 L5.93738365,22.6552938 Z" id="路径"></path>
                    <path d="M19.409037,22.6552938 C19.4089685,23.1356879 19.6618382,23.5796201 20.0723765,23.8198372 C20.4829148,24.0600543 20.9887386,24.0600543 21.3992769,23.8198372 C21.8098152,23.5796201 22.0626849,23.1356879 22.0626163,22.6552938 C22.0626849,22.1748998 21.8098152,21.7309676 21.3992769,21.4907505 C20.9887386,21.2505334 20.4829148,21.2505334 20.0723765,21.4907505 C19.6618382,21.7309676 19.4089685,22.1748998 19.409037,22.6552938 L19.409037,22.6552938 Z" id="路径"></path>
                </g>
            </g>
        </g>
    </g>
</svg>