<?xml version="1.0" encoding="UTF-8"?>
<svg width="28px" height="28px" viewBox="0 0 28 28" version="1.1" xmlns="http://www.w3.org/2000/svg" xmlns:xlink="http://www.w3.org/1999/xlink">
    <title>中雪</title>
    <g id="页面-1" stroke="none" stroke-width="1" fill="none" fill-rule="evenodd">
        <g id="天气图标" transform="translate(-556.000000, -827.000000)" fill="#FFFFFF" fill-rule="nonzero">
            <g id="2" transform="translate(66.000000, 767.000000)">
                <g id="中雪" transform="translate(490.000000, 60.000000)">
                    <path d="M20.361077,5.12082854 C19.9106245,5.12082854 19.4570439,5.17299578 19.0065914,5.25584964 C17.5770305,3.21518987 15.2684616,2 12.7252821,2 C9.69411239,2 6.93509105,3.7920982 5.73388448,6.49252014 C2.43995084,7.08170311 0,9.91100882 0,13.2374377 C0,16.48715 2.35549101,19.3164557 5.59937437,19.9670119 C5.82772875,20.0130418 6.0623394,20.0467971 6.3000782,20.0713464 C6.3219752,20.074415 6.34387219,20.074415 6.36264105,20.074415 C6.68483968,20.074415 6.96324433,19.8350595 6.99452575,19.51285 C7.02893531,19.16916 6.77242766,18.8653625 6.42520389,18.8316072 C6.23125908,18.8131952 6.04044241,18.7855773 5.85275388,18.7456847 C3.19696123,18.2148063 1.27315384,15.9010357 1.27315384,13.2405063 C1.27315384,10.4173379 3.41905932,8.02685079 6.27505307,7.67395474 C6.49402301,7.64326812 6.72237739,7.63099348 6.9538599,7.62792482 C7.5482069,7.6217875 8.15193833,7.70771001 8.71813205,7.88262371 C9.05284326,7.98695819 9.40945146,7.80283851 9.51580829,7.47449175 C9.62216512,7.14614499 9.43447659,6.79631761 9.09976539,6.69198312 C8.49290582,6.50479478 7.8453804,6.40966628 7.21036756,6.39125432 C8.33024243,4.48561565 10.4354821,3.25508247 12.7284102,3.25508247 C14.6960116,3.25508247 16.5040778,4.12044496 17.7052843,5.60260836 C16.266339,6.12428078 15.011954,7.06022248 14.1173053,8.30609896 C13.9139761,8.5884158 13.9827952,8.97813579 14.2705843,9.17453011 C14.5583734,9.3739931 14.9556474,9.30648255 15.1558485,9.02416571 C16.0504972,7.77828922 17.367445,6.90065209 18.8689532,6.5508247 C19.3631996,6.43421557 19.8637024,6.37591101 20.361077,6.37591101 C23.8708524,6.37591101 26.723718,9.17453011 26.723718,12.6175681 C26.723718,15.4008439 24.8218076,17.8680476 22.0909396,18.6229382 C21.903251,18.6781741 21.7124344,18.7211354 21.5184896,18.7579593 C21.1743939,18.8224012 20.9460395,19.1476793 21.0086024,19.4852321 C21.0649089,19.7859609 21.3339292,19.9946298 21.6342308,19.9946298 C21.6717685,19.9946298 21.7124344,19.9915612 21.7531002,19.9854239 C21.990839,19.9424626 22.2223215,19.8872267 22.4444196,19.8227848 C25.7133281,18.9205984 28,15.9562716 28,12.6175681 C27.9968719,8.48101266 24.5715563,5.12082854 20.361077,5.12082854 L20.361077,5.12082854 Z" id="路径"></path>
                    <path d="M13.7606971,17.0824703 C13.5855212,16.7848101 13.1945034,16.6804756 12.8910736,16.8553893 L11.9401184,17.3954737 L11.9401184,16.3275796 C11.9401184,15.9838895 11.6554575,15.7046414 11.3051056,15.7046414 C10.9547537,15.7046414 10.6700927,15.9838895 10.6700927,16.3275796 L10.6700927,17.3954737 L9.72852195,16.8615267 C9.42196403,16.6896816 9.03407441,16.7909474 8.85889845,17.0886076 C8.68372249,17.3862677 8.78695118,17.7698504 9.09038096,17.9416954 L10.0319517,18.4756425 L9.08725282,19.0065209 C8.78382304,19.1783659 8.6774662,19.5619486 8.8557703,19.8596087 C8.97463971,20.0590717 9.18735337,20.1726122 9.40632332,20.1726122 C9.51268015,20.1726122 9.62216512,20.1449942 9.72539381,20.0897583 L10.6669646,19.5558113 L10.6669646,20.6329114 C10.6669646,20.9766015 10.9516255,21.2558496 11.3019774,21.2558496 C11.6523293,21.2558496 11.9369903,20.9766015 11.9369903,20.6329114 L11.9369903,19.5558113 L12.8879455,20.0958957 C12.988046,20.1511316 13.097531,20.1787495 13.207016,20.1787495 C13.4259859,20.1787495 13.6418277,20.0682777 13.757569,19.8657461 C13.9327449,19.5680859 13.8295163,19.1845033 13.5260865,19.0126582 L12.5751313,18.4725738 L13.5260865,17.9324895 C13.8326444,17.7637131 13.9358731,17.3801304 13.7606971,17.0824703 L13.7606971,17.0824703 Z M19.7636018,23.7568086 L18.8126466,23.2167242 L19.7636018,22.6766398 C20.0670316,22.5047948 20.1733884,22.1212121 19.9950843,21.823552 C19.8199084,21.5258918 19.4288906,21.4215573 19.1254608,21.596471 L18.1745056,22.1365554 L18.1745056,21.0686613 C18.1745056,20.7249712 17.8898447,20.4457231 17.5394928,20.4457231 C17.1891409,20.4457231 16.9044799,20.7249712 16.9044799,21.0686613 L16.9044799,22.1365554 L15.9629092,21.6026084 C15.6594794,21.4307633 15.2684616,21.5320292 15.0932857,21.8296893 C14.9181097,22.1273494 15.0213384,22.5109321 15.3247682,22.6827771 L16.266339,23.2167242 L15.3247682,23.7506713 C15.0213384,23.9225163 14.9149816,24.306099 15.0932857,24.6037591 C15.2121551,24.8032221 15.4248687,24.9167626 15.6438387,24.9167626 C15.7501955,24.9167626 15.8628086,24.8891446 15.9629092,24.8339087 L16.9044799,24.2999616 L16.9044799,25.3770618 C16.9044799,25.7207518 17.1891409,26 17.5394928,26 C17.8898447,26 18.1745056,25.7207518 18.1745056,25.3770618 L18.1745056,24.2999616 L19.1254608,24.840046 C19.2255614,24.8952819 19.3350464,24.9228999 19.4445313,24.9228999 C19.6635013,24.9228999 19.8793431,24.8124281 19.9950843,24.6098964 C20.1733884,24.3122363 20.0670316,23.9286536 19.7636018,23.7568086 L19.7636018,23.7568086 Z" id="形状"></path>
                </g>
            </g>
        </g>
    </g>
</svg>