<?xml version="1.0" encoding="UTF-8"?>
<svg width="28px" height="28px" viewBox="0 0 28 28" version="1.1" xmlns="http://www.w3.org/2000/svg" xmlns:xlink="http://www.w3.org/1999/xlink">
    <title>多云（夜间）</title>
    <g id="页面-1" stroke="none" stroke-width="1" fill="none" fill-rule="evenodd">
        <g id="天气图标" transform="translate(-136.000000, -827.000000)" fill="#FFFFFF" fill-rule="nonzero">
            <g id="2" transform="translate(66.000000, 767.000000)">
                <g id="多云（夜间）" transform="translate(70.000000, 60.000000)">
                    <path d="M23.8918315,12.4345842 C23.8292547,12.4345842 23.763549,12.4253017 23.7009722,12.4067367 C23.3661862,12.301535 23.1784557,11.9487999 23.2848363,11.6177239 C23.4600514,11.0700562 23.547659,10.4976351 23.547659,9.91902572 C23.547659,9.84476569 23.547659,9.76741149 23.5445301,9.69315146 C22.7654487,10.2470075 21.8236674,10.550236 20.8349536,10.550236 C18.266175,10.550236 16.1792379,8.48333182 16.1792379,5.94611415 C16.1792379,5.42010561 16.2668455,4.90647374 16.4389317,4.42068939 C13.9264722,5.02405212 12.0929713,7.25494717 12.0929713,9.91593155 C12.0929713,10.4945409 12.1805788,11.066962 12.3557939,11.6146297 C12.4621745,11.9457057 12.2744441,12.2984408 11.9396581,12.4036425 C11.6048721,12.5057501 11.2481842,12.3231942 11.1418036,11.9921182 C10.9290424,11.3206838 10.8226617,10.624496 10.8226617,9.91593155 C10.8226617,6.18127091 13.7762879,3.14279805 17.5434127,3.00046633 C17.79372,2.99118382 18.0127389,3.12113887 18.128506,3.33154229 C18.2442731,3.54194571 18.2255001,3.80185581 18.0847022,3.99678839 C17.6716952,4.56302111 17.4526763,5.23754971 17.4526763,5.94301999 C17.4526763,7.78714405 18.9701643,9.28781547 20.8349536,9.28781547 C21.8799866,9.28781547 22.8499274,8.82369029 23.4975975,8.00992413 C23.6477819,7.82117989 23.8918315,7.73454319 24.1296234,7.78404988 C24.3674154,7.83355656 24.5551458,8.0130183 24.6145938,8.24508089 C24.7522628,8.78346611 24.8210973,9.34660466 24.8210973,9.91593155 C24.8210973,10.624496 24.7115879,11.3237779 24.4988267,11.9921182 C24.414348,12.264405 24.1640407,12.4345842 23.8918315,12.4345842 L23.8918315,12.4345842 Z" id="路径"></path>
                    <path d="M21.0039111,25 L7.6375014,25 C6.91161024,25 6.20762096,24.9009866 5.54743547,24.7091482 C2.28405408,23.802557 0,20.8135908 0,17.4471362 C0,13.2823862 3.42608113,9.89427238 7.6375014,9.89427238 C8.23198123,9.89427238 8.83584758,9.96543824 9.42719857,10.10777 C11.2294111,10.531671 12.8126048,11.5960647 13.8857973,13.1029245 C14.089172,13.3875879 14.0203375,13.7805472 13.7324841,13.978574 C13.4446307,14.1796949 13.0472679,14.108529 12.847022,13.8269598 C11.9521734,12.5707276 10.6349313,11.6857956 9.1330875,11.3330604 C8.63560174,11.2154821 8.13498715,11.1535987 7.6375014,11.1535987 C4.12694156,11.1535987 1.27343837,13.9754798 1.27343837,17.4471362 C1.27343837,20.2535465 3.17577383,22.7412574 5.90099452,23.4993286 C6.45167058,23.6602253 7.03363504,23.7406737 7.6375014,23.7406737 L21.0039111,23.7406737 C21.3918874,23.7406737 21.7767348,23.7035437 22.1490669,23.6261895 C24.8023243,23.0908984 26.7296905,20.7548017 26.7296905,18.0752523 C26.7296905,15.2286178 24.5833054,12.818261 21.7360599,12.4624317 C20.8912728,12.3417592 20.0683875,12.4253017 19.2830484,12.669741 C18.9482624,12.7718485 18.5915745,12.5892926 18.4851939,12.2582166 C18.3788133,11.9271407 18.5665437,11.5744055 18.9013298,11.4692038 C19.8681417,11.1690695 20.9100458,11.0731503 21.9050173,11.2154821 C25.3749022,11.6486656 28,14.5974076 28,18.0752523 C28,21.3519761 25.6439826,24.2047989 22.3993742,24.8607624 C21.9456923,24.9535875 21.4732372,25 21.0039111,25 Z" id="路径"></path>
                </g>
            </g>
        </g>
    </g>
</svg>