<?xml version="1.0" encoding="UTF-8"?>
<svg width="28px" height="28px" viewBox="0 0 28 28" version="1.1" xmlns="http://www.w3.org/2000/svg" xmlns:xlink="http://www.w3.org/1999/xlink">
    <title>晴（夜间）</title>
    <g id="页面-1" stroke="none" stroke-width="1" fill="none" fill-rule="evenodd">
        <g id="天气图标" transform="translate(-136.000000, -767.000000)" fill="#FFFFFF" fill-rule="nonzero">
            <g id="2" transform="translate(66.000000, 767.000000)">
                <g id="晴（夜间）" transform="translate(70.000000, 0.000000)">
                    <path d="M14.001689,28 C6.28046774,28 0,21.7170086 0,13.9926848 C0,6.43753148 5.90506013,0.289876481 13.4402686,0.00228667655 C13.7311249,-0.0213971897 13.9847787,0.141006465 14.1166787,0.391378765 C14.2485787,0.638367656 14.2316684,0.942874508 14.0659479,1.16956294 C13.132502,2.46540877 12.6421047,4.00147666 12.6421047,5.61197957 C12.6421047,9.82770776 16.0681218,13.2551016 20.2821567,13.2551016 C22.6394459,13.2551016 24.8310146,12.192711 26.2920604,10.3386026 C26.464545,10.118681 26.7486372,10.0171787 27.0259654,10.0746967 C27.2999115,10.1322146 27.5163627,10.341986 27.5873857,10.6160422 C27.8613318,11.7055 28,12.8423256 28,13.9960682 C28.003378,21.7170086 21.7229102,28 14.001689,28 Z M12.0942125,1.60602276 C6.0369601,2.51615991 1.47457401,7.70969344 1.47457401,13.9926848 C1.47457401,20.9016069 7.0955419,26.5248335 14.001689,26.5248335 C20.9078361,26.5248335 26.5288039,20.9016069 26.5288039,13.9926848 C26.5288039,13.4411891 26.4949834,12.8964601 26.4239604,12.358498 C24.7566095,13.8810323 22.5887151,14.7302681 20.2855388,14.7302681 C15.2598118,14.7302681 11.1709127,10.639726 11.1709127,5.61197957 C11.1709127,4.20448123 11.4854434,2.84435063 12.0942125,1.60602276 Z" id="形状"></path>
                </g>
            </g>
        </g>
    </g>
</svg>