<?xml version="1.0" encoding="UTF-8"?>
<svg width="28px" height="28px" viewBox="0 0 28 28" version="1.1" xmlns="http://www.w3.org/2000/svg" xmlns:xlink="http://www.w3.org/1999/xlink">
    <title>沙尘</title>
    <g id="页面-1" stroke="none" stroke-width="1" fill="none" fill-rule="evenodd">
        <g id="天气图标" transform="translate(-206.000000, -767.000000)" fill="#FFFFFF" fill-rule="nonzero">
            <g id="2" transform="translate(66.000000, 767.000000)">
                <g id="沙尘" transform="translate(140.000000, 0.000000)">
                    <path d="M6.94326944,7.7291886 C6.94326944,8.05511346 7.20489444,8.31932775 7.52762523,8.31932775 C7.85035602,8.31932775 8.11198102,8.05511346 8.11198102,7.7291886 C8.11198102,7.40326375 7.85035602,7.13904946 7.52762523,7.13904946 C7.20489444,7.13904946 6.94326944,7.40326375 6.94326944,7.7291886 L6.94326944,7.7291886 Z" id="路径"></path>
                    <path d="M2.03189814,12.1739668 C2.03189814,12.5956396 2.2546533,12.9852814 2.61625393,13.1961178 C2.97785455,13.4069542 3.4233649,13.4069542 3.78496553,13.1961178 C4.14656615,12.9852814 4.36932131,12.5956396 4.36932131,12.1739668 C4.36932131,11.5221171 3.84607131,10.9936885 3.20060973,10.9936885 C2.55514814,10.9936885 2.03189814,11.5221171 2.03189814,12.1739668 L2.03189814,12.1739668 Z" id="路径"></path>
                    <path d="M13.7793046,8.31932775 C13.7793046,8.97117746 14.3025546,9.49960605 14.9480162,9.49960605 C15.5934778,9.49960605 16.1167278,8.97117746 16.1167278,8.31932775 C16.1167278,7.66747805 15.5934778,7.13904946 14.9480162,7.13904946 C14.3025546,7.13904946 13.7793046,7.66747805 13.7793046,8.31932775 Z" id="路径"></path>
                    <path d="M10.2940397,3.1251665 C10.2940397,3.7770162 10.8172897,4.30544479 11.4627513,4.30544479 C12.1082129,4.30544479 12.6314629,3.7770162 12.6314629,3.1251665 C12.6314629,2.47331679 12.1082129,1.9448882 11.4627513,1.9448882 C10.8172897,1.9448882 10.2940397,2.47331679 10.2940397,3.1251665 Z" id="路径"></path>
                    <path d="M4.35077032,24.7542347 C4.35077032,25.0801595 4.61239532,25.3443738 4.93512611,25.3443738 C5.25785691,25.3443738 5.51948191,25.0801595 5.51948191,24.7542347 C5.51948191,24.5433983 5.40810433,24.3485774 5.22730402,24.2431592 C5.0465037,24.137741 4.82374853,24.137741 4.64294821,24.2431592 C4.4621479,24.3485774 4.35077032,24.5433983 4.35077032,24.7542347 L4.35077032,24.7542347 Z" id="路径"></path>
                    <path d="M11.1868055,25.3443738 C11.1868055,25.9962235 11.7100555,26.5246521 12.3555171,26.5246521 C13.0009787,26.5246521 13.5242287,25.9962235 13.5242287,25.3443738 C13.5242287,24.6925241 13.0009787,24.1640955 12.3555171,24.1640955 C11.7100555,24.1640955 11.1868055,24.6925241 11.1868055,25.3443738 Z" id="路径"></path>
                    <path d="M7.70154065,20.1502126 C7.70154065,20.8020623 8.22479064,21.3304909 8.87025223,21.3304909 C9.51571381,21.3304909 10.0389638,20.8020623 10.0389638,20.1502126 C10.0389638,19.4983629 9.51571381,18.9699343 8.87025223,18.9699343 C8.22479064,18.9699343 7.70154065,19.4983629 7.70154065,20.1502126 Z" id="路径"></path>
                    <path d="M18.4147302,17.0566657 L1.82783737,17.0566657 C1.37063542,17.0566657 1,16.6823621 1,16.2206352 C1,15.7589084 1.37063542,15.3846048 1.82783737,15.3846048 L18.4147302,15.3846048 C22.1631062,15.3843652 25.2016396,12.3155654 25.2016396,8.53009172 C25.2016396,4.74461807 22.1631062,1.6758182 18.4147302,1.67557867 C17.973908,1.65202529 17.6284336,1.28418488 17.6284336,0.838377307 C17.6284336,0.392569731 17.973908,0.0247293277 18.4147302,0.00117593927 C21.4648942,-0.0498718241 24.305244,1.56425018 25.8451046,4.22373008 C27.3849651,6.88320998 27.3849651,10.1746317 25.8451046,12.8341116 C24.305244,15.4935914 21.4648942,17.1077135 18.4147302,17.0566657 L18.4147302,17.0566657 Z" id="路径"></path>
                    <path d="M17.1184806,12.9936045 L8.48995718,12.9936045 C8.03275522,12.9936045 7.66211981,12.6193009 7.66211981,12.157574 C7.66211981,11.6958472 8.03275522,11.3215436 8.48995718,11.3215436 L17.1184806,11.3215436 C18.2656318,11.3661426 19.3450582,10.7735161 19.9317627,9.77699598 C20.5184672,8.78047582 20.5184672,7.53969187 19.9317627,6.54317172 C19.3450582,5.54665157 18.2656318,4.95402509 17.1184806,4.99862412 C16.6612786,4.99862412 16.2906432,4.62432053 16.2906432,4.16259366 C16.2906432,3.70086679 16.6612786,3.3265632 17.1184806,3.3265632 C19.7630801,3.3265632 21.9069517,5.49165258 21.9069517,8.16242567 C21.9069517,10.8331988 19.7630801,12.9982881 17.1184806,12.9982881 L17.1184806,12.9936045 Z M20.9631707,27.9953163 C20.5223486,27.971763 20.1768742,27.6039226 20.1768742,27.158115 C20.1768742,26.7123074 20.5223486,26.344467 20.9631707,26.3209136 C22.6452304,26.2555184 23.9754528,24.8594192 23.9754528,23.1594539 C23.9754528,21.4594886 22.6452304,20.0633894 20.9631707,19.9979942 L12.3346473,19.9979942 C11.8774453,19.9979942 11.5068099,19.6236906 11.5068099,19.1619637 C11.5068099,18.7002368 11.8774453,18.3259332 12.3346473,18.3259332 L20.9631707,18.3259332 C23.5673513,18.3838046 25.6485663,20.5323759 25.6485663,23.1629666 C25.6485663,25.7935574 23.5673513,27.9421287 20.9631707,28 L20.9631707,27.9953163 Z" id="形状"></path>
                </g>
            </g>
        </g>
    </g>
</svg>