<?xml version="1.0" encoding="UTF-8"?>
<svg width="28px" height="28px" viewBox="0 0 28 28" version="1.1" xmlns="http://www.w3.org/2000/svg" xmlns:xlink="http://www.w3.org/1999/xlink">
    <title>小雨</title>
    <g id="页面-1" stroke="none" stroke-width="1" fill="none" fill-rule="evenodd">
        <g id="天气图标" transform="translate(-206.000000, -827.000000)" fill="#FFFFFF" fill-rule="nonzero">
            <g id="2" transform="translate(66.000000, 767.000000)">
                <g id="小雨" transform="translate(140.000000, 60.000000)">
                    <path d="M20.363352,5.15756792 C19.9128492,5.15756792 19.4592179,5.21034929 19.0087151,5.29417853 C17.5789944,3.22949547 15.2701676,2 12.7267039,2 C9.69519553,2 6.93586592,3.81319534 5.73452514,6.5454075 C2.44022346,7.13842173 0,10.0041397 0,13.3697283 C0,16.6576973 2.35575419,19.5203105 5.6,20.1785252 C6.05675978,20.2716688 6.52916201,20.3182406 6.99843575,20.3182406 L8.90681564,20.3182406 C9.2572067,20.3182406 9.54189944,20.035705 9.54189944,19.687969 C9.54189944,19.3402329 9.2572067,19.0576973 8.90681564,19.0576973 L6.99843575,19.0576973 C6.61050279,19.0576973 6.22569832,19.0204398 5.85340782,18.9428202 C3.19731844,18.4056921 1.27329609,16.0646831 1.27329609,13.3728331 C1.27329609,10.5164295 3.41944134,8.09780078 6.27575419,7.74075032 C6.4947486,7.70970246 6.72312849,7.69728331 6.95150838,7.69417853 C7.54592179,7.68796895 8.14972067,7.77490298 8.71910615,7.95187581 C9.05385475,8.05743855 9.41050279,7.87115136 9.51687151,7.5389392 C9.62324022,7.20672704 9.43553073,6.85278137 9.10078212,6.74721863 C8.49385475,6.55782665 7.84625698,6.46157827 7.21117318,6.44294955 C8.33117318,4.51177232 10.436648,3.2698577 12.7298324,3.2698577 C14.6976536,3.2698577 16.5059218,4.1454075 17.7072626,5.6450194 C16.2681564,6.17283312 15.0136313,7.11979301 14.1188827,8.38033635 C13.9155307,8.66597671 13.9843575,9.06028461 14.2721788,9.25899094 C14.56,9.46080207 14.9573184,9.39249677 15.1575419,9.1068564 C16.0522905,7.84631307 17.3693855,6.95834411 18.8710615,6.60439845 C19.3653631,6.48641656 19.8659218,6.42742561 20.363352,6.42742561 C23.8735196,6.42742561 26.7267039,9.25899094 26.7267039,12.7425614 C26.7267039,15.5586028 24.824581,18.0548512 22.0934078,18.8186287 C21.5490503,18.9769728 20.9671508,19.0576973 20.363352,19.0576973 L19.0900559,19.0576973 C18.7396648,19.0576973 18.4549721,19.3402329 18.4549721,19.687969 C18.4549721,20.035705 18.7396648,20.3182406 19.0900559,20.3182406 L20.363352,20.3182406 C21.089162,20.3182406 21.7930726,20.2219922 22.4437989,20.0294955 C25.7130726,19.1166882 28,16.1174644 28,12.7394567 C28,8.55730918 24.5743017,5.15756792 20.363352,5.15756792 L20.363352,5.15756792 Z" id="路径"></path>
                    <path d="M12.0916201,23.4727038 C11.7412291,23.4727038 11.4565363,23.1901682 11.4565363,22.8424321 L11.4565363,19.6848642 C11.4565363,19.3371281 11.7412291,19.0545925 12.0916201,19.0545925 C12.4420112,19.0545925 12.7267039,19.3371281 12.7267039,19.6848642 L12.7267039,22.8424321 C12.7267039,23.1901682 12.4420112,23.4727038 12.0916201,23.4727038 Z M15.9083799,26 C15.5579888,26 15.2732961,25.7174644 15.2732961,25.3697283 L15.2732961,24.7394567 C15.2732961,24.3917206 15.5579888,24.109185 15.9083799,24.109185 C16.2587709,24.109185 16.5434637,24.3917206 16.5434637,24.7394567 L16.5434637,25.3697283 C16.5465922,25.7174644 16.2618994,26 15.9083799,26 Z M15.9083799,22.8424321 C15.5579888,22.8424321 15.2732961,22.5598965 15.2732961,22.2121604 L15.2732961,19.6848642 C15.2732961,19.3371281 15.5579888,19.0545925 15.9083799,19.0545925 C16.2587709,19.0545925 16.5434637,19.3371281 16.5434637,19.6848642 L16.5434637,22.2121604 C16.5465922,22.5598965 16.2618994,22.8424321 15.9083799,22.8424321 Z" id="形状"></path>
                </g>
            </g>
        </g>
    </g>
</svg>