<?xml version="1.0" encoding="UTF-8"?>
<svg width="28px" height="28px" viewBox="0 0 28 28" version="1.1" xmlns="http://www.w3.org/2000/svg" xmlns:xlink="http://www.w3.org/1999/xlink">
    <title>暴雪</title>
    <g id="页面-1" stroke="none" stroke-width="1" fill="none" fill-rule="evenodd">
        <g id="天气图标" transform="translate(-696.000000, -827.000000)" fill="#FFFFFF" fill-rule="nonzero">
            <g id="2" transform="translate(66.000000, 767.000000)">
                <g id="暴雪" transform="translate(630.000000, 60.000000)">
                    <path d="M17.5426209,6.79009167 C17.170372,6.79009167 16.794995,6.83404496 16.4227461,6.89997488 C15.1777455,5.11672736 13.1882471,4.05556951 10.9985476,4.05556951 C8.3802927,4.05556951 5.99664842,5.62846917 4.94246453,8.00508602 C2.1021115,8.54508351 0,11.0535602 0,13.9984302 C0,16.8899284 2.04893308,19.4109632 4.87051726,19.9886349 C5.07071836,20.0294487 5.27404759,20.0608439 5.48050497,20.079681 C5.50240197,20.0828205 5.52429896,20.0828205 5.54306781,20.0828205 C5.86526645,20.0828205 6.1436711,19.837938 6.17495252,19.5082883 C6.20936208,19.1566621 5.95285443,18.8458496 5.60563066,18.8113148 C5.44296727,18.7956172 5.28343202,18.7705011 5.12389677,18.7391059 C2.89040331,18.2807359 1.2700257,16.29028 1.2700257,14.0015698 C1.2700257,11.5715811 3.07496369,9.51205576 5.47737683,9.21066181 C5.66506536,9.18240613 5.85588202,9.17298757 6.04982683,9.16984805 C6.55032957,9.16356901 7.05708859,9.23891749 7.53256619,9.38961447 C7.8672774,9.49635816 8.2238856,9.30798694 8.33024243,8.97205827 C8.43659926,8.6361296 8.24891074,8.27822429 7.91419953,8.1714806 C7.43559379,8.02078362 6.92883477,7.93601658 6.42833203,7.90776089 C7.38867166,6.33800075 9.11853424,5.33649378 10.9954195,5.33649378 C12.6095408,5.33649378 14.0922802,6.04916489 15.1057982,7.26729876 C13.9077198,7.7382268 12.8629203,8.55136255 12.1121662,9.62507849 C11.908837,9.91391435 11.9776561,10.3126334 12.2654452,10.5135627 C12.5532343,10.7176315 12.9505083,10.6485621 13.1507094,10.3597262 C13.9045917,9.2860103 15.0150821,8.52938591 16.2819797,8.22485244 C16.6980226,8.12438779 17.1234499,8.07415547 17.5394928,8.07415547 C20.4955871,8.07415547 22.9011284,10.4884466 22.9011284,13.4552932 C22.9011284,15.8538867 21.2963915,17.9824815 18.9940789,18.6323622 C18.8376718,18.679455 18.6750084,18.7171292 18.512345,18.7485244 C18.1682494,18.8144544 17.939895,19.1472435 18.0024578,19.4925907 C18.0587644,19.8002637 18.3277846,20.0137511 18.6280862,20.0137511 C18.665624,20.0137511 18.7062898,20.0106116 18.7438275,20.0043325 C18.9502849,19.9666583 19.1536141,19.916426 19.3444308,19.8599146 C22.1847838,19.0561974 24.1711762,16.4221399 24.1711762,13.4552932 C24.1805385,9.77577546 21.2025472,6.79009167 17.5426209,6.79009167 L17.5426209,6.79009167 Z" id="路径"></path>
                    <path d="M21.3620824,4.23452217 C20.9898335,4.23452217 20.6144565,4.27847545 20.2422076,4.34440537 C18.997207,2.56115786 17.0077086,1.5 14.8180092,1.5 C14.0234611,1.5 13.2445537,1.63813889 12.5063121,1.91441668 C12.2654452,2.00546277 12.0277064,2.10906693 11.8024802,2.22522918 C11.489666,2.38534472 11.3645403,2.77150571 11.5272037,3.08545774 C11.6867389,3.39940977 12.0715004,3.52499058 12.3843146,3.36173553 C12.568875,3.26754992 12.7565635,3.18278287 12.9536365,3.1105739 C13.5511116,2.88766796 14.1798682,2.77464523 14.8242654,2.77464523 C16.7167914,2.77464523 18.4341414,3.744757 19.4163781,5.37416803 C19.4226343,5.38672611 19.4320188,5.39300515 19.4382751,5.40242371 C19.4476595,5.41812131 19.460172,5.43067939 19.4695565,5.44323747 C19.5102223,5.4934698 19.5571445,5.53742308 19.6071947,5.56881828 C19.6165792,5.57509733 19.6228354,5.58137637 19.6322199,5.58765541 C19.6947827,5.62532965 19.7636018,5.65044581 19.832421,5.66300389 C19.8480617,5.66614341 19.8637024,5.66614341 19.8793431,5.66928293 C19.9043682,5.67242245 19.9293934,5.67870149 19.9544185,5.67870149 C19.9950843,5.67870149 20.0388783,5.66928293 20.0795442,5.66300389 C20.0889286,5.65986437 20.0951849,5.66300389 20.1045693,5.66300389 C20.5206122,5.56253924 20.9460395,5.51230692 21.3620824,5.51230692 C24.3181767,5.51230692 26.723718,7.92659802 26.723718,10.8934447 C26.723718,12.5636695 25.9698358,14.111453 24.6591442,15.1380761 C24.3807396,15.354703 24.3338175,15.7565616 24.5496593,16.0359789 C24.6747849,16.1960944 24.8624735,16.2808615 25.0532901,16.2808615 C25.1909284,16.2808615 25.3285666,16.2369082 25.4443079,16.1458621 C27.0678137,14.8743564 28,12.9623885 28,10.8934447 C27.9968719,7.22334547 25.0188806,4.23452217 21.3620824,4.23452217 L21.3620824,4.23452217 Z" id="路径"></path>
                    <path d="M13.6637247,19.4988698 C13.7638253,19.5553811 13.8733102,19.5836368 13.9827952,19.5836368 C14.2017652,19.5836368 14.417607,19.4706141 14.5333482,19.2634058 C14.7085242,18.9588723 14.6052955,18.5664322 14.3018657,18.3906191 L13.3509105,17.8380635 L14.3018657,17.285508 C14.6052955,17.1096948 14.7116523,16.7172548 14.5333482,16.4127213 C14.3581723,16.1081879 13.9671545,16.0014442 13.6637247,16.1803968 L12.7127695,16.7329524 L12.7127695,15.6403993 C12.7127695,15.2887731 12.4281086,15.0030767 12.0777567,15.0030767 C11.7274048,15.0030767 11.4427438,15.2887731 11.4427438,15.6403993 L11.4427438,16.7329524 L10.5011731,16.1866759 C10.1977433,16.0108627 9.80672551,16.1144669 9.63154955,16.4190004 C9.45637359,16.7235338 9.55960228,17.1159739 9.86303206,17.291787 L10.8046028,17.8380635 L9.86303206,18.3843401 C9.55960228,18.5601532 9.45324545,18.9525932 9.63154955,19.2571267 C9.75041895,19.4611955 9.96313261,19.5773578 10.1821026,19.5773578 C10.2884594,19.5773578 10.4010725,19.5491021 10.5011731,19.4925907 L11.4427438,18.9463142 L11.4427438,20.0482858 C11.4427438,20.3999121 11.7274048,20.6856084 12.0777567,20.6856084 C12.4281086,20.6856084 12.7127695,20.3999121 12.7127695,20.0482858 L12.7127695,18.9463142 L13.6637247,19.4988698 Z M10.4824042,24.2018712 L9.531449,23.6493156 L10.4824042,23.0998995 C10.785834,22.9240864 10.8921908,22.5316464 10.7138867,22.2271129 C10.5387108,21.9225794 10.1508211,21.8158357 9.84426321,21.9947884 L8.89330801,22.547344 L8.89330801,21.4547909 C8.89330801,21.1031646 8.60864708,20.8174683 8.25829516,20.8174683 C7.90794325,20.8174683 7.62328231,21.1031646 7.62328231,21.4547909 L7.62328231,22.547344 L6.68171154,22.0010674 C6.37515361,21.8252543 5.98726399,21.9288585 5.81208803,22.2333919 C5.63691208,22.5379254 5.74014077,22.9303654 6.04357055,23.1061786 L6.98514132,23.6524551 L6.04357055,24.1987316 C5.74014077,24.3745448 5.63378393,24.7669848 5.81208803,25.0715183 C5.93095743,25.2755871 6.1436711,25.3917493 6.36264105,25.3917493 C6.46899788,25.3917493 6.57848285,25.3634937 6.68171154,25.3069823 L7.62328231,24.7607058 L7.62328231,25.8626774 C7.62328231,26.2143037 7.90794325,26.5 8.25829516,26.5 C8.60864708,26.5 8.89330801,26.2143037 8.89330801,25.8626774 L8.89330801,24.7607058 L9.84426321,25.3132613 C9.94436376,25.3697727 10.0538487,25.3980284 10.1633337,25.3980284 C10.3823037,25.3980284 10.5981455,25.2850057 10.7138867,25.0777973 C10.8921908,24.7701243 10.7889621,24.3808238 10.4824042,24.2018712 L10.4824042,24.2018712 Z M18.1338398,23.5645485 L17.1828846,23.011993 L18.1338398,22.4625769 C18.4372696,22.2867638 18.5436264,21.8943237 18.3653223,21.5897903 C18.1901464,21.2852568 17.8022567,21.1785131 17.4956988,21.3574658 L16.5447436,21.9100213 L16.5447436,20.8174683 C16.5447436,20.465842 16.2600827,20.1801457 15.9097308,20.1801457 C15.5593788,20.1801457 15.2747179,20.465842 15.2747179,20.8174683 L15.2747179,21.9100213 L14.3331471,21.3637448 C14.0297174,21.1879317 13.6386996,21.2915359 13.4635236,21.5960693 C13.2883477,21.9006028 13.3915764,22.2930428 13.6950061,22.468856 L14.6365769,23.0151325 L13.6950061,23.561409 C13.3915764,23.7372222 13.2852195,24.1296622 13.4635236,24.4341957 C13.582393,24.6382645 13.7951067,24.7544267 14.0140766,24.7544267 C14.1204335,24.7544267 14.2299184,24.726171 14.3331471,24.6696597 L15.2747179,24.1233831 L15.2747179,25.2253548 C15.2747179,25.576981 15.5593788,25.8626774 15.9097308,25.8626774 C16.2600827,25.8626774 16.5447436,25.576981 16.5447436,25.2253548 L16.5447436,24.1233831 L17.4956988,24.6759387 C17.5957994,24.7324501 17.7052843,24.7607058 17.8147693,24.7607058 C18.0337392,24.7607058 18.2495811,24.647683 18.3653223,24.4404747 C18.5436264,24.1328017 18.4372696,23.7403617 18.1338398,23.5645485 L18.1338398,23.5645485 Z" id="形状"></path>
                </g>
            </g>
        </g>
    </g>
</svg>