<?xml version="1.0" encoding="UTF-8"?>
<svg width="28px" height="28px" viewBox="0 0 28 28" version="1.1" xmlns="http://www.w3.org/2000/svg" xmlns:xlink="http://www.w3.org/1999/xlink">
    <title>暴雨</title>
    <g id="页面-1" stroke="none" stroke-width="1" fill="none" fill-rule="evenodd">
        <g id="天气图标" transform="translate(-416.000000, -827.000000)" fill="#FFFFFF" fill-rule="nonzero">
            <g id="2" transform="translate(66.000000, 767.000000)">
                <g id="暴雨" transform="translate(350.000000, 60.000000)">
                    <path d="M17.5387021,7.77063783 C17.1665364,7.77063783 16.7912432,7.81442948 16.4190774,7.88011696 C15.174355,6.10342717 13.185301,5.04617163 10.9960907,5.04617163 C8.37842064,5.04617163 5.99530884,6.61328709 4.94136044,8.98116415 C2.10164191,9.51917585 0,12.0184279 0,14.9524684 C0,17.8333333 2.04847537,20.3450972 4.86942924,20.9206446 C5.06958561,20.9613083 5.27286943,20.9925881 5.47928069,21.0113559 C5.50117279,21.0144839 5.52306489,21.0144839 5.54182955,21.0144839 C5.86395622,21.0144839 6.14229867,20.7705018 6.1735731,20.4420645 C6.20797498,20.0917313 5.95152463,19.7820617 5.60437842,19.747654 C5.44175137,19.7320141 5.28225176,19.7069903 5.12275215,19.6757106 C2.88975762,19.2190262 1.26974199,17.2358901 1.26974199,14.9555964 C1.26974199,12.5345437 3.07427678,10.4825921 5.47615324,10.1823065 C5.66379984,10.1541548 5.85770133,10.1447708 6.04847537,10.1416429 C6.5488663,10.1353869 7.05238468,10.2104583 7.52775606,10.3606011 C7.86239249,10.4669523 8.21892103,10.2792738 8.3252541,9.94458044 C8.43158718,9.60988712 8.24394058,9.25329797 7.90930414,9.14694682 C7.43080532,8.99680403 6.9241595,8.9123487 6.42376857,8.88419693 C7.38389367,7.32333741 9.11336982,6.32238542 10.9898358,6.32238542 C12.6035966,6.32238542 14.0860047,7.03243574 15.0992963,8.24609003 C13.9014855,8.71528628 12.8569195,9.5254318 12.1063331,10.5951992 C11.9030493,10.8829729 11.971853,11.2802258 12.2595778,11.4804162 C12.5473026,11.6837345 12.9444879,11.6117911 13.1446443,11.3271454 C13.8983581,10.2573779 15.0086005,9.50353597 16.275215,9.2001224 C16.691165,9.1000272 17.1164973,9.0499796 17.5324472,9.0499796 C20.4878812,9.0499796 22.8928851,11.4553924 22.8928851,14.4113287 C22.8928851,16.8011016 21.2885066,18.9218686 18.9867084,19.5693594 C18.8303362,19.6162791 18.6677091,19.6538148 18.5050821,19.6850945 C18.1610633,19.750782 17.93276,20.0823473 17.9953088,20.4264246 C18.0516028,20.7329661 18.3205629,20.9456684 18.6207975,20.9456684 C18.6583268,20.9456684 18.6989836,20.9425405 18.7365129,20.9362845 C18.9429242,20.8987488 19.146208,20.8487012 19.336982,20.7923977 C22.1767005,19.9916361 24.1626663,17.3672651 24.1626663,14.4113287 C24.1751368,10.745342 21.1978108,7.77063783 17.5387021,7.77063783 L17.5387021,7.77063783 Z" id="路径"></path>
                    <path d="M21.3573104,5.2244662 C20.9851446,5.2244662 20.6098514,5.26825785 20.2376857,5.33394533 C18.9929633,3.55725554 17.0039093,2.5 14.814699,2.5 C14.0203284,2.5 13.241595,2.6376309 12.5035184,2.9128927 C12.2627052,3.00360397 12.0250195,3.10682715 11.7998436,3.22256222 C11.4870993,3.38208894 11.3620016,3.76682987 11.5246286,4.07962736 C11.6841282,4.39242486 12.0688038,4.51754386 12.3815481,4.35488916 C12.5660672,4.26104991 12.7537138,4.17659459 12.9507428,4.10465116 C13.5480844,3.88256494 14.1767005,3.76995784 14.8209539,3.76995784 C16.7130571,3.76995784 18.4300235,4.73650211 19.4120407,6.35992112 C19.4182955,6.36930505 19.4276779,6.37868897 19.4339328,6.3880729 C19.4433151,6.40371277 19.4558249,6.41622467 19.4683346,6.43186455 C19.5089914,6.47878417 19.5527756,6.51944784 19.6028147,6.55385557 C19.6153245,6.56011152 19.6215794,6.56949544 19.6340891,6.57575139 C19.696638,6.61015912 19.7623143,6.63518292 19.8311181,6.64769482 C19.8498827,6.65082279 19.8655199,6.65082279 19.8842846,6.65395077 C19.9093041,6.65707874 19.9311962,6.66333469 19.9562158,6.66333469 C19.9968726,6.66333469 20.0406568,6.65395077 20.0813135,6.64769482 C20.0906959,6.64456684 20.0969507,6.64769482 20.1063331,6.64769482 C20.522283,6.54759962 20.9476153,6.49755202 21.3635653,6.49755202 C24.3189992,6.49755202 26.7240031,8.90296478 26.7240031,11.8589011 C26.7240031,13.5229838 25.9702893,15.0650755 24.6598905,16.0879233 C24.3815481,16.3037536 24.3346364,16.7041344 24.55043,16.9825241 C24.6755278,17.1420509 24.8631744,17.2265062 25.0539484,17.2265062 C25.1915559,17.2265062 25.3291634,17.1827145 25.4448788,17.0920033 C27.0680219,15.8251734 28,13.9202366 28,11.8589011 C27.9906177,8.20229838 25.0132916,5.2244662 21.3573104,5.2244662 L21.3573104,5.2244662 Z" id="路径"></path>
                    <path d="M10.814699,25.5 C10.730258,25.5 10.645817,25.4843601 10.5645035,25.4468244 C10.2423769,25.3091935 10.0922596,24.9338365 10.2298671,24.6116551 L12.1376075,20.1574187 C12.275215,19.8352373 12.6505082,19.6850945 12.9726349,19.8227254 C13.2947615,19.9603563 13.4448788,20.3357133 13.3072713,20.6578947 L11.3995309,25.1121311 C11.2963253,25.3529852 11.061767,25.5 10.814699,25.5 L10.814699,25.5 Z M7.63408913,25.5 C7.54964816,25.5 7.46520719,25.4843601 7.38389367,25.4468244 C7.06176701,25.3091935 6.91164973,24.9338365 7.04925723,24.6116551 L8.95699765,20.1574187 C9.09460516,19.8352373 9.46677091,19.6850945 9.79202502,19.8227254 C10.1141517,19.9603563 10.264269,20.3357133 10.1266615,20.6578947 L8.21892103,25.1121311 C8.1157154,25.3529852 7.88115715,25.5 7.63408913,25.5 L7.63408913,25.5 Z M13.9953088,25.5 C13.9108679,25.5 13.8264269,25.4843601 13.7451134,25.4468244 C13.4229867,25.3091935 13.2728694,24.9338365 13.4104769,24.6116551 L15.3182174,20.1574187 C15.4558249,19.8352373 15.8311181,19.6850945 16.1532447,19.8227254 C16.4753714,19.9603563 16.6254887,20.3357133 16.4878812,20.6578947 L14.5801407,25.1121311 C14.4769351,25.3529852 14.2423769,25.5 13.9953088,25.5 L13.9953088,25.5 Z" id="形状"></path>
                </g>
            </g>
        </g>
    </g>
</svg>