<?xml version="1.0" encoding="UTF-8"?>
<svg width="28px" height="28px" viewBox="0 0 28 28" version="1.1" xmlns="http://www.w3.org/2000/svg" xmlns:xlink="http://www.w3.org/1999/xlink">
    <title>晴（白天）</title>
    <g id="页面-1" stroke="none" stroke-width="1" fill="none" fill-rule="evenodd">
        <g id="天气图标" transform="translate(-66.000000, -767.000000)" fill="#FFFFFF" fill-rule="nonzero">
            <g id="晴（白天）" transform="translate(66.000000, 767.000000)">
                <path d="M13.98125,21.609375 C9.775,21.609375 6.353125,18.1875 6.353125,13.98125 C6.353125,9.775 9.775,6.353125 13.98125,6.353125 C18.1875,6.353125 21.609375,9.775 21.609375,13.98125 C21.609375,18.1875 18.1875,21.609375 13.98125,21.609375 Z M13.98125,7.625 C10.475,7.625 7.625,10.475 7.625,13.98125 C7.625,17.4875 10.475,20.3375 13.98125,20.3375 C17.4875,20.3375 20.3375,17.4875 20.3375,13.98125 C20.3375,10.475 17.4875,7.625 13.98125,7.625 Z M13.98125,5.08125 C13.63125,5.08125 13.346875,4.796875 13.346875,4.446875 L13.346875,0.634375 C13.346875,0.284375 13.63125,0 13.98125,0 C14.33125,0 14.615625,0.284375 14.615625,0.634375 L14.615625,4.446875 C14.615625,4.796875 14.33125,5.08125 13.98125,5.08125 L13.98125,5.08125 Z M6.9875,7.625 C6.825,7.625 6.6625,7.5625 6.5375,7.4375 L4.63125,5.53125 C4.384375,5.284375 4.384375,4.88125 4.63125,4.63125 C4.878125,4.38125 5.28125,4.384375 5.53125,4.63125 L7.4375,6.5375 C7.684375,6.784375 7.684375,7.1875 7.4375,7.4375 C7.315625,7.5625 7.153125,7.625 6.9875,7.625 L6.9875,7.625 Z M4.446875,14.615625 L0.634375,14.615625 C0.284375,14.615625 0,14.33125 0,13.98125 C0,13.63125 0.284375,13.346875 0.634375,13.346875 L4.446875,13.346875 C4.796875,13.346875 5.08125,13.63125 5.08125,13.98125 C5.08125,14.33125 4.796875,14.615625 4.446875,14.615625 Z M5.08125,23.515625 C4.91875,23.515625 4.75625,23.453125 4.63125,23.328125 C4.384375,23.08125 4.384375,22.678125 4.63125,22.428125 L6.5375,20.521875 C6.784375,20.275 7.1875,20.275 7.4375,20.521875 C7.684375,20.76875 7.684375,21.171875 7.4375,21.421875 L5.53125,23.328125 C5.40625,23.453125 5.24375,23.515625 5.08125,23.515625 Z M13.98125,27.965625 C13.63125,27.965625 13.346875,27.68125 13.346875,27.33125 L13.346875,23.51875 C13.346875,23.16875 13.63125,22.884375 13.98125,22.884375 C14.33125,22.884375 14.615625,23.16875 14.615625,23.51875 L14.615625,27.33125 C14.615625,27.68125 14.33125,27.965625 13.98125,27.965625 L13.98125,27.965625 Z M22.88125,23.515625 C22.71875,23.515625 22.55625,23.453125 22.43125,23.328125 L20.525,21.421875 C20.278125,21.175 20.278125,20.771875 20.525,20.521875 C20.771875,20.271875 21.175,20.275 21.425,20.521875 L23.33125,22.428125 C23.578125,22.675 23.578125,23.078125 23.33125,23.328125 C23.20625,23.453125 23.04375,23.515625 22.88125,23.515625 Z M27.33125,14.615625 L23.51875,14.615625 C23.16875,14.615625 22.884375,14.33125 22.884375,13.98125 C22.884375,13.63125 23.16875,13.346875 23.51875,13.346875 L27.33125,13.346875 C27.68125,13.346875 27.965625,13.63125 27.965625,13.98125 C27.965625,14.33125 27.68125,14.615625 27.33125,14.615625 Z M20.975,7.625 C20.8125,7.625 20.65,7.5625 20.525,7.4375 C20.278125,7.190625 20.278125,6.7875 20.525,6.5375 L22.43125,4.63125 C22.678125,4.384375 23.08125,4.384375 23.33125,4.63125 C23.578125,4.878125 23.578125,5.28125 23.33125,5.53125 L21.425,7.4375 C21.3,7.5625 21.1375,7.625 20.975,7.625 Z" id="形状"></path>
            </g>
        </g>
    </g>
</svg>