<?xml version="1.0" encoding="UTF-8"?>
<svg width="28px" height="28px" viewBox="0 0 28 28" version="1.1" xmlns="http://www.w3.org/2000/svg" xmlns:xlink="http://www.w3.org/1999/xlink">
    <title>大风</title>
    <g id="页面-1" stroke="none" stroke-width="1" fill="none" fill-rule="evenodd">
        <g id="天气图标" transform="translate(-626.000000, -767.000000)" fill="#FFFFFF" fill-rule="nonzero">
            <g id="2" transform="translate(66.000000, 767.000000)">
                <g id="大风" transform="translate(560.000000, 0.000000)">
                    <path d="M1.07143183,12.2682406 L19.5980258,12.2682406 C22.717117,12.2682406 24.8125622,10.4248122 24.8125622,7.68139342 C24.8320368,6.24052411 24.1926692,4.86943544 23.0759367,3.9572956 C22.0384618,3.12062337 20.6722572,2.80964012 19.3743459,3.11471847 C18.9673163,3.20509398 18.654796,3.53139494 18.5823922,3.9415938 C18.5099883,4.35179266 18.6919449,4.76519079 19.0434861,4.98918103 C19.2735725,5.13685636 19.553187,5.1865757 19.8201523,5.12728301 C20.5085865,4.95990469 21.2357779,5.12286387 21.7866709,5.56796791 C22.4133572,6.08899798 22.7679351,6.86711067 22.7497369,7.68139342 C22.7497369,10.0865399 20.1246054,10.2091248 19.5980258,10.2091248 L1.07143183,10.2091248 C0.693677523,10.1944721 0.338168109,10.387437 0.144929189,10.7120159 C-0.0483097298,11.0365948 -0.0483097298,11.4407706 0.144929189,11.7653495 C0.338168109,12.0899284 0.693677523,12.2828933 1.07143183,12.2682406 L1.07143183,12.2682406 Z M19.5980258,18.5262766 L1.07143183,18.5262766 C0.50179836,18.5262766 0.0400191932,18.9875727 0.0400191932,19.5566103 C0.0400191932,20.125648 0.50179836,20.5869441 1.07143183,20.5869441 L19.5980258,20.5869441 C20.232089,20.6099465 20.7342176,21.1300967 20.7342176,21.7639142 C20.7342176,22.3977317 20.232089,22.9178818 19.5980258,22.9408842 C19.0443798,22.9623596 18.6066323,23.4169585 18.6066323,23.9704421 C18.6066323,24.5239257 19.0443798,24.9785246 19.5980258,25 C21.387567,25 22.8382768,23.5508076 22.8382768,21.7631383 C22.8382768,19.975469 21.387567,18.5262766 19.5980258,18.5262766 L19.5980258,18.5262766 Z" id="形状"></path>
                    <path d="M26.9685874,10.0555046 C26.39956,10.0555046 25.9380317,10.5158563 25.9371748,11.0842878 C25.9371748,13.0115084 23.9178428,14.3583905 21.0333048,14.3583905 L1.11647845,14.3583905 C0.546920667,14.3584974 0.0852595946,14.8197622 0.0852595946,15.3887242 C0.0852595946,15.9576862 0.546920667,16.418951 1.11647845,16.4190579 L21.0333048,16.4190579 C25.0719687,16.4190579 28,14.1768407 28,11.0842878 C28,10.8111688 27.8912844,10.5492586 27.6978122,10.3562799 C27.50434,10.1633012 27.2419921,10.0550938 26.9685874,10.0555046 L26.9685874,10.0555046 Z" id="路径"></path>
                </g>
            </g>
        </g>
    </g>
</svg>