<?xml version="1.0" standalone="no"?><!DOCTYPE svg PUBLIC "-//W3C//DTD SVG 1.1//EN" "http://www.w3.org/Graphics/SVG/1.1/DTD/svg11.dtd"><svg t="1583474335201" class="icon" viewBox="0 0 1392 1024" version="1.1" xmlns="http://www.w3.org/2000/svg" p-id="3986" xmlns:xlink="http://www.w3.org/1999/xlink" width="271.875" height="200"><defs><style type="text/css"></style></defs><path d="M532.511801 323.537475H205.533745a19.250869 19.250869 0 0 0-19.373747 19.127991 19.250869 19.250869 0 0 0 19.373747 19.087032h326.978056a19.250869 19.250869 0 0 0 19.332787-19.087032 19.250869 19.250869 0 0 0-19.332787-19.127991z m0 157.283695H205.533745a19.250869 19.250869 0 0 0-19.373747 19.127991 19.250869 19.250869 0 0 0 19.373747 19.087032h326.978056a19.250869 19.250869 0 0 0 19.332787-19.087032 19.250869 19.250869 0 0 0-19.332787-19.127991z m0 157.283695H205.533745a19.250869 19.250869 0 0 0-19.373747 19.127991 19.250869 19.250869 0 0 0 19.373747 19.127991h326.978056a19.250869 19.250869 0 0 0 19.332787-19.127991 19.250869 19.250869 0 0 0-19.332787-19.127991z m307.194716-295.439399a19.250869 19.250869 0 0 0 19.332788 19.087032h326.978056a19.250869 19.250869 0 0 0 19.373746-19.087032 19.250869 19.250869 0 0 0-19.373746-19.127991h-326.978056a19.250869 19.250869 0 0 0-19.332788 19.127991z m346.310844 138.155704h-326.978056a19.250869 19.250869 0 0 0-19.332788 19.127991c0 10.567498 8.642411 19.087032 19.332788 19.087032h326.978056a19.250869 19.250869 0 0 0 19.373746-19.087032 19.250869 19.250869 0 0 0-19.373746-19.127991z m0 157.283695h-326.978056a19.250869 19.250869 0 0 0-19.332788 19.127991 19.250869 19.250869 0 0 0 19.332788 19.127991h326.978056a19.250869 19.250869 0 0 0 19.373746-19.127991 19.250869 19.250869 0 0 0-19.373746-19.127991zM1020.255092 0C900.244356 0 766.225541 18.104009 696.308024 64.674728 626.390506 18.104009 492.412651 0 372.360955 0 200.57767 0 0 37.027203 0 141.514366v834.750442c0 14.089998 6.307732 27.442728 17.243863 36.494733 10.936132 9.052004 25.353804 12.943137 39.443802 10.526538 95.230362-16.26084 204.386885-24.862292 315.67329-24.862292 111.286406 0 220.442928 8.601452 315.673291 24.862292 1.310697 0.245756 2.580436 0.245756 3.891133 0.368634l3.071947 0.204797c0.409593 0 0.860145 0.122878 1.310698 0.122878 2.580436 0 5.160871-0.204796 7.741306-0.655349l0.532471-0.04096c95.230362-16.26084 204.386885-24.862292 315.673291-24.862292 111.286406 0 220.442928 8.601452 315.67329 24.862292a48.700602 48.700602 0 0 0 39.443802-10.526538c10.936132-9.092964 17.243863-22.404735 17.243863-36.535692V141.514366C1392.616047 37.068162 1192.038377 0 1020.255092 0zM96.827775 920.519207V147.576342c19.578543-18.923195 116.324399-52.018305 275.53318-52.018306 159.208782 0 255.954638 33.095111 275.533181 52.018306v772.942865a2085.975001 2085.975001 0 0 0-275.533181-17.694416 2085.237734 2085.237734 0 0 0-275.53318 17.694416z m1198.960497 0c-172.192878-23.182961-378.914443-23.182961-551.066361 0V147.576342c19.578543-18.923195 116.324399-52.018305 275.533181-52.018306 159.208782 0 255.954638 33.095111 275.53318 52.018306v772.942865z" fill="#333333" p-id="3987"></path></svg>