<?xml version="1.0" encoding="utf-8"?>
<!-- Generator: Adobe Illustrator 17.1.0, SVG Export Plug-In . SVG Version: 6.00 Build 0)  -->
<!DOCTYPE svg PUBLIC "-//W3C//DTD SVG 1.1//EN" "http://www.w3.org/Graphics/SVG/1.1/DTD/svg11.dtd">
<svg version="1.1" id="图层_1" xmlns="http://www.w3.org/2000/svg" xmlns:xlink="http://www.w3.org/1999/xlink" x="0px" y="0px"
	 width="200px" height="200px" viewBox="0 0 200 200" style="enable-background:new 0 0 200 200;" xml:space="preserve">
<style type="text/css">
	.st0{fill:#050505;}
</style>
<path d="M141.5,63.5c1.5,10.5,1.8,17.5,1.5,22.2c2.4,1,3.1,6.2,1.5,11.5c-1.6,5.4-4.9,9.1-7.4,8.1c-0.2-0.1-0.5-0.2-0.7-0.4
	c-5.4,15.7-19.6,27-36.2,27c-16.8,0-31-11.4-36.3-27.3c-0.3,0.4-0.7,0.6-1.1,0.8c-2.5,1-5.8-2.7-7.4-8.2c-1.6-5.5-0.9-10.7,1.6-11.7
	c0.4-0.2,0.8-0.2,1.2-0.1c-1-7.3-0.6-13.5,0.6-20.3c4,4.7,10.3,10.5,18.5,11.9c14.4,2.5,37.7,4.3,48.7-0.7
	C131.6,73.7,137.3,68.2,141.5,63.5L141.5,63.5z"/>
<path class="st0" d="M101.1,88.1h-0.9c-30-0.4-50.8-28-54.3-43.9c-5-22.5,10.4-11.9,23.3-17.1c11.9-4.9,19.5-26,31-26.8v0
	c0.1,0,0.2,0,0.3,0h0.4c0.1,0,0.2,0,0.3,0v0c11.6,0.8,19.1,21.9,31,26.8c12.9,5.3,28.3-5.4,23.3,17.1c-3.5,15.6-23.5,42.4-52.5,43.9
	C102.3,88,101.7,88.1,101.1,88.1z M137.2,62.6H63.3v4.5h73.9V62.6z M108.9,29.7c1.1-2.9,2-5,0.1-3.8c0,0-6.1,2.7-8.5-3.4
	c-2.4,6.1-8.5,3.4-8.5,3.4c-1.9-1.2-1,0.9,0.1,3.8c1.1,2.9,0.6,2.8-0.7,10.2c-1.3,7.4,3.5,9.9,6.7,10.9c0.8,2.4,2.4,2.4,2.4,2.4
	s1.6,0,2.4-2.4c3.2-1,8-3.5,6.7-10.9C108.3,32.5,107.8,32.6,108.9,29.7z M77.8,138.7l6.4,19.7l-4.8,7.1l15,34
	c-88.2-0.2-79.1-20.9-79.1-20.9c10.5-30.1,56.8-36.3,57.4-36.3C73.1,142.2,75.7,140.3,77.8,138.7L77.8,138.7z M121.1,139.3
	c2.8,1.8,7.8,3.5,7.8,3.5c53.6,8.3,56.1,38.4,56.1,38.4c-6.7,16.9-65,18.1-80,18.2l14.6-34l-6.9-7.4L121.1,139.3L121.1,139.3z
	 M77.8,138.7c1.4-1.1,2.6-2,2.6-2l0.3-10.8l38.9-0.3l-0.3,11.7c-0.1,0.6,0.5,1.2,1.4,1.8l-21.6,5.2L77.8,138.7z M98.9,199.9
	c0,0,5.4-14.2,6.1-34.4c0,0-7.8-7.2-11.3,1.3C93.8,166.9,92.3,183.6,98.9,199.9z M99.3,145.8c3.7,0,6.7,3,6.7,6.7
	c0,3.7-3,6.7-6.7,6.7s-6.7-3-6.7-6.7C92.6,148.8,95.6,145.8,99.3,145.8z"/>
</svg>
