<?xml version="1.0" standalone="no"?><!DOCTYPE svg PUBLIC "-//W3C//DTD SVG 1.1//EN" "http://www.w3.org/Graphics/SVG/1.1/DTD/svg11.dtd"><svg t="1572482847863" class="icon" viewBox="0 0 1024 1024" version="1.1" xmlns="http://www.w3.org/2000/svg" p-id="10323" xmlns:xlink="http://www.w3.org/1999/xlink" width="200" height="200"><defs><style type="text/css"></style></defs><path d="M425.813333 491.52c0 3.413333-1.706667 5.973333 0 9.386667 2.986667 0.853333 2.986667 0.853333 5.546667-0.426667 0.853333-1.28 0.426667-3.84 0.426667-5.12 0.853333-1.706667 8.533333-4.266667 8.533333-4.266667 5.12 0 7.68 5.546667 11.52 6.826667h0.853333c-13.226667 2.133333-26.453333 5.546667-37.973333 12.373333-17.066667 9.813333-31.573333 24.32-41.386667 41.386667L348.586667 595.2c-6.826667-3.413333-14.08-6.4-21.333334-9.386667 0.853333-0.853333 2.133333-1.28 2.986667-2.133333 17.493333-17.493333 31.146667-37.973333 40.96-61.013333 6.826667-15.786667 10.24-32.853333 12.373333-49.92 0.426667 0.853333 0.853333 2.133333 1.28 2.56l0.853334 0.853333c1.706667 2.56 4.266667 1.28 5.973333 2.56 2.133333 2.986667 4.266667 6.826667 7.253333 9.386667 3.413333 0 5.973333 0 9.386667 0.426666 1.706667 2.133333 2.986667 4.266667 5.546667 4.693334 2.133333 0.853333 3.84-1.706667 5.973333-2.133334 0.853333-0.853333 4.266667-0.426667 5.973333 0.426667zM955.733333 128V672H560.64l4.693333-8.106667c14.933333-26.026667 18.773333-55.893333 11.093334-84.906666-0.853333-2.986667-2.133333-5.546667-2.986667-8.106667 2.56 0 4.266667 2.56 7.253333 1.706667 0 0 3.84-1.28 4.266667-1.28 0.426667 0.426667 1.28 1.28 2.133333 1.706666 1.28 0 5.546667 1.28 5.546667-1.706666 1.28-1.28 2.56-0.853333 4.266667-0.853334s5.12-4.266667 5.973333-5.546666c0.426667 0 2.56-0.853333 2.986667-0.426667 0.853333 0.426667 0.426667 2.133333 2.133333 2.56 0 0 10.24 2.133333 11.52 2.133333l0.853333 0.853334c0 1.706667-1.28 5.12-0.853333 6.4-0.853333 4.693333 9.813333 7.68 12.8 7.68 0.853333 0 9.386667 1.28 9.386667 0.426666 1.706667-0.426667 1.28-1.28 0-2.133333 0-3.84 5.12 3.84 5.546666 3.84 2.133333 0 4.266667-1.28 6.4-2.133333h0.853334c0 2.133333-3.84 5.973333-0.426667 7.68 0.853333 1.28 2.986667 5.973333 4.266667 6.4 2.56 0 3.413333 0 5.546666-0.853334 0-0.853333 0.426667-3.413333-0.426666-4.266666-0.853333 0-1.28-0.426667-2.56-0.426667-0.426667-1.706667-1.28-1.28 0-2.986667 1.706667 0 2.56-2.986667 2.56-4.693333 0.426667-2.986667 16.64-4.693333 20.053333-5.973333 4.693333 0 12.8-5.12 14.08-10.24 0.426667-0.853333 0.426667-3.413333 2.56-2.133334 0 1.28 3.84 5.546667 5.546667 3.84 2.986667 0 3.413333-6.4 5.973333-5.546666 7.253333 2.133333 14.506667-5.12 20.053333-8.106667 0-0.853333-0.426667-1.28-0.426666-2.133333 0-2.986667 5.973333-4.266667 8.533333-5.12v-0.426667c2.133333 0 7.68-11.093333 8.96-12.373333 0.426667-1.28 5.973333-1.28 7.253333-4.693334 4.266667-2.133333 0.426667-6.826667 5.973334-7.253333 0.853333-2.56 0-4.266667-0.426667-7.253333-1.28-3.413333 2.56-2.133333 2.986667-4.693334-1.28-0.426667-3.84-1.28-3.84-2.986666 0.426667-0.853333 2.56-0.853333 3.84-0.853334 2.133333-2.133333 1.706667-5.973333 4.693333-8.106666 0.426667-6.826667 0.853333-7.68 3.84-12.8 9.813333 0 2.986667-8.106667 2.986667-14.08 1.28-0.853333 2.56 0.426667 3.84-1.28 0.853333-0.853333 0-3.413333 0-4.266667-0.853333-1.28-3.413333 1.706667-4.266667 1.706667 0-2.133333 4.693333-3.84 5.546667-6.4v-0.426667c-3.84-1.28-11.52-5.546667-14.506667-0.426667-0.853333 0-2.986667 0-3.84-0.426666v-0.426667c2.56-2.986667 13.226667-7.253333 13.226667-12.373333-1.706667-4.266667-4.693333-5.973333-7.253334-7.68 0-1.28 8.96-1.706667 4.693334-3.84v-0.426667c-3.84-2.56-7.68-4.266667-10.666667-7.253333 0-0.426667-0.426667-0.426667-0.426667-0.426667-4.693333-2.133333-5.12-21.76-17.92-23.466667 0-0.426667-1.28-0.853333-1.28-1.28l-0.426666-0.426666s0-0.426667-0.426667-0.426667c0 0 1.28-7.253333 1.28-8.106667 0-0.426667 0.853333-1.706667 1.28-2.133333 0 0 2.986667-4.266667 2.986667-5.12 1.28 0.853333 9.813333-8.106667 8.96-9.386667 0 0 8.96-3.84 9.386666-4.693333 1.706667 0 1.28-4.693333 1.28-5.546667-1.706667-0.853333-3.413333-1.706667-5.973333-0.853333-4.266667 1.28-7.253333-2.56-11.093333-1.706667-8.533333 0-8.533333 10.24-12.8 10.24-1.28 0-4.266667-3.413333-4.693334-4.266666 0-2.133333-0.853333-3.84-1.28-5.973334-2.986667-1.28-8.533333 1.706667-9.386666 1.28 0-2.133333-1.28-2.986667-1.706667-5.12-3.413333-1.706667-2.133333-6.826667 0.426667-8.96 1.706667-0.426667 8.96-1.706667 9.813333-2.986666 0 0 18.773333-23.04 18.773333-23.466667 2.56-0.853333 5.973333 0 6.4 2.986667 1.28 5.12-3.413333 6.4-3.413333 10.24v0.853333c-2.133333 0 2.56 5.546667 2.56 6.826667-2.56 0-4.266667 3.84-4.266667 5.973333 2.133333 0 4.693333-0.426667 7.253334-0.426667 0 0 2.56-4.266667 2.986666-6.4 4.266667-10.24 11.946667-7.68 18.346667-12.8 0-2.133333 1.706667-4.693333 1.706667-6.4 1.706667-1.706667 3.413333-3.84 5.973333-4.693333v-0.426667h0.426667c2.133333-2.986667 5.546667-5.546667 6.4-8.96 0.853333 0 1.28-4.693333 2.986666-5.12 3.413333 0 6.4 2.133333 10.24 2.133334 0.853333 0.426667 4.266667-1.706667 3.84-4.266667 0-1.28-0.853333-3.413333-2.986666-4.693333 0-0.853333 0-0.853333 0.426666-1.28 1.706667 0 4.693333-0.426667 5.546667-1.706667 2.133333-0.853333 3.84-7.253333 4.266667-9.386667 0 0 1.28-2.133333 2.56-2.133333 0.853333 0 0 4.266667 1.706666 6.4 0.853333 0 5.12 1.28 5.12 0.853333 0.853333-0.426667 1.28-0.853333 1.706667-2.133333 0.426667-1.28 1.706667-6.826667 1.706667-7.68 2.133333-7.253333-9.386667-17.92-7.253334-24.746667 0.426667-1.706667 3.413333-2.56 4.266667-4.266666 2.56 0 6.826667 2.133333 8.533333-0.853334 1.706667-1.706667 1.706667-2.986667 1.706667-5.12-1.28-0.853333 0.853333-23.04 2.133333-26.453333 0.426667-0.426667-1.706667-2.986667-2.133333-2.986667-2.986667-2.56 0-9.386667-2.986667-10.24-5.12 0-12.373333 6.826667-14.506666 11.093334-2.986667 2.986667-7.253333 8.106667-11.946667 6.4-2.986667 0-6.826667-7.68-6.826667-10.24-2.56-0.426667-7.253333-1.706667-7.253333-4.266667-0.426667-0.426667-2.133333-1.28-2.133333-1.28-1.28-0.426667-6.4 0.853333-6.4-0.426667-2.133333-0.853333-6.826667-0.426667-9.386667-0.426666V211.2c-1.28 0-1.706667-3.84-2.133333-4.693333-0.426667 0-0.426667 0-0.426667-0.426667-2.133333-1.706667-3.84-3.413333-3.84-6.4v-0.426667c-1.706667-1.706667-3.84-3.413333-5.973333-5.12v-0.426666l-0.426667-0.426667-0.426667-0.853333c0-2.56-12.8-15.786667-12.8-15.786667h-0.853333c-3.84-1.706667-5.973333-1.28-10.24-0.853333-2.133333 0-4.693333-2.56-7.253333-1.706667-3.413333 0-11.946667 2.56-13.226667 5.546667-2.56 0.853333-4.693333 1.706667-7.253333 2.133333-2.133333 1.706667-2.56 2.133333-2.986667 5.546667 0 0 0.426667 0.853333 0.426667 1.28 2.56 1.28 6.4 4.693333 5.12 8.106666 0 0-5.546667 7.68-5.546667 12.373334 0 3.413333-2.133333 8.106667-2.133333 11.093333l-0.853334 0.853333c-3.84 4.693333-9.813333 3.84-15.36 3.84-0.853333 0.426667-1.706667 0.853333-2.133333 1.706667h-0.426667c-1.28 5.546667-2.56 9.386667-2.56 14.933333 0.853333 2.56-1.706667 4.693333-3.413333 6.4 0 1.706667 0.853333 2.133333 1.28 3.413334 3.84 0 6.4-2.133333 8.96-2.133334 1.706667-0.426667 6.4 1.706667 9.386667 1.706667 1.28-1.28 1.28-2.56 2.56-3.84 2.56 0 3.413333-2.133333 5.12-2.133333 4.266667 2.56 9.813333 5.12 11.52 9.813333 0 0.853333 0.426667 2.56 0.426666 4.266667-1.706667 0.426667-12.8 0.853333-12.8 1.28-1.28 0-5.12 2.986667-6.4 4.693333h-0.426666c-2.133333 0.426667-4.693333 1.28-6.4 2.986667-0.426667 0-2.56 5.973333-4.693334 7.68-1.706667 2.986667-7.68 3.413333-10.666666 3.84-0.853333 2.56-6.4 9.386667-8.96 9.386666 0 2.56-9.813333-3.84-10.24-3.84-8.106667 0-2.986667 13.653333-2.133334 16.64 0.853333 1.28-7.68 7.68-9.813333 9.813334-1.706667 1.706667-7.253333 6.826667-7.68 8.96-5.546667 1.28-11.52-2.986667-16.213333-1.706667h-0.426667c0 4.266667-28.586667 10.24-29.866667 14.933333-0.853333 0-1.706667 0-2.133333-0.853333-2.986667-2.133333-3.84-4.693333-8.96-4.693333-0.853333-1.28-5.973333-5.12-8.106667-2.56-5.12-0.853333-8.533333-7.68-15.36-8.533334-6.4 0-12.8 0.426667-19.626666 0.426667v-0.426667c-2.133333 0-7.68-2.133333-10.666667-2.986666-3.413333 0-7.253333-1.28-10.24-1.28l-0.426667-0.426667-0.853333-0.853333v-0.426667c-0.853333 0-0.426667-4.693333-0.426667-5.12v-0.426667c-2.56-1.28-3.413333-5.546667-3.84-8.106666 1.28-6.826667-26.88-17.066667-28.586666-17.066667-2.56-0.426667-6.826667-1.28-8.96-2.56-3.413333-3.84-2.56-6.826667 0.853333-10.666667v-0.426666c3.84-2.986667 1.28-8.533333 0.426667-11.946667-1.706667-1.28-2.133333-6.826667-2.133334-9.386667-0.426667-0.853333-4.266667-3.413333-5.546666-3.413333-1.706667 0.426667-10.24-6.4-9.386667-8.533333 0-0.853333-0.853333-2.56-0.853333-4.266667 0-2.56-3.413333-3.84-5.546667-3.413333-4.693333 0-3.84 3.84-5.973333 5.546666-3.84 1.28-11.093333 0.853333-12.373334 5.973334-0.426667 0.853333 0 8.106667-0.426666 8.106666-0.426667 2.133333-1.28 2.56-3.413334 2.56-0.853333 0-15.36-2.133333-15.36-5.12-1.28 0-2.986667-0.426667-3.84 0.853334-0.426667 0.853333-3.84 7.253333-4.693333 8.96-6.826667 3.413333-2.986667 9.386667-5.12 11.52v0.426666c-6.826667 0-12.373333-4.266667-19.626667-2.133333-1.706667 0-2.56 1.28-1.28 2.56 1.28 0.853333 0.853333 2.986667 0.426667 4.693333 0.853333 4.693333 0.853333 9.813333-0.426667 14.506667 0 0.426667-8.96 11.093333-9.386666 11.52 0.426667 1.706667 0 3.413333-2.986667 5.12 0 0.426667-9.813333 1.706667-10.666667 1.706667-9.813333 0-14.08 0.426667-21.76 6.826666-5.12-0.426667-2.133333-5.12-5.973333-5.973333-2.56-0.853333-5.546667 0.426667-8.96 2.133333-16.213333-15.36-34.56-28.16-55.04-36.693333-23.466667-9.813333-48.213333-14.933333-73.813333-14.933333V125.866667H955.733333zM669.866667 603.306667c-0.426667-1.28-2.56-2.133333-3.84-2.56-4.693333-2.133333-14.08 2.133333-18.773334 2.56-0.426667 8.106667-6.826667 5.12-4.266666 16.64h0.426666c0 1.706667 7.253333 4.266667 8.96 3.84h0.426667c0.426667 0.853333 10.24-2.986667 12.373333-7.253334h0.426667c2.56-8.106667 5.546667-11.946667 4.266667-13.226666z m116.906666-70.826667c0-2.986667 4.693333-7.68-2.56-8.533333-0.853333-0.426667-5.12 0.426667-5.546666 0.853333-2.986667 2.56-6.826667 9.386667-6.826667 13.226667 0 3.413333-2.133333 4.266667-2.133333 8.533333 0 3.413333-0.426667 6.4-0.853334 9.386667 1.28 3.84 2.56 4.693333 5.546667 7.68 0.426667 1.706667 2.986667 3.413333 2.986667 4.693333 3.84-4.266667 1.706667-7.253333 3.413333-11.52 0-2.56 3.413333-2.986667 4.266667-4.693333 0-1.28 1.706667-2.986667 1.706666-4.693334 1.706667-3.84 0-10.24 0-14.933333z m-591.786666 43.52c46.08 0 86.186667-25.173333 108.373333-62.293333 0.853333-1.706667 1.706667-2.986667 2.56-4.693334 3.84-7.253333 7.253333-14.933333 9.386667-22.613333 0.853333-2.56 1.706667-4.693333 2.133333-7.253333 2.56-9.813333 4.266667-20.053333 4.266667-30.72 0-35.413333-14.08-67.413333-37.12-90.453334-23.04-23.04-54.613333-37.546667-89.6-37.546666-69.973333 0-126.72 57.173333-126.72 128 0 70.4 56.746667 127.573333 126.72 127.573333z m297.813333-9.813333c-5.12-2.986667-10.666667-4.693333-15.786667-5.546667-1.28-0.426667-2.56-0.426667-3.84-0.426667-1.28 0-2.56-0.426667-3.84-0.426666-4.266667 0-8.106667 0.426667-12.373333 1.706666H456.533333c-5.12 1.28-9.813333 3.84-14.08 6.826667-1.28 0.853333-2.133333 1.706667-3.413333 2.56-4.266667 3.413333-8.106667 7.68-11.093333 12.8L377.6 672l-5.12 8.96c-19.2-11.093333-39.253333-21.333333-59.306667-31.146667-14.933333-7.253333-30.293333-14.08-45.653333-20.053333l-33.706667-13.226667c-77.653333-31.146667-163.413333 25.173333-165.546666 109.653334V896h253.44v-133.546667l2.986666 1.706667 5.546667 2.56c44.8 22.613333 99.413333 5.973333 124.586667-37.973333l32.426666-57.173334 23.04-40.106666c13.226667-22.613333 5.12-51.626667-17.493333-65.28z m94.293333-157.44c-7.68-4.266667-17.066667-1.706667-21.76 5.973333l-52.053333 91.306667 0.853333-1.706667c-1.706667-0.853333-3.413333-2.986667-4.693333-3.84-2.133333 0-5.973333-2.986667-8.106667-3.84-1.28 0.426667-2.986667 1.706667-4.266666 2.986667 5.546667 1.28 10.666667 4.266667 16.213333 6.4l-17.493333 30.72c-4.266667 7.68-1.706667 17.493333 5.973333 21.76s17.066667 1.706667 21.76-5.973334l69.973333-122.453333c3.413333-7.253333 0.853333-17.066667-6.4-21.333333z" fill="" p-id="10324"></path></svg>