<?xml version="1.0" standalone="no"?><!DOCTYPE svg PUBLIC "-//W3C//DTD SVG 1.1//EN" "http://www.w3.org/Graphics/SVG/1.1/DTD/svg11.dtd"><svg t="1572482618754" class="icon" viewBox="0 0 1024 1024" version="1.1" xmlns="http://www.w3.org/2000/svg" p-id="5438" xmlns:xlink="http://www.w3.org/1999/xlink" width="200" height="200"><defs><style type="text/css"></style></defs><path d="M395.647205 784.430642H282.434783a21.624845 21.624845 0 0 1-21.200829-21.200828v-339.213251a21.200828 21.200828 0 0 1 21.200829-21.200828h113.212422a21.200828 21.200828 0 0 1 21.200828 21.200828v339.213251a21.624845 21.624845 0 0 1-21.200828 21.200828z m-92.435611-42.401656h71.234783v-296.811595H303.211594z" p-id="5439"></path><path d="M621.648033 784.430642H395.647205a21.200828 21.200828 0 0 1-21.200828-21.200828v-508.819876a21.200828 21.200828 0 0 1 21.200828-21.200828h226.000828a21.200828 21.200828 0 0 1 21.200828 21.200828v508.819876a21.200828 21.200828 0 0 1-21.200828 21.200828z m-204.8-42.401656H600.023188v-466.41822H416.848033z" p-id="5440"></path><path d="M734.860455 784.430642h-113.212422a21.624845 21.624845 0 0 1-21.200828-21.200828v-226.424845a21.624845 21.624845 0 0 1 21.200828-21.200828h113.212422a21.624845 21.624845 0 0 1 21.200829 21.200828v226.424845a21.624845 21.624845 0 0 1-21.200829 21.200828z m-92.011594-42.401656h70.810766V557.581781H642.424845z" p-id="5441"></path><path d="M763.269565 784.430642h-508.819876a21.200828 21.200828 0 0 1-21.200828-21.200828 21.200828 21.200828 0 0 1 21.200828-21.200828h508.819876a21.200828 21.200828 0 0 1 21.200828 21.200828 21.624845 21.624845 0 0 1-21.200828 21.200828zM975.277847 254.409938a42.401656 42.401656 0 0 1-42.401657-42.401656v-127.204969h-127.204968a42.401656 42.401656 0 0 1-42.401657-42.401657 42.401656 42.401656 0 0 1 42.401657-42.401656h169.606625a42.401656 42.401656 0 0 1 42.401656 42.401656v169.606626a42.401656 42.401656 0 0 1-42.401656 42.401656zM975.277847 1017.639752h-169.606625a42.401656 42.401656 0 0 1 0-84.803313h127.204968v-127.204969a42.401656 42.401656 0 0 1 84.803313 0v169.606625a42.401656 42.401656 0 0 1-42.401656 42.401657zM42.441408 254.409938a42.401656 42.401656 0 0 1-42.401656-42.401656v-169.606626a42.401656 42.401656 0 0 1 42.401656-42.401656h169.606625a42.401656 42.401656 0 0 1 0 84.803313h-127.204969v127.204969a42.401656 42.401656 0 0 1-42.401656 42.401656zM212.048033 1017.639752h-169.606625a42.401656 42.401656 0 0 1-42.401656-42.401657v-169.606625a42.401656 42.401656 0 0 1 42.401656-42.401656 42.401656 42.401656 0 0 1 42.401656 42.401656v127.204969h127.204969a42.401656 42.401656 0 1 1 0 84.803313z" p-id="5442"></path></svg>