<?xml version="1.0" encoding="utf-8"?>
<!-- Generator: Adobe Illustrator 17.1.0, SVG Export Plug-In . SVG Version: 6.00 Build 0)  -->
<!DOCTYPE svg PUBLIC "-//W3C//DTD SVG 1.1//EN" "http://www.w3.org/Graphics/SVG/1.1/DTD/svg11.dtd">
<svg version="1.1" id="图层_1" xmlns="http://www.w3.org/2000/svg" xmlns:xlink="http://www.w3.org/1999/xlink" x="0px" y="0px"
	 width="200px" height="200px" viewBox="0 0 200 200" style="enable-background:new 0 0 200 200;" xml:space="preserve">
<path d="M169.1,91.5c-3.8,0-6.8-3-6.8-6.8V20.1c0-0.9-0.8-1.7-1.7-1.7H22.4c-0.9,0-1.7,0.8-1.7,1.7l0,0v159.9c0,0.9,0.8,1.7,1.7,1.7
	h61.4c3.8,0.1,6.7,3.2,6.6,7c-0.1,3.6-3,6.5-6.6,6.6H14c-3.8,0-6.8-3-6.8-6.8V11.6c0-3.8,3-6.8,6.8-6.8h155.2c3.8,0,6.8,3,6.8,6.8
	v73.1C175.9,88.5,172.9,91.5,169.1,91.5z M38.4,48.6h100.1c3.8,0,6.8,3,6.8,6.8c0,3.8-3,6.8-6.8,6.8H38.4c-3.8,0-6.8-3-6.8-6.8
	C31.6,51.6,34.6,48.6,38.4,48.6L38.4,48.6z M39.5,92.3h45.1c3.8,0.1,6.7,3.2,6.6,7c-0.1,3.6-3,6.5-6.6,6.6H39.5
	c-3.8-0.1-6.7-3.2-6.6-7C32.9,95.4,35.8,92.4,39.5,92.3z M39.5,136.1h45.1c3.8,0.1,6.7,3.2,6.6,7c-0.1,3.6-3,6.5-6.6,6.6H39.5
	c-3.8-0.1-6.7-3.2-6.6-7C32.9,139.1,35.8,136.2,39.5,136.1z M104.1,92.3h9.4c3.8,0.1,6.7,3.2,6.6,7c-0.1,3.6-3,6.5-6.6,6.6h-9.4
	c-3.8-0.1-6.7-3.2-6.6-7C97.6,95.4,100.5,92.4,104.1,92.3z M108.7,138.6c0.9-4.6,2.6-8.9,5-13c3.9,2.7,9.3,1.8,12-2.1
	c2.2-3.2,2-7.5-0.5-10.5c4.8-3.5,10.3-5.9,16.2-7.1c0.8,4.7,5.2,7.9,9.9,7.1c3.6-0.6,6.5-3.4,7.1-7c5.9,1.2,11.4,3.7,16.1,7.2
	c-3,3.7-2.5,9.1,1.2,12.1c2.9,2.4,7.1,2.6,10.2,0.5c2.4,4,4,8.3,4.9,12.9c-4.7,1-7.6,5.6-6.6,10.2c0.7,3.3,3.3,5.9,6.6,6.6
	c-1,4.9-2.9,9.7-5.7,13.9c-4.2-2.2-9.4-0.6-11.6,3.6c-1.4,2.6-1.3,5.8,0.2,8.3c-4.6,3.2-9.9,5.5-15.4,6.6c-1-4.6-5.6-7.6-10.2-6.6
	c-3.3,0.7-5.9,3.3-6.6,6.6c-5.5-1.1-10.8-3.3-15.4-6.6c2.4-4.1,1.1-9.4-3-11.8c-2.6-1.6-5.9-1.6-8.6-0.1c-2.7-4.3-4.7-9-5.7-14
	c4.7-0.9,7.7-5.4,6.8-10.1C114.9,142,112.2,139.3,108.7,138.6L108.7,138.6z M149.9,161.2c7.8,0.1,14.3-6.1,14.4-13.9
	c0.1-7.8-6.1-14.3-13.9-14.4c-0.2,0-0.3,0-0.5,0c-7.8,0.1-14,6.6-13.9,14.4C136.2,155,142.3,161.1,149.9,161.2z"/>
</svg>
