<?xml version="1.0" encoding="utf-8"?>
<!-- Generator: Adobe Illustrator 17.1.0, SVG Export Plug-In . SVG Version: 6.00 Build 0)  -->
<!DOCTYPE svg PUBLIC "-//W3C//DTD SVG 1.1//EN" "http://www.w3.org/Graphics/SVG/1.1/DTD/svg11.dtd">
<svg version="1.1" id="图层_1" xmlns="http://www.w3.org/2000/svg" xmlns:xlink="http://www.w3.org/1999/xlink" x="0px" y="0px"
	 width="166.7px" height="195.9px" viewBox="0 0 166.7 195.9" style="enable-background:new 0 0 166.7 195.9;" xml:space="preserve"
	>
<style type="text/css">
	.st0{fill:#FFFFFF;}
</style>
<rect x="16" y="15.6" class="st0" width="125.2" height="10"/>
<rect x="16" y="48.7" class="st0" width="125.2" height="10"/>
<rect x="16" y="77.3" class="st0" width="40.5" height="10"/>
<path class="st0" d="M100.3,180.1c-27,0-48.9-21.9-48.9-48.9s21.9-48.9,48.9-48.9s48.9,21.9,48.9,48.9S127.3,180.1,100.3,180.1z
	 M100.3,92.4c-21.4,0-38.9,17.4-38.9,38.9c0,21.4,17.4,38.9,38.9,38.9c21.4,0,38.9-17.4,38.9-38.9
	C139.2,109.8,121.8,92.4,100.3,92.4z"/>
<path class="st0" d="M127.9,167c7.9,8.2,15.9,16.3,23.8,24.5c5.6,5.8,14.5-3.1,8.8-8.8c-7.9-8.2-15.9-16.3-23.8-24.5
	C131.1,152.4,122.3,161.2,127.9,167L127.9,167z"/>
<g>
	<path class="st0" d="M96.4,121.5c-0.2,14-0.2,21.4,1.3,21.4c0.3,0,0.5-2,0.5-4.2c0.6,0.8,1.4,2,2,2.6c-0.3,3.6-1,5.1-2.8,5.1
		c-4.3,0-4.4-7.2-4.4-21.7H80.4v4.6c0,5-0.6,12.7-4,17.5c-0.6-0.7-2-1.9-2.8-2.2c3-4.3,3.3-10.8,3.3-15.3v-7.8L96.4,121.5
		L96.4,121.5z M92.1,127.1c-0.8,2.6-1.9,5.1-3.1,7.4c1.7,2.4,3.2,4.7,4.2,6.6l-3,1.7c-0.7-1.5-1.7-3.3-3-5.2
		c-1.5,2.3-3.2,4.3-5.2,5.9c-0.5-0.8-1.6-2-2.4-2.5c2-1.5,3.9-3.7,5.6-6.2c-1.5-2.1-3.1-4.2-4.5-6.1l2.7-1.4
		c1.1,1.4,2.4,2.9,3.6,4.5c0.9-1.8,1.7-3.6,2.2-5.5L92.1,127.1z"/>
	<path class="st0" d="M111.6,122.7c-0.7,2.4-1.7,5.2-2.4,7.4c1.7,2.2,2,4.2,2,5.8c0,1.8-0.4,3-1.3,3.7c-0.4,0.3-1,0.5-1.6,0.6
		c-0.5,0.1-1.1,0.1-1.8,0.1c0-0.8-0.3-2-0.7-2.9c0.5,0.1,0.9,0.1,1.2,0c0.3,0,0.6-0.1,0.8-0.2c0.3-0.3,0.5-0.9,0.5-1.7
		c0-1.3-0.4-3.2-1.9-5.1c0.6-1.7,1.1-4,1.6-5.9h-2.3v22h-2.9v-25h6.2l0.5-0.1L111.6,122.7z M113.9,130.1c-0.7,0.6-1.4,1.2-2.1,1.7
		c-0.4-0.7-1.4-2.1-1.9-2.7c3.2-2.1,6.4-5.4,8.3-8.9l2.9,1c-0.1,0.3-0.3,0.6-0.5,0.8c1.9,2.3,5.1,4.9,7.8,6.3
		c-0.6,0.8-1.3,2.3-1.6,3.2c-1-0.6-2-1.3-2.9-2.1v2.4H114v-1.7H113.9z M126.9,133.9c-1.1,2.9-2.6,6.2-3.9,8.7h4.4v2.9h-16.2v-2.9h9
		c1.4-2.6,2.9-6.5,3.8-9.3L126.9,133.9z M113.9,141.2c-0.2-1.8-0.8-4.6-1.5-6.7l2.5-0.7c0.7,2.1,1.4,4.8,1.7,6.6L113.9,141.2z
		 M123.4,129c-1.6-1.4-3.2-2.9-4.5-4.4c-1.1,1.6-2.4,3.1-3.8,4.4H123.4z M118.7,140.3c-0.1-1.8-0.6-4.5-1.1-6.6l2.5-0.4
		c0.5,2.1,1,4.8,1.2,6.6L118.7,140.3z"/>
</g>
</svg>
