<?xml version="1.0" encoding="UTF-8"?>
<svg width="8px" height="8px" viewBox="0 0 8 8" version="1.1" xmlns="http://www.w3.org/2000/svg" xmlns:xlink="http://www.w3.org/1999/xlink">
    <title>路径</title>
    <g id="页面-1" stroke="none" stroke-width="1" fill="none" fill-rule="evenodd">
        <g id="监测预警" transform="translate(-1486.000000, -85.000000)" fill="#FFFFFF">
            <g id="提示" transform="translate(1168.000000, 72.000000)">
                <path d="M322.691818,17.0003107 L325.856544,13.835858 C326.047819,13.6444496 326.047819,13.3349647 325.856544,13.1447992 C325.665269,12.9533908 325.356001,12.9533908 325.165968,13.1447992 L322,16.308009 L318.834032,13.1435563 C318.642757,12.9521479 318.333489,12.9521479 318.143456,13.1435563 C317.952181,13.3349647 317.952181,13.6444496 318.143456,13.8346151 L321.308182,16.9990678 L318.143456,20.1647635 C317.952181,20.3561718 317.952181,20.6656568 318.143456,20.8558223 C318.239093,20.9515265 318.36454,20.9987571 318.488744,20.9987571 C318.61419,20.9987571 318.738395,20.9515265 318.834032,20.8558223 L322,17.6913695 L325.165968,20.8570652 C325.261605,20.9527694 325.38581,21 325.511256,21 C325.636702,21 325.760907,20.9527694 325.856544,20.8570652 C326.047819,20.6656568 326.047819,20.3561718 325.856544,20.1660064 L322.691818,17.0003107 Z" id="路径"></path>
            </g>
        </g>
    </g>
</svg>