<?xml version="1.0" encoding="UTF-8"?>
<svg width="13px" height="16px" viewBox="0 0 13 16" version="1.1" xmlns="http://www.w3.org/2000/svg" xmlns:xlink="http://www.w3.org/1999/xlink">
    <title>形状</title>
    <g id="页面-1" stroke="none" stroke-width="1" fill="none" fill-rule="evenodd" opacity="0.600000024">
        <g id="监测预警" transform="translate(-1198.000000, -114.000000)" fill="#FFFFFF" fill-rule="nonzero">
            <path d="M1210.86386,120.55946 C1210.86386,116.93668 1207.98418,114 1204.43186,114 C1200.87964,114 1198,116.93668 1198,120.55946 C1198,120.67444 1198.0111,120.78558 1198.01692,120.89814 C1198.01164,120.95374 1198,121.00736 1198,121.06442 C1198,125.1017 1203.93718,129.67484 1203.93718,129.67484 C1203.93718,129.67484 1204.43192,130.0532 1204.92668,129.67484 C1205.42142,129.29606 1210.86386,125.1017 1210.86386,121.06442 C1210.86386,121.00736 1210.85222,120.95374 1210.84694,120.89814 C1210.8527,120.78558 1210.86386,120.67444 1210.86386,120.55946 L1210.86386,120.55946 Z M1204.43186,123.083 C1203.06548,123.083 1201.95812,121.95342 1201.95812,120.55946 C1201.95812,119.16648 1203.06546,118.03686 1204.43186,118.03686 C1205.79832,118.03686 1206.90574,119.16648 1206.90574,120.55946 C1206.90574,121.95342 1205.79832,123.083 1204.43186,123.083 L1204.43186,123.083 Z" id="形状"></path>
        </g>
    </g>
</svg>