<?xml version="1.0" encoding="UTF-8"?>
<svg width="40px" height="40px" viewBox="0 0 40 40" version="1.1" xmlns="http://www.w3.org/2000/svg" xmlns:xlink="http://www.w3.org/1999/xlink">
    <title>编组 15</title>
    <defs>
        <circle id="path-1" cx="20" cy="20" r="20"></circle>
        <filter x="-8.8%" y="-8.8%" width="117.5%" height="117.5%" filterUnits="objectBoundingBox" id="filter-2">
            <feMorphology radius="2" operator="erode" in="SourceAlpha" result="shadowSpreadInner1"></feMorphology>
            <feGaussianBlur stdDeviation="2.5" in="shadowSpreadInner1" result="shadowBlurInner1"></feGaussianBlur>
            <feOffset dx="0" dy="0" in="shadowBlurInner1" result="shadowOffsetInner1"></feOffset>
            <feComposite in="shadowOffsetInner1" in2="SourceAlpha" operator="arithmetic" k2="-1" k3="1" result="shadowInnerInner1"></feComposite>
            <feColorMatrix values="0 0 0 0 0   0 0 0 0 0.756862745   0 0 0 0 0.870588235  0 0 0 1 0" type="matrix" in="shadowInnerInner1"></feColorMatrix>
        </filter>
    </defs>
    <g id="防灾宝数智视窗" stroke="none" stroke-width="1" fill="none" fill-rule="evenodd">
        <g id="宣传驿站" transform="translate(-1854.000000, -26.000000)">
            <g id="编组-15" transform="translate(1854.000000, 26.000000)">
                <g id="椭圆形" fill-rule="nonzero" fill="black" fill-opacity="1">
                    <use filter="url(#filter-2)" xlink:href="#path-1"></use>
                </g>
                <path d="M14.4183833,12.3675093 L14.4439682,12.3910898 L20,17.604 L25.5560318,12.3910898 L25.5816167,12.3675093 C26.1685234,11.8422194 27.0660284,11.8839317 27.6023838,12.4676369 L27.6023838,12.4676369 L27.6256267,12.4936289 C28.1454116,13.086802 28.1040074,13.9939343 27.5264244,14.5357931 L27.5264244,14.5357931 L21.8424856,19.8705102 C21.8475354,19.9423247 21.8473715,20.0144481 21.8419935,20.0862466 L27.540432,25.4671571 L27.5654425,25.4914075 C28.1255712,26.0456371 28.1481955,26.9535286 27.6101609,27.535492 C27.0641283,28.1261641 26.1479759,28.1577387 25.5634554,27.6059654 L25.5634554,27.6059654 L20,22.353 L14.4365446,27.6059654 C13.8520241,28.1577387 12.9358717,28.1261641 12.3898391,27.535492 C11.8518045,26.9535286 11.8744288,26.0456371 12.4345575,25.4914075 L12.459568,25.4671571 L18.1580065,20.0862466 C18.1526285,20.0144481 18.1524646,19.9423247 18.1575144,19.8705102 L12.4735756,14.5357931 C11.8959926,13.9939343 11.8545884,13.086802 12.3743733,12.4936289 L12.3976162,12.4676369 C12.9339716,11.8839317 13.8314766,11.8422194 14.4183833,12.3675093 Z" id="形状结合" fill="#FFFFFF"></path>
            </g>
        </g>
    </g>
</svg>