<?xml version="1.0" encoding="UTF-8"?>
<svg width="48px" height="47px" viewBox="0 0 48 47" version="1.1" xmlns="http://www.w3.org/2000/svg" xmlns:xlink="http://www.w3.org/1999/xlink">
    <title>降雨</title>
    <defs>
        <ellipse id="path-1" cx="24" cy="8" rx="24" ry="8"></ellipse>
        <filter x="-8.3%" y="-25.0%" width="116.7%" height="150.0%" filterUnits="objectBoundingBox" id="filter-2">
            <feGaussianBlur stdDeviation="4" in="SourceAlpha" result="shadowBlurInner1"></feGaussianBlur>
            <feOffset dx="0" dy="0" in="shadowBlurInner1" result="shadowOffsetInner1"></feOffset>
            <feComposite in="shadowOffsetInner1" in2="SourceAlpha" operator="arithmetic" k2="-1" k3="1" result="shadowInnerInner1"></feComposite>
            <feColorMatrix values="0 0 0 0 0   0 0 0 0 0.568627451   0 0 0 0 1  0 0 0 1 0" type="matrix" in="shadowInnerInner1"></feColorMatrix>
        </filter>
        <filter x="0.0%" y="0.0%" width="100.0%" height="100.0%" filterUnits="objectBoundingBox" id="filter-3">
            <feGaussianBlur stdDeviation="0" in="SourceGraphic"></feGaussianBlur>
        </filter>
        <filter id="filter-4">
            <feColorMatrix in="SourceGraphic" type="matrix" values="0 0 0 0 1.000000 0 0 0 0 1.000000 0 0 0 0 1.000000 0 0 0 1.000000 0"></feColorMatrix>
        </filter>
    </defs>
    <g id="页面-1" stroke="none" stroke-width="1" fill="none" fill-rule="evenodd">
        <g id="监测预警" transform="translate(-1041.000000, -494.000000)">
            <g id="降雨" transform="translate(1041.000000, 494.000000)">
                <g id="编组-7备份-29" transform="translate(0.000000, 30.400000)">
                    <g id="椭圆形" fill="black" fill-opacity="1">
                        <use filter="url(#filter-2)" xlink:href="#path-1"></use>
                    </g>
                    <ellipse id="椭圆形" fill="#00519B" opacity="0.703760901" filter="url(#filter-3)" cx="24" cy="8" rx="12" ry="4"></ellipse>
                </g>
                <g id="编组-8备份-29" transform="translate(8.000000, 0.000000)">
                    <path d="M16.128,0.5 C20.443553,0.5 24.350553,2.24922348 27.1786648,5.07733522 C30.0067765,7.90544697 31.756,11.812447 31.756,16.128 C31.756,20.3446763 30.0860255,24.171316 27.3774173,26.9764069 L27.3774173,26.9764069 L16.1279487,38.2292741 L4.88087975,26.9820736 C2.17000743,24.1714555 0.5,20.3447505 0.5,16.128 C0.5,11.812447 2.24922348,7.90544697 5.07733522,5.07733522 C7.90544697,2.24922348 11.812447,0.5 16.128,0.5 Z" id="形状结合" stroke="#FFFFFF" fill="#0091FF" fill-rule="nonzero"></path>
                    <g filter="url(#filter-4)" id="编组">
                        <g transform="translate(6.130000, 6.000000)">
                            <path d="M8.09354968,16.8030849 C7.74739583,16.8030849 7.47816506,17.0851362 7.47816506,17.4184696 L7.47816506,19.2902644 C7.47816506,19.6364183 7.76021635,19.905649 8.09354968,19.905649 C8.43970353,19.905649 8.70893429,19.6235978 8.70893429,19.2902644 L8.70893429,17.4184696 C8.70893429,17.0851362 8.43970353,16.8030849 8.09354968,16.8030849 Z M11.8243189,16.8030849 C11.4781651,16.8030849 11.2089343,17.0851362 11.2089343,17.4184696 L11.2089343,19.2902644 C11.2089343,19.6364183 11.4909856,19.905649 11.8243189,19.905649 C12.1704728,19.905649 12.4397035,19.6235978 12.4397035,19.2902644 L12.4397035,17.4184696 C12.4397035,17.0851362 12.1704728,16.8030849 11.8243189,16.8030849 Z M4.36278045,16.8030849 C4.0166266,16.8030849 3.74739583,17.0851362 3.74739583,17.4184696 L3.74739583,19.2902644 C3.74739583,19.6364183 4.02944712,19.905649 4.36278045,19.905649 C4.70893429,19.905649 4.97816506,19.6235978 4.97816506,19.2902644 L4.97816506,17.4184696 C4.97816506,17.0851362 4.70893429,16.8030849 4.36278045,16.8030849 Z M14.3499599,3.14923878 C13.4397035,1.30308494 11.5422676,0.0210336538 9.33713942,0.0210336538 C6.38842147,0.0210336538 3.97816506,2.31590545 3.76021635,5.20052083 C1.59354968,5.81590545 0.0166266026,7.71334135 0.0166266026,9.95693109 C0.0166266026,12.5979567 2.22175481,14.7646234 4.99098558,14.9184696 C4.99098558,14.9184696 13.901242,14.9312901 14.0038061,14.9312901 C17.2602163,14.9312901 19.9140625,12.2902644 19.9140625,9.02103365 C19.901242,5.89282853 17.4397035,3.32872596 14.3499599,3.14923878 Z M15.5550881,16.8030849 C15.2089343,16.8030849 14.9397035,17.0851362 14.9397035,17.4184696 L14.9397035,19.2902644 C14.9397035,19.6364183 15.2217548,19.905649 15.5550881,19.905649 C15.8884215,19.905649 16.1704728,19.6235978 16.1704728,19.2902644 L16.1704728,17.4184696 C16.1704728,17.0851362 15.8884215,16.8030849 15.5550881,16.8030849 Z" id="形状" fill="#000000" fill-rule="nonzero"></path>
                        </g>
                    </g>
                </g>
            </g>
        </g>
    </g>
</svg>