<?xml version="1.0" encoding="UTF-8"?>
<svg width="64px" height="64px" viewBox="0 0 64 64" version="1.1" xmlns="http://www.w3.org/2000/svg" xmlns:xlink="http://www.w3.org/1999/xlink">
    <title>阴</title>
    <g id="页面-1" stroke="none" stroke-width="1" fill="none" fill-rule="evenodd">
        <g id="天气图标" transform="translate(-1182.000000, -363.000000)" fill="#C1C1C1" fill-rule="nonzero">
            <g id="1" transform="translate(66.000000, 363.000000)">
                <g id="阴" transform="translate(1116.000000, 0.000000)">
                    <path d="M49.8939174,24.0958189 C48.9717074,24.0987699 48.0519354,24.191265 47.1474059,24.3720167 C44.6597425,16.235892 36.9040478,10.9141653 28.4634396,11.5516355 C20.0228313,12.1891057 13.1445361,18.6160527 11.8931849,27.0345634 L11.2175431,27.0345634 L11.2175431,27.1450425 C4.8286128,27.8699176 0,33.3043734 0,39.7700437 C0,46.2357139 4.8286128,51.6701697 11.2175431,52.3950448 L11.2175431,52.5 L49.8884243,52.5 C57.6820324,52.5 64,46.1464537 64,38.3089574 C64,30.471461 57.6820324,24.1179148 49.8884243,24.1179147 L49.8939174,24.0958189 Z" id="路径"></path>
                </g>
            </g>
        </g>
    </g>
</svg>