<?xml version="1.0" encoding="UTF-8"?>
<svg width="64px" height="64px" viewBox="0 0 64 64" version="1.1" xmlns="http://www.w3.org/2000/svg" xmlns:xlink="http://www.w3.org/1999/xlink">
    <title>多云（白天）</title>
    <g id="页面-1" stroke="none" stroke-width="1" fill="none" fill-rule="evenodd">
        <g id="天气图标" transform="translate(-66.000000, -473.000000)" fill-rule="nonzero">
            <g id="1" transform="translate(66.000000, 363.000000)">
                <g id="多云（白天）" transform="translate(0.000000, 110.000000)">
                    <path d="M6.55250491,27.4925264 C6.5522104,31.3900786 8.62151408,34.9916919 11.9808603,36.9405534 C15.3402065,38.8894149 19.4791767,38.8894149 22.8385229,36.9405534 C26.1978691,34.9916919 28.2671728,31.3900786 28.2668783,27.4925264 C28.2671728,23.5949743 26.1978691,19.9933609 22.8385229,18.0444994 C19.4791767,16.0956379 15.3402065,16.0956379 11.9808603,18.0444994 C8.62151408,19.9933609 6.5522104,23.5949743 6.55250491,27.4925264 Z" id="路径" fill="#FFBF44"></path>
                    <path d="M33.7515467,28.5764352 L30.7662209,28.5764352 C30.1764292,28.5762918 29.6983843,28.0958561 29.6983843,27.5032582 C29.6983843,26.9106603 30.1764292,26.4302246 30.7662209,26.4300811 L33.7515467,26.4300811 C34.3413384,26.4302246 34.8193833,26.9106603 34.8193833,27.5032582 C34.8193833,28.0958561 34.3413384,28.5762918 33.7515467,28.5764352 L33.7515467,28.5764352 Z M28.9771616,21.8637127 C28.4829543,21.8764465 28.0446317,21.546754 27.9175674,21.0667192 C27.7905032,20.5866844 28.0079062,20.081767 28.443114,19.8461398 L31.0279042,18.3490578 C31.3608446,18.1573532 31.7702832,18.1586775 32.1019883,18.352532 C32.4336934,18.5463865 32.6372712,18.9033199 32.6360414,19.288879 C32.6348005,19.6744381 32.4289397,20.0300472 32.0959993,20.2217518 L29.5112091,21.7188338 C29.3495518,21.8148661 29.1649558,21.8649442 28.9771616,21.8637127 L28.9771616,21.8637127 Z M24.085286,16.9754344 C23.7029343,16.9769199 23.3489346,16.7729774 23.1571003,16.440655 C22.965266,16.1083325 22.9648629,15.6983282 23.1560433,15.3656256 L24.6460359,12.7685371 C24.9409822,12.2499251 25.5985106,12.069746 26.1146667,12.3660957 C26.6308228,12.6624453 26.8101487,13.3231022 26.5152024,13.8417141 L25.0198692,16.4388026 C24.8273701,16.7738432 24.4702998,16.9788542 24.085286,16.9754344 L24.085286,16.9754344 Z M17.4096916,15.1563561 C16.819799,15.1563561 16.3415965,14.6758783 16.3415965,14.083179 L16.3415965,11.0729173 C16.3417393,10.4803194 16.8198999,10 17.4096916,10 C17.9994833,10 18.4776439,10.4803194 18.4777867,11.0729173 L18.4777867,14.0724472 C18.4806381,14.3589263 18.369367,14.6346582 18.1687504,14.838245 C17.9681339,15.0418318 17.6948284,15.1563561 17.4096916,15.1563561 L17.4096916,15.1563561 Z M10.7340972,16.9754344 C10.3490834,16.9788542 9.99201321,16.7738432 9.79951404,16.4388026 L8.30418085,13.8417141 C8.11338404,13.5062311 8.11521106,13.0939587 8.30897371,12.7601961 C8.50273636,12.4264335 8.85899747,12.2218871 9.24355694,12.2235968 C9.6281164,12.225328 9.98255049,12.433054 10.1733473,12.7685371 L11.66334,15.3656256 C11.8545203,15.6983282 11.8541172,16.1083325 11.6622829,16.440655 C11.4704487,16.7729774 11.1164489,16.9769199 10.7340972,16.9754344 L10.7340972,16.9754344 Z M5.82620026,21.8637127 C5.638406,21.8649442 5.45381006,21.8148661 5.29215267,21.7188338 L2.71804351,20.2217518 C2.20336219,19.9254021 2.02523177,19.2659465 2.32017808,18.7488163 C2.61512438,18.2316861 3.27145725,18.0527082 3.78613857,18.3490578 L6.36024779,19.8461398 C6.79545562,20.081767 7.0128586,20.5866844 6.88579436,21.0667192 C6.75873011,21.5467539 6.32040755,21.8764465 5.82620026,21.8637127 L5.82620026,21.8637127 Z M4.05316237,28.5764352 L1.06783658,28.5764352 C0.478044913,28.5762918 0,28.0958561 0,27.5032582 C0,26.9106603 0.478044913,26.4302246 1.06783658,26.4300811 L4.05316237,26.4300811 C4.64295403,26.4302246 5.12099895,26.9106603 5.12099895,27.5032582 C5.12099895,28.0958561 4.64295403,28.5762918 4.05316237,28.5764352 L4.05316237,28.5764352 Z M3.2574315,36.7862398 C2.75912752,36.8040836 2.31483498,36.4731379 2.1869958,35.988891 C2.05915661,35.5046442 2.28178864,34.9959537 2.72338397,34.7633011 L5.29215267,33.2662191 C5.62604708,33.0745144 6.03636715,33.0763501 6.36854927,33.2710347 C6.70073138,33.4657192 6.90430917,33.8236754 6.90260756,34.2100646 C6.90088452,34.5964538 6.69414223,34.9525743 6.36024779,35.1442789 L3.79681954,36.6413609 C3.63298829,36.7368511 3.44683195,36.7868524 3.2574315,36.7862398 L3.2574315,36.7862398 Z M9.23876411,42.7960476 C9.05140507,42.7939926 8.86763599,42.7441389 8.70471652,42.6511525 C8.4545896,42.5095457 8.27173226,42.2727261 8.19738214,41.9941008 C8.12303202,41.7154755 8.1634501,41.4185074 8.30952137,41.1701682 L9.80485449,38.5730796 C9.99565131,38.2385551 10.3495764,38.0317148 10.7333097,38.030468 C11.117043,38.0292324 11.4722862,38.2337788 11.6652227,38.5670622 C11.8581592,38.9003455 11.8594772,39.3117322 11.6686804,39.6462567 L10.1786878,42.2433452 C9.98940749,42.5862784 9.62903894,42.7981793 9.23876411,42.7960476 L9.23876411,42.7960476 Z M17.4096916,44.9960444 C16.819799,44.9960444 16.3415965,44.5155667 16.3415965,43.9228673 L16.3415965,40.9179715 C16.3415041,40.5345004 16.5450617,40.1801188 16.8755694,39.9883564 C17.2060771,39.7965941 17.6133061,39.7965941 17.9438138,39.9883564 C18.2743215,40.1801188 18.4778791,40.5345004 18.4777867,40.9179715 L18.4777867,43.9121356 C18.4806381,44.1986147 18.369367,44.4743465 18.1687504,44.6779333 C17.9681338,44.8815202 17.6948284,44.9960444 17.4096916,44.9960444 L17.4096916,44.9960444 Z M25.5859596,42.7960746 C25.2009458,42.7994944 24.8438756,42.5944834 24.6513764,42.2594428 L23.1613838,39.6623544 C22.8664375,39.1452242 23.0445679,38.4857685 23.5592492,38.1894189 C24.0739305,37.8930692 24.7302634,38.0720471 25.0252097,38.5891773 L26.5205428,41.1862658 C26.6610433,41.4338263 26.6977746,41.7273703 26.6226374,42.002171 C26.5475002,42.2769717 26.3666653,42.5104604 26.1200072,42.6511525 C25.9570877,42.7441389 25.7733186,42.7939926 25.5859596,42.7960746 L25.5859596,42.7960746 Z M31.5619517,36.7862398 C31.3745927,36.784201 31.1908236,36.7343473 31.0279042,36.6413609 L28.443114,35.1442789 C27.926958,34.8479292 27.7476321,34.1872724 28.0425784,33.6686605 C28.3375247,33.1500486 28.9950531,32.9698694 29.5112091,33.2662191 L32.0959993,34.7633011 C32.5375946,34.9959537 32.7602266,35.5046442 32.6323874,35.988891 C32.5045482,36.4731379 32.0602557,36.8040836 31.5619517,36.7862398 L31.5619517,36.7862398 Z" id="形状" fill="#FFBF44"></path>
                    <path d="M50.803685,27.4871606 C49.9357755,27.4878165 49.0700264,27.5740844 48.2188949,27.7447231 C45.8794152,20.1642821 38.6402933,15.2110659 30.7632039,15.8010354 C22.8861145,16.3910048 16.4578863,22.3678629 15.2628205,30.2130303 L14.6326443,30.2130303 L14.6326443,30.3096162 C8.70537075,31.0514078 4.25622702,36.113069 4.25622702,42.114564 C4.25622702,48.1160589 8.70537075,53.1777202 14.6326443,53.9195117 L14.6326443,54 L50.803685,54 C58.0918085,54 64,48.0636975 64,40.7408973 C64,33.4180971 58.0918085,27.4817946 50.803685,27.4817946 L50.803685,27.4871606 Z" id="路径" fill="#FFFFFF"></path>
                </g>
            </g>
        </g>
    </g>
</svg>