<?xml version="1.0" encoding="UTF-8"?>
<svg width="64px" height="64px" viewBox="0 0 64 64" version="1.1" xmlns="http://www.w3.org/2000/svg" xmlns:xlink="http://www.w3.org/1999/xlink">
    <title>浮尘</title>
    <g id="页面-1" stroke="none" stroke-width="1" fill="none" fill-rule="evenodd">
        <g id="天气图标" transform="translate(-810.000000, -363.000000)" fill-rule="nonzero">
            <g id="1" transform="translate(66.000000, 363.000000)">
                <g id="浮尘" transform="translate(744.000000, 0.000000)">
                    <path d="M59.3221289,33.8413644 C59.3221289,34.3164844 59.5762607,34.7555134 59.9887955,34.9930734 C60.4013303,35.2306334 60.9095941,35.2306334 61.3221289,34.9930734 C61.7346637,34.7555134 61.9887955,34.3164844 61.9887955,33.8413644 C61.9887955,33.3662445 61.7346637,32.9272155 61.3221289,32.6896555 C60.9095941,32.4520955 60.4013303,32.4520955 59.9887955,32.6896555 C59.5762607,32.9272155 59.3221289,33.3662445 59.3221289,33.8413644 L59.3221289,33.8413644 Z" id="路径" fill="#FFBF44"></path>
                    <path d="M33.3557423,53.4486955 C32.6447351,53.4553322 31.9827592,53.0880489 31.6134454,52.4820189 C30.3529412,51.9232463 25.5014005,51.1018506 17.67507,51.1018505 C9.84873956,51.1018505 4.99159664,51.9455971 3.73109244,52.4820189 C3.36177863,53.0880489 2.69980272,53.4553322 1.9887955,53.4486955 C1.4737101,53.4621969 0.97443108,53.2705925 0.601259429,52.9162116 C0.228087777,52.5618306 0.0117357681,52.073839 0,51.5600441 C0,50.5151393 0,47.3301354 17.67507,47.3301354 C35.3501401,47.3301354 35.3613445,50.520727 35.3613445,51.5600441 C35.3496779,52.0768352 35.131007,52.5674443 34.7541633,52.9223135 C34.3773195,53.2771827 33.8736908,53.4667544 33.3557423,53.4486955 Z" id="路径" fill="#C1C1C1"></path>
                    <path d="M46.5266106,58.5 C29.047619,58.5 29.047619,55.3205838 29.047619,54.275679 C29.0579148,53.7643694 29.2714877,53.2780938 29.6413307,52.9238806 C30.0111737,52.5696674 30.5069744,52.3765479 31.0196079,52.3870276 C31.7258367,52.3815522 32.3813902,52.752141 32.7394958,53.3592919 C33.9831933,53.9180645 38.7843137,54.7338725 46.5266106,54.7338725 C54.2689075,54.7338725 59.0644257,53.8901259 60.3081232,53.3592919 C60.6689034,52.7521008 61.3259876,52.3818527 62.0336134,52.3870276 C62.545714,52.3765559 63.0409274,52.5698496 63.4098813,52.924218 C63.7788352,53.2785864 63.9911737,53.7648738 64,54.275679 C64,55.3205838 64,58.5 46.5266106,58.5 L46.5266106,58.5 Z" id="路径" fill="#C1C1C1"></path>
                    <path d="M13.0756302,35.1712433 C13.0754808,36.1215825 13.5837118,36.999796 14.4088428,37.4750087 C15.2339737,37.9502214 16.2506201,37.9502214 17.075751,37.4750087 C17.900882,36.999796 18.4091131,36.1215825 18.4089636,35.1712433 C18.4091131,34.220904 17.900882,33.3426905 17.075751,32.8674778 C16.2506201,32.3922651 15.2339737,32.3922651 14.4088428,32.8674778 C13.5837118,33.3426905 13.0754808,34.220904 13.0756302,35.1712433 L13.0756302,35.1712433 Z" id="路径" fill="#FFBF44"></path>
                    <path d="M1.88795516,18.5365825 C1.88795516,19.2710543 2.48490883,19.8664613 3.2212885,19.8664613 C3.95766818,19.8664613 4.55462185,19.2710543 4.55462185,18.5365825 C4.55462185,18.0614625 4.30048996,17.6224336 3.88795516,17.3848736 C3.47542041,17.1473136 2.9671566,17.1473136 2.55462182,17.3848736 C2.14208705,17.6224336 1.88795516,18.0614625 1.88795516,18.5365825 L1.88795516,18.5365825 Z" id="路径" fill="#FFBF44"></path>
                    <path d="M41.0644257,35.1712433 C41.0644257,36.6401869 42.2583331,37.8310009 43.7310924,37.8310009 C45.2038518,37.8310009 46.3977591,36.6401869 46.3977591,35.1712433 C46.3977591,33.7022996 45.2038518,32.5114856 43.7310924,32.5114856 C42.2583331,32.5114856 41.0644257,33.7022996 41.0644257,35.1712433 Z" id="路径" fill="#FFBF44"></path>
                    <path d="M29.8767507,18.5365825 C29.8767507,19.0117024 30.1308826,19.4507314 30.5434174,19.6882914 C30.9559521,19.9258514 31.4642159,19.9258514 31.8767507,19.6882914 C32.2892855,19.4507314 32.5434173,19.0117024 32.5434173,18.5365825 C32.5434173,17.8021107 31.9464637,17.2067037 31.210084,17.2067037 C30.4737044,17.2067037 29.8767507,17.8021107 29.8767507,18.5365825 L29.8767507,18.5365825 Z" id="路径" fill="#FFBF44"></path>
                    <path d="M16.0112045,19.8664613 C16.011055,20.8168006 16.5192861,21.6950141 17.344417,22.1702268 C18.169548,22.6454395 19.1861944,22.6454395 20.0113253,22.1702268 C20.8364562,21.6950141 21.3446873,20.8168006 21.3445378,19.8664613 C21.3446873,18.916122 20.8364562,18.0379085 20.0113253,17.5626958 C19.1861944,17.0874831 18.169548,17.0874831 17.344417,17.5626958 C16.5192861,18.0379085 16.011055,18.916122 16.0112045,19.8664613 Z" id="路径" fill="#FFBF44"></path>
                    <path d="M29.8711484,33.8413644 C29.8711484,34.5758362 30.4681021,35.1712433 31.2044818,35.1712433 C31.9408615,35.1712433 32.5378151,34.5758362 32.5378151,33.8413644 C32.5378151,33.1068926 31.9408615,32.5114856 31.2044818,32.5114856 C30.4681021,32.5114856 29.8711484,33.1068926 29.8711484,33.8413644 Z" id="路径" fill="#FFBF44"></path>
                    <path d="M45.4621848,19.8664613 C45.4620354,20.8168006 45.9702665,21.6950141 46.7953974,22.1702268 C47.6205283,22.6454395 48.6371747,22.6454395 49.4623057,22.1702268 C50.2874366,21.6950141 50.7956677,20.8168006 50.7955182,19.8664613 C50.7956677,18.916122 50.2874366,18.0379085 49.4623057,17.5626958 C48.6371747,17.0874831 47.6205283,17.0874831 46.7953974,17.5626958 C45.9702665,18.0379085 45.4620354,18.916122 45.4621848,19.8664613 Z" id="路径" fill="#FFBF44"></path>
                    <path d="M9.52941173,8.160175 C9.52926226,9.11051429 10.0374934,9.9887278 10.8626243,10.4639405 C11.6877552,10.9391532 12.7044016,10.9391532 13.5295325,10.4639405 C14.3546635,9.9887278 14.8628946,9.11051429 14.8627451,8.160175 C14.8628946,7.20983572 14.3546635,6.33162221 13.5295325,5.85640952 C12.7044016,5.38119683 11.6877552,5.38119683 10.8626243,5.85640952 C10.0374934,6.33162221 9.52926226,7.20983572 9.52941173,8.160175 L9.52941173,8.160175 Z" id="路径" fill="#FFBF44"></path>
                    <path d="M37.5182073,8.160175 C37.5182073,9.62911861 38.7121146,10.8199327 40.1848739,10.8199327 C41.6576333,10.8199327 42.8515406,9.62911861 42.8515406,8.160175 C42.8515406,7.20993508 42.3432769,6.33187717 41.5182073,5.8567572 C40.6931378,5.38163722 39.6766101,5.38163722 38.8515406,5.8567572 C38.026471,6.33187717 37.5182073,7.20993508 37.5182073,8.160175 L37.5182073,8.160175 Z" id="路径" fill="#FFBF44"></path>
                    <path d="M26.3193277,6.8358839 C26.3193277,7.57035571 26.9162814,8.16576274 27.6526611,8.16576274 C28.3890407,8.16576274 28.9859944,7.57035571 28.9859944,6.8358839 C28.9859944,6.1014121 28.3890407,5.50600507 27.6526611,5.50600507 C26.9162814,5.50600507 26.3193277,6.1014121 26.3193277,6.8358839 L26.3193277,6.8358839 Z" id="路径" fill="#FFBF44"></path>
                    <path d="M55.7703081,6.8358839 C55.7703081,7.57035571 56.3672618,8.16576274 57.1036414,8.16576274 C57.8400211,8.16576274 58.4369748,7.57035571 58.4369748,6.8358839 C58.4369748,6.1014121 57.8400211,5.50600507 57.1036414,5.50600507 C56.3672618,5.50600507 55.7703081,6.1014121 55.7703081,6.8358839 L55.7703081,6.8358839 Z" id="路径" fill="#FFBF44"></path>
                </g>
            </g>
        </g>
    </g>
</svg>