<?xml version="1.0" encoding="UTF-8"?>
<svg width="64px" height="64px" viewBox="0 0 64 64" version="1.1" xmlns="http://www.w3.org/2000/svg" xmlns:xlink="http://www.w3.org/1999/xlink">
    <title>雾</title>
    <g id="页面-1" stroke="none" stroke-width="1" fill="none" fill-rule="evenodd">
        <g id="天气图标" transform="translate(-934.000000, -363.000000)" fill="#C1C1C1" fill-rule="nonzero">
            <g id="1" transform="translate(66.000000, 363.000000)">
                <g id="雾" transform="translate(868.000000, 0.000000)">
                    <path d="M51.1957676,16.3621409 L2.81866718,16.3621409 C1.24257886,16.2940842 0,15.0025634 0,13.4324539 C0,11.8623444 1.24257886,10.5708237 2.81866718,10.5027669 L51.1957676,10.5027669 C52.2778764,10.4560406 53.2984967,11.0039912 53.8535601,11.9296826 C54.4086235,12.8553739 54.4086235,14.009534 53.8535601,14.9352253 C53.2984967,15.8609166 52.2778764,16.4088673 51.1957676,16.3621409 Z M61.1813328,28.7423424 L12.8042324,28.7423424 C11.7221236,28.7890687 10.7015033,28.241118 10.1464399,27.3154267 C9.59137647,26.3897354 9.59137647,25.2355753 10.1464399,24.309884 C10.7015033,23.3841927 11.7221236,22.836242 12.8042324,22.8829683 L61.1813328,22.8829683 C62.7574211,22.9510251 64,24.2425458 64,25.8126554 C64,27.3827649 62.7574211,28.6742856 61.1813328,28.7423424 L61.1813328,28.7423424 Z M61.0539518,53.4972331 L12.6768513,53.4972331 C11.5947426,53.5439594 10.5741222,52.9960088 10.0190588,52.0703174 C9.46399542,51.1446261 9.46399542,49.990466 10.0190588,49.0647747 C10.5741222,48.1390834 11.5947426,47.5911327 12.6768513,47.6378591 L61.0539518,47.6378591 C62.6300402,47.7059158 63.872619,48.9974366 63.872619,50.5675461 C63.872619,52.1376556 62.6300402,53.4291763 61.0539518,53.4972331 L61.0539518,53.4972331 Z M52.2480457,41.1170317 L3.87094524,41.1170317 C2.78883648,41.163758 1.76821613,40.6158073 1.21315273,39.690116 C0.65808932,38.7644247 0.65808932,37.6102646 1.21315273,36.6845733 C1.76821613,35.758882 2.78883648,35.2109313 3.87094524,35.2576576 L52.2480457,35.2576576 C53.8241341,35.3257144 55.0667129,36.6172351 55.0667129,38.1873446 C55.0667129,39.7574542 53.8241341,41.0489749 52.2480457,41.1170317 L52.2480457,41.1170317 Z" id="形状"></path>
                </g>
            </g>
        </g>
    </g>
</svg>