<?xml version="1.0" encoding="UTF-8"?>
<svg width="64px" height="64px" viewBox="0 0 64 64" version="1.1" xmlns="http://www.w3.org/2000/svg" xmlns:xlink="http://www.w3.org/1999/xlink">
    <title>重度雾霾</title>
    <g id="页面-1" stroke="none" stroke-width="1" fill="none" fill-rule="evenodd">
        <g id="天气图标" transform="translate(-686.000000, -363.000000)" fill-rule="nonzero">
            <g id="1" transform="translate(66.000000, 363.000000)">
                <g id="重度雾霾" transform="translate(620.000000, 0.000000)">
                    <path d="M16.6069803,43.1092883 C7.29455406,43.1092883 0,37.8804297 0,31.1963956 C0,24.5123614 7.29455406,19.2835027 16.6069803,19.2835027 C25.9194065,19.2835027 33.2139605,24.5177911 33.2139605,31.1963956 C33.2139605,37.8750001 25.9194065,43.1092883 16.6069803,43.1092883 Z M16.6069803,23.6055915 C9.93829034,23.6055915 4.30011805,27.0806377 4.30011805,31.2072551 C4.30011805,35.3338724 9.93829034,38.8089187 16.6069803,38.8089187 C23.2756702,38.8089187 28.9192379,35.3338725 28.9192379,31.2072551 C28.9192379,27.0806376 23.2810656,23.6055915 16.6069803,23.6055915 Z" id="形状" fill="#C1C1C1"></path>
                    <path d="M47.3930197,43.1092883 C38.0805935,43.1092883 30.7860395,37.8804297 30.7860395,31.1963956 C30.7860395,24.5123614 38.0805935,19.2835027 47.3930197,19.2835027 C56.7054459,19.2835027 64,24.5177911 64,31.1963956 C64,37.8750001 56.7054459,43.1092883 47.3930197,43.1092883 L47.3930197,43.1092883 Z M47.3930197,23.6055915 C40.7189344,23.6055915 35.0807621,27.0806377 35.0807621,31.2072551 C35.0807621,35.3338724 40.7189344,38.8089187 47.3930197,38.8089187 C54.0671051,38.8089187 59.699882,35.3338725 59.699882,31.2072551 C59.699882,27.0806376 54.0617097,23.6055915 47.3930197,23.6055915 L47.3930197,23.6055915 Z" id="形状" fill="#C1C1C1"></path>
                    <path d="M2.14736134,11.551525 C2.14736134,12.6417298 2.72529607,13.6491207 3.66346315,14.1942231 C4.60163024,14.7393256 5.75749976,14.7393256 6.69566684,14.1942231 C7.63383393,13.6491207 8.21176865,12.6417298 8.21176865,11.551525 C8.21176865,10.4613201 7.63383392,9.45392927 6.69566684,8.90882683 C5.75749976,8.36372439 4.60163024,8.36372439 3.66346316,8.90882683 C2.72529607,9.45392927 2.14736134,10.4613201 2.14736134,11.551525 Z" id="路径" fill="#FFBF44"></path>
                    <path d="M55.7882313,11.551525 C55.7882313,13.2368357 57.1457952,14.6030499 58.820435,14.6030499 C60.4950748,14.6030499 61.8526387,13.2368357 61.8526387,11.551525 C61.8526387,9.86621429 60.4950748,8.50000005 58.820435,8.50000005 C57.1457952,8.50000005 55.7882313,9.86621429 55.7882313,11.551525 L55.7882313,11.551525 Z" id="路径" fill="#FFBF44"></path>
                    <path d="M28.9677963,14.0546442 C28.9677963,15.144849 29.545731,16.1522399 30.4838981,16.6973424 C31.4220652,17.2424448 32.5779348,17.2424448 33.5161019,16.6973424 C34.454269,16.1522399 35.0322037,15.144849 35.0322037,14.0546442 C35.0322037,12.3693335 33.6746398,11.0031192 32,11.0031192 C30.3253602,11.0031192 28.9677963,12.3693335 28.9677963,14.0546442 L28.9677963,14.0546442 Z" id="路径" fill="#FFBF44"></path>
                    <path d="M2.14736134,52.448475 C2.14736134,53.5386799 2.72529607,54.5460707 3.66346315,55.0911732 C4.60163024,55.6362756 5.75749976,55.6362756 6.69566684,55.0911732 C7.63383393,54.5460707 8.21176865,53.5386799 8.21176865,52.448475 C8.21176865,51.3582701 7.63383392,50.3508793 6.69566684,49.8057769 C5.75749976,49.2606744 4.60163024,49.2606744 3.66346316,49.8057769 C2.72529607,50.3508793 2.14736134,51.3582701 2.14736134,52.448475 L2.14736134,52.448475 Z" id="路径" fill="#FFBF44"></path>
                    <path d="M55.7882313,52.448475 C55.7882313,54.1337857 57.1457952,55.4999999 58.820435,55.4999999 C60.4950748,55.4999999 61.8526387,54.1337857 61.8526387,52.448475 C61.8526387,50.7631643 60.4950748,49.3969501 58.820435,49.3969501 C57.1457952,49.3969501 55.7882313,50.7631643 55.7882313,52.448475 L55.7882313,52.448475 Z" id="路径" fill="#FFBF44"></path>
                    <path d="M28.9677963,49.4023798 C28.9677963,50.4925847 29.545731,51.4999756 30.4838981,52.045078 C31.4220652,52.5901805 32.5779348,52.5901805 33.5161019,52.045078 C34.454269,51.4999756 35.0322037,50.4925847 35.0322037,49.4023798 C35.0322037,47.7170691 33.6746398,46.3508549 32,46.3508549 C30.3253602,46.3508549 28.9677963,47.7170691 28.9677963,49.4023798 L28.9677963,49.4023798 Z" id="路径" fill="#FFBF44"></path>
                </g>
            </g>
        </g>
    </g>
</svg>