<?xml version="1.0" encoding="UTF-8"?>
<svg width="64px" height="64px" viewBox="0 0 64 64" version="1.1" xmlns="http://www.w3.org/2000/svg" xmlns:xlink="http://www.w3.org/1999/xlink">
    <title>大雪</title>
    <g id="页面-1" stroke="none" stroke-width="1" fill="none" fill-rule="evenodd">
        <g id="天气图标" transform="translate(-1058.000000, -473.000000)" fill-rule="nonzero">
            <g id="1" transform="translate(66.000000, 363.000000)">
                <g id="大雪" transform="translate(992.000000, 110.000000)">
                    <path d="M50.0695058,15.565 C49.1357344,15.5656992 48.2042717,15.6576422 47.2884304,15.8395151 C44.7746927,7.72474583 36.9812291,2.42011839 28.4993762,3.0507299 C20.0175234,3.68134141 13.0964523,10.0799698 11.8135501,18.4770129 L11.1290606,18.4770129 L11.1290606,18.5846658 C4.76712781,19.3951047 0,24.8018654 0,31.2069764 C0,37.6120873 4.76712781,43.018848 11.1290606,43.8292869 L11.1290606,43.9369398 L50.0695058,43.9369398 C57.8066072,43.7864171 64,37.4794417 64,29.7509699 C64,22.0224981 57.8066072,15.7155227 50.0695058,15.565 L50.0695058,15.565 Z" id="路径" fill="#FFFFFF"></path>
                    <path d="M30.4456773,60.9999426 C30.3635138,60.9971514 30.2975538,60.9312775 30.2947662,60.8492212 L30.2947662,54.3577472 C30.3086662,54.2839618 30.3731941,54.2305117 30.4483721,54.2305117 C30.5235502,54.2305117 30.5880781,54.2839618 30.601978,54.3577472 L30.601978,60.8653691 C30.5911453,60.9430802 30.5242368,61.0006847 30.4456773,60.9999426 L30.4456773,60.9999426 Z" id="路径" fill="#3ECDFF"></path>
                    <path d="M31.2864676,60.9999353 C31.2452919,60.9997452 31.2061243,60.9821427 31.1786739,60.9514915 L30.3378837,60.0633545 C30.3089137,60.0350068 30.2925884,59.9962067 30.2925884,59.9557016 C30.2925884,59.9151965 30.3089137,59.8763963 30.3378837,59.8480486 C30.3662684,59.8191164 30.4051193,59.8028124 30.4456773,59.8028124 C30.4862353,59.8028124 30.5250862,59.8191164 30.5534709,59.8480486 L31.3942612,60.7361856 C31.4232312,60.7645332 31.4395565,60.8033334 31.4395565,60.8438385 C31.4395565,60.8843436 31.4232312,60.9231438 31.3942612,60.9514915 C31.3668108,60.9821427 31.3276433,60.9997451 31.2864676,60.9999353 L31.2864676,60.9999353 Z" id="路径" fill="#3ECDFF"></path>
                    <path d="M29.6102768,60.9999353 C29.5704425,60.9984535 29.5323519,60.9832372 29.5024831,60.9568741 C29.4735131,60.9285265 29.4571878,60.8897263 29.4571878,60.8492212 C29.4571878,60.8087161 29.4735131,60.7699159 29.5024831,60.7415682 L30.3432734,59.8534312 C30.3716581,59.824499 30.410509,59.808195 30.451067,59.808195 C30.491625,59.808195 30.5304759,59.824499 30.5588606,59.8534312 C30.5878307,59.8817789 30.604156,59.9205791 30.604156,59.9610842 C30.604156,60.0015893 30.5878307,60.0403895 30.5588606,60.0687371 L29.7180704,60.9568741 C29.6896765,60.9855405 29.6506336,61.0011372 29.6102768,60.9999353 L29.6102768,60.9999353 Z M30.4456773,55.401981 C30.4076233,55.3997148 30.3714895,55.3845204 30.3432734,55.3589198 C30.3143033,55.3305721 30.297978,55.2917719 30.297978,55.2512668 C30.297978,55.2107617 30.3143033,55.1719615 30.3432734,55.1436138 L31.1840636,54.2554768 C31.2116475,54.2251015 31.2507969,54.2077777 31.2918572,54.2077777 C31.3329175,54.2077777 31.3720669,54.2251015 31.3996509,54.2554768 C31.4286209,54.2838245 31.4449462,54.3226247 31.4449462,54.3631298 C31.4449462,54.403635 31.4286209,54.4424352 31.3996509,54.4707828 L30.5588606,55.3589198 C30.5291905,55.3890165 30.487878,55.4047341 30.4456773,55.401981 L30.4456773,55.401981 Z" id="形状" fill="#3ECDFF"></path>
                    <path d="M30.4456773,55.4073637 C30.4045016,55.4071735 30.365334,55.389571 30.3378837,55.3589198 L29.4970935,54.4707828 C29.4595453,54.4313606 29.4459083,54.3749274 29.4613195,54.322741 C29.4767306,54.2705547 29.5188486,54.2305435 29.571808,54.2177794 C29.6247673,54.2050152 29.6805222,54.2214373 29.7180704,54.2608595 L30.5588606,55.1489965 C30.6170462,55.2110837 30.6170462,55.3075979 30.5588606,55.3696851 C30.5270615,55.3957274 30.4867625,55.409143 30.4456773,55.4073637 L30.4456773,55.4073637 Z M32.7524608,60.0633545 C32.7124308,60.0628228 32.6740216,60.0474792 32.6446672,60.0202933 L28.0364899,55.4181289 C27.9769572,55.3586738 27.9769572,55.2622781 28.03649,55.202823 C28.0960227,55.1433679 28.1925444,55.1433679 28.2520772,55.202823 L32.8602544,59.8049874 C32.8892244,59.833335 32.9055497,59.8721352 32.9055497,59.9126403 C32.9055497,59.9531454 32.8892244,59.9919456 32.8602544,60.0202933 C32.8303856,60.0466563 32.7922951,60.0618727 32.7524608,60.0633545 L32.7524608,60.0633545 Z" id="形状" fill="#3ECDFF"></path>
                    <path d="M33.3453257,59.4712632 L32.1218681,59.4335846 C32.0808924,59.4336108 32.0416676,59.4169952 32.0132062,59.3875557 C31.9847447,59.3581162 31.9694936,59.3183839 31.970957,59.2774878 C31.9790806,59.1937142 32.048404,59.1290968 32.1326475,59.1267737 L33.3561051,59.1644522 C33.4381918,59.1701192 33.5018224,59.2383741 33.5016269,59.320549 C33.5016526,59.3614712 33.4850154,59.4006448 33.4555374,59.4290692 C33.4260594,59.4574935 33.3862752,59.4727247 33.3453257,59.4712632 L33.3453257,59.4712632 Z" id="路径" fill="#3ECDFF"></path>
                    <path d="M32.1488165,60.6500636 C32.0665342,60.6502588 31.9981902,60.5867112 31.9925157,60.5047317 L31.9601777,59.2828705 C31.9571747,59.2424975 31.9711702,59.2027033 31.998793,59.1730731 C32.0264158,59.1434429 32.065162,59.1266625 32.105699,59.1267737 C32.1461248,59.1237747 32.185971,59.1377519 32.2156399,59.1653386 C32.2453089,59.1929254 32.2621112,59.2316211 32.2619998,59.2721052 L32.2997276,60.4939664 C32.301191,60.5348625 32.2859399,60.5745948 32.2574784,60.6040343 C32.2290169,60.6334738 32.1897922,60.6500893 32.1488165,60.6500636 L32.1488165,60.6500636 Z M28.7748762,56.0909605 C28.6935905,56.0910118 28.6268682,56.0267563 28.6239651,55.9456285 L28.5862374,54.7237673 C28.584774,54.6828712 28.6000251,54.6431389 28.6284865,54.6136994 C28.656948,54.5842599 28.6961728,54.5676444 28.7371484,54.5676705 C28.8174954,54.5722003 28.8831933,54.6332875 28.8934492,54.713002 L28.9257873,55.9348632 C28.9287902,55.9752362 28.9147948,56.0150304 28.887172,56.0446606 C28.8595492,56.0742908 28.8208029,56.0910712 28.7802659,56.0909605 L28.7748762,56.0909605 Z" id="形状" fill="#3ECDFF"></path>
                    <path d="M28.7802659,56.0963426 L27.5568083,56.0640467 C27.5157883,56.0626891 27.4770913,56.0447046 27.4496352,56.0142377 C27.4221792,55.9837708 27.4083328,55.9434499 27.4112869,55.9025673 C27.4111755,55.8620831 27.4279779,55.8233874 27.4576468,55.7958007 C27.4873157,55.768214 27.5271619,55.7542368 27.5675877,55.7572358 L28.7910452,55.7949143 C28.8315822,55.7948031 28.8703285,55.8115835 28.8979513,55.8412137 C28.925574,55.8708439 28.9395695,55.9106381 28.9365666,55.9510111 C28.9351624,55.9909917 28.9178997,56.0287744 28.8885819,56.0560347 C28.8592641,56.083295 28.8202969,56.0977959 28.7802659,56.0963426 L28.7802659,56.0963426 Z M33.7064343,57.7703463 L27.1956997,57.7703463 C27.1339588,57.7819469 27.0712636,57.7555022 27.0365415,57.7032137 C27.0018193,57.6509252 27.0018193,57.5829564 27.0365415,57.5306679 C27.0712636,57.4783794 27.1339588,57.4519347 27.1956997,57.4635353 L33.7064343,57.4635353 C33.7681752,57.4519347 33.8308704,57.4783794 33.8655925,57.5306679 C33.9003147,57.5829564 33.9003147,57.6509252 33.8655925,57.7032137 C33.8308704,57.7555022 33.7681752,57.7819469 33.7064343,57.7703463 L33.7064343,57.7703463 Z" id="形状" fill="#3ECDFF"></path>
                    <path d="M32.8171369,57.7703463 C32.774361,57.7703463 32.7334543,57.7528377 32.7039536,57.7219024 C32.6749836,57.6935548 32.6586583,57.6547546 32.6586583,57.6142495 C32.6586583,57.5737444 32.6749836,57.5349442 32.7039536,57.5065965 L33.5986407,56.6669034 C33.6381144,56.6294042 33.6946214,56.615785 33.7468759,56.631176 C33.7991305,56.6465671 33.8391939,56.6886301 33.8519747,56.7415203 C33.8647555,56.7944106 33.848312,56.8500927 33.8088383,56.8875919 L32.9141512,57.7272851 C32.8883967,57.7533277 32.8537509,57.7687057 32.8171369,57.7703463 L32.8171369,57.7703463 Z" id="路径" fill="#3ECDFF"></path>
                    <path d="M33.7010446,58.6046568 C33.6612103,58.603175 33.6231198,58.5879586 33.593251,58.5615956 L32.6877846,57.7219024 C32.6267635,57.6639337 32.6243504,57.567538 32.6823949,57.5065965 C32.7404394,57.445655 32.8369611,57.4432451 32.8979821,57.5012138 L33.7872795,58.340907 C33.8162495,58.3692547 33.8325749,58.4080549 33.8325749,58.44856 C33.8325749,58.4890651 33.8162495,58.5278653 33.7872795,58.556213 C33.7643093,58.5809633 33.734152,58.5979047 33.7010446,58.6046568 L33.7010446,58.6046568 Z M28.0849971,57.7703463 C28.0465031,57.7700844 28.0096812,57.7546007 27.9825931,57.7272851 L27.0879061,56.8875919 C27.026885,56.8296232 27.024472,56.7332275 27.0825164,56.672286 C27.1405609,56.6113446 27.2370825,56.6089347 27.2981036,56.6669034 L28.187401,57.5065965 C28.216371,57.5349442 28.2326963,57.5737444 28.2326963,57.6142495 C28.2326963,57.6547546 28.216371,57.6935548 28.187401,57.7219024 C28.1605352,57.7502739 28.1239974,57.7675587 28.0849971,57.7703463 L28.0849971,57.7703463 Z" id="形状" fill="#3ECDFF"></path>
                    <path d="M27.2010894,58.6046568 C27.1583135,58.6046568 27.1174067,58.5871482 27.0879061,58.556213 C27.058936,58.5278653 27.0426107,58.4890651 27.0426107,58.44856 C27.0426107,58.4080549 27.058936,58.3692547 27.0879061,58.340907 L27.9772034,57.5012138 C28.0382245,57.4432451 28.1347462,57.445655 28.1927907,57.5065965 C28.2508351,57.567538 28.2484221,57.6639337 28.187401,57.7219024 L27.2981036,58.5615956 C27.2723491,58.5876382 27.2377033,58.6030162 27.2010894,58.6046568 Z M28.1496732,60.0633545 C28.1089479,60.0668149 28.0689808,60.0508489 28.0418796,60.0202933 C28.0114646,59.9927454 27.9941182,59.953647 27.9941182,59.9126403 C27.9941182,59.8716336 28.0114646,59.8325353 28.0418796,59.8049874 L32.6446672,55.202823 C32.7042,55.1433679 32.8007216,55.1433679 32.8602544,55.202823 C32.9197871,55.2622781 32.9197871,55.3586738 32.8602544,55.4181289 L28.2574668,60.0202933 C28.2290729,60.0489596 28.1900301,60.0645564 28.1496732,60.0633545 L28.1496732,60.0633545 Z" id="形状" fill="#3ECDFF"></path>
                    <path d="M32.1488165,56.0963426 C32.0646085,56.0905863 32.0001876,56.0191009 32.0032951,55.9348632 L32.0410229,54.713002 C32.0409115,54.6725179 32.0577138,54.6338222 32.0873827,54.6062354 C32.1170517,54.5786487 32.1568978,54.5646715 32.1973236,54.5676705 C32.2378606,54.5675593 32.2766069,54.5843397 32.3042297,54.6139699 C32.3318525,54.6436 32.3458479,54.6833942 32.342845,54.7237673 L32.3105069,55.9456285 C32.3091019,55.9870363 32.2912711,56.0261876 32.2609427,56.0544571 C32.2306143,56.0827267 32.1902767,56.097795 32.1488165,56.0963426 L32.1488165,56.0963426 Z" id="路径" fill="#3ECDFF"></path>
                    <path d="M32.1164784,56.1017253 C32.0343149,56.0989413 31.9683549,56.0330674 31.9655674,55.9510111 C31.9641121,55.9110323 31.978632,55.872116 32.0059279,55.8428364 C32.0332238,55.8135569 32.0710559,55.7963167 32.1110888,55.7949143 L33.339936,55.7572358 C33.4202769,55.7661637 33.4844846,55.8280765 33.4962368,55.90795 C33.4962868,55.9921008 33.4295364,56.061145 33.3453257,56.0640467 L32.1488165,56.1017253 L32.1164784,56.1017253 Z M27.5514186,59.4712632 C27.470133,59.471315 27.4034106,59.4070595 27.4005071,59.3259317 C27.4003179,59.2407894 27.4663546,59.1701281 27.5514186,59.1644522 L28.7748762,59.1321559 C28.8571585,59.1319607 28.9255025,59.1955083 28.931177,59.2774878 C28.9326404,59.3183839 28.9173893,59.3581162 28.8889278,59.3875557 C28.8604664,59.4169952 28.8212416,59.4336108 28.7802659,59.4335846 L27.5568083,59.4712632 L27.5514186,59.4712632 Z" id="形状" fill="#3ECDFF"></path>
                    <path d="M28.7479278,60.6554459 C28.6628637,60.6497699 28.5968271,60.5791087 28.5970163,60.4939664 L28.6347445,59.2721052 C28.6347445,59.1913655 28.6994207,59.1052431 28.7910452,59.1267737 C28.8320209,59.1267476 28.8712457,59.1433631 28.8997072,59.1728026 C28.9281687,59.2022421 28.9434198,59.2419744 28.9419563,59.2828705 L28.9150079,60.5047317 C28.9136461,60.5471235 28.8950702,60.5871368 28.8635538,60.6155661 C28.8320374,60.6439954 28.7902942,60.6583927 28.7479278,60.6554459 L28.7479278,60.6554459 Z M46.6039409,57.2751965 C46.5329549,57.2751965 46.4649516,57.2466319 46.4152664,57.1959989 C46.3655812,57.1453658 46.3383979,57.0768889 46.3398466,57.0060102 L46.3398466,48.4745124 C46.3399186,48.3259256 46.4605496,48.2055103 46.6093306,48.2055103 C46.7581116,48.2055103 46.8787426,48.3259256 46.8788147,48.4745124 L46.8788147,57.0060102 C46.8788291,57.078331 46.8496985,57.1476144 46.7979887,57.1982442 C46.7462789,57.2488739 46.6763418,57.276589 46.6039409,57.2751965 L46.6039409,57.2751965 Z" id="形状" fill="#3ECDFF"></path>
                    <path d="M47.7088255,57.2751426 C47.6330596,57.2763363 47.5604303,57.2449701 47.5094073,57.1890203 L46.4314711,56.0209856 C46.3807736,55.9713772 46.3522043,55.9034768 46.3522043,55.8325929 C46.3522043,55.7617089 46.3807736,55.6938086 46.4314711,55.6442001 C46.5362583,55.5416222 46.7039617,55.5416222 46.8087488,55.6442001 L47.886685,56.8122349 C47.9893969,56.9168853 47.9893969,57.0843699 47.886685,57.1890203 C47.8401423,57.2387598 47.7767539,57.2694535 47.7088255,57.2751426 Z" id="路径" fill="#3ECDFF"></path>
                    <path d="M45.504446,57.2643774 C45.4365329,57.2659851 45.3707117,57.240851 45.3211969,57.1944029 C45.2704993,57.1447945 45.2419301,57.0768941 45.2419301,57.0060102 C45.2419301,56.9351263 45.2704993,56.8672259 45.3211969,56.8176175 L46.399133,55.6495828 C46.5040675,55.5657089 46.6548428,55.5718774 46.7525564,55.664042 C46.85027,55.7562067 46.8650452,55.9061874 46.7871901,56.0156029 L45.7092539,57.1836376 C45.655232,57.2378759 45.5809979,57.2671406 45.504446,57.2643774 L45.504446,57.2643774 Z M46.6039409,49.9116796 C46.5356005,49.9101902 46.4702677,49.8833236 46.4206918,49.8363225 C46.3699943,49.7867141 46.341425,49.7188138 46.341425,49.6479298 C46.341425,49.5770459 46.3699943,49.5091455 46.4206918,49.4595371 L47.498628,48.2915024 C47.6020642,48.1948353 47.7627832,48.1946522 47.8664401,48.2910833 C47.970097,48.3875144 47.9812983,48.5476335 47.8920747,48.6575225 L46.8141385,49.8255572 C46.7602065,49.8838006 46.6832919,49.9153142 46.6039409,49.9116796 L46.6039409,49.9116796 Z" id="形状" fill="#3ECDFF"></path>
                    <path d="M46.6039409,49.9170623 C46.5311082,49.9168841 46.4613237,49.8878451 46.4099124,49.8363225 L45.3319762,48.6682878 C45.2497978,48.6026028 45.213434,48.4951459 45.2388653,48.3931404 C45.2642966,48.2911349 45.3468679,48.2132527 45.4502921,48.1937202 C45.5537163,48.1741876 45.6590618,48.2165801 45.7200332,48.3022677 L46.7979694,49.4703024 C46.848667,49.5199108 46.8772363,49.5878112 46.8772363,49.6586951 C46.8772363,49.729579 46.848667,49.7974794 46.7979694,49.8470878 C46.7458053,49.8962705 46.6755342,49.921613 46.6039409,49.9170623 L46.6039409,49.9170623 Z M49.627552,56.026387 C49.5560827,56.0272383 49.4875713,55.9979146 49.4389131,55.9456285 L43.3970808,49.9116796 C43.3449748,49.862841 43.3154171,49.7946532 43.3154171,49.7232869 C43.3154171,49.6519206 43.3449748,49.5837328 43.3970808,49.5348942 C43.5018679,49.4323163 43.6695713,49.4323163 43.7743584,49.5348942 L49.8161908,55.5688431 C49.8916786,55.6457343 49.9140069,55.7601616 49.8729527,55.8597344 C49.8318986,55.9593073 49.7353658,56.0248556 49.627552,56.026387 L49.627552,56.026387 Z" id="形状" fill="#3ECDFF"></path>
                    <path d="M50.403666,55.2458842 L48.7867617,55.1974404 C48.6379298,55.1974404 48.5172777,55.0769457 48.5172777,54.9283079 C48.5172777,54.7796702 48.6379298,54.6591755 48.7867617,54.6591755 L50.403666,54.7076193 C50.552498,54.7076193 50.6731501,54.828114 50.6731501,54.9767518 C50.6731501,55.1253895 50.552498,55.2458842 50.403666,55.2458842 L50.403666,55.2458842 Z" id="路径" fill="#3ECDFF"></path>
                    <path d="M48.8568276,56.7960869 C48.7121056,56.7962026 48.5931324,56.6821373 48.5873436,56.5377198 L48.5388364,54.9229253 C48.5389085,54.7743384 48.6595395,54.6539231 48.8083205,54.6539231 C48.9571015,54.6539231 49.0777325,54.7743384 49.0778045,54.9229253 L49.1263117,56.5377198 C49.1264253,56.6852238 49.0098004,56.8064504 48.8622173,56.8122349 L48.8568276,56.7960869 Z M44.4103407,50.8159645 C44.340799,50.8174117 44.2736033,50.7908312 44.2239148,50.7422202 C44.1742262,50.6936092 44.1462313,50.6270635 44.1462464,50.5575974 L44.0977393,48.9428029 C44.0948267,48.871931 44.1206205,48.8028747 44.169298,48.7512223 C44.2179755,48.6995699 44.2854333,48.6696757 44.356444,48.6682874 C44.5021559,48.6680358 44.6227466,48.7813848 44.6313177,48.9266549 L44.6798248,50.5414494 C44.6828778,50.6880623 44.56784,50.8101304 44.4211201,50.8159645 L44.4103407,50.8159645 Z" id="形状" fill="#3ECDFF"></path>
                    <path d="M44.4157305,50.8213472 L42.7988262,50.778286 C42.6521063,50.7724519 42.5370685,50.6503838 42.5401215,50.5037709 C42.5459165,50.3534073 42.6697134,50.2345271 42.8203849,50.2346384 L44.4372892,50.2830823 C44.5861211,50.2830823 44.7067732,50.403577 44.7067732,50.5522148 C44.7067732,50.7008525 44.5861211,50.8213472 44.4372892,50.8213472 L44.4157305,50.8213472 Z M50.8779579,53.0120851 L42.3353136,53.0120851 C42.1885907,53.0091538 42.0711642,52.8895135 42.0711642,52.7429527 C42.0697705,52.672074 42.0969538,52.603597 42.146639,52.552964 C42.1963242,52.502331 42.2643275,52.4738055 42.3353136,52.4738202 L50.8779579,52.4738202 C51.0267899,52.4738202 51.147442,52.5943149 51.147442,52.7429527 C51.147442,52.8915904 51.0267899,53.0120851 50.8779579,53.0120851 L50.8779579,53.0120851 Z" id="形状" fill="#3ECDFF"></path>
                    <path d="M49.7083972,53.0120851 C49.6349141,53.0099032 49.5652316,52.9789736 49.5143687,52.9259627 C49.4116568,52.8213123 49.4116568,52.6538277 49.5143687,52.5491773 L50.6839294,51.4726476 C50.7887166,51.3700697 50.95642,51.3700697 51.0612071,51.4726476 C51.1119047,51.5222561 51.1404739,51.5901564 51.1404739,51.6610403 C51.1404739,51.7319243 51.1119047,51.7998246 51.0612071,51.849433 L49.8916463,52.9259627 C49.8448204,52.9783476 49.778661,53.0094408 49.7083972,53.0120851 L49.7083972,53.0120851 Z" id="路径" fill="#3ECDFF"></path>
                    <path d="M50.8725683,54.1101461 C50.8038912,54.1103135 50.7379654,54.0832031 50.6893191,54.0347883 L49.5197583,52.9582586 C49.4339588,52.8973667 49.391511,52.7921587 49.4110691,52.6888694 C49.4306272,52.5855802 49.5086111,52.5031168 49.6107498,52.4777187 C49.7128886,52.4523205 49.8204858,52.4886368 49.8862567,52.5707079 L51.0558174,53.6472376 C51.1065149,53.696846 51.1350842,53.7647464 51.1350842,53.8356303 C51.1350842,53.9065142 51.1065149,53.9744146 51.0558174,54.024023 C51.0089915,54.0764079 50.9428321,54.107501 50.8725683,54.1101461 L50.8725683,54.1101461 Z M43.5048743,53.0120981 C43.4365339,53.0105957 43.3712011,52.9837291 43.3216252,52.936728 L42.1520645,51.8601983 C42.1013669,51.8105899 42.0727976,51.7426896 42.0727976,51.6718056 C42.0727976,51.6009217 42.1013669,51.5330214 42.1520645,51.483413 C42.2568516,51.3808351 42.424555,51.3808351 42.5293421,51.483413 L43.6989029,52.5599426 C43.7496004,52.609551 43.7781697,52.6774514 43.7781697,52.7483353 C43.7781697,52.8192193 43.7496004,52.8871196 43.6989029,52.936728 C43.6463137,52.9857951 43.5768396,53.0127775 43.5048743,53.0120981 L43.5048743,53.0120981 Z" id="形状" fill="#3ECDFF"></path>
                    <path d="M42.346093,54.1101453 C42.2717575,54.1119488 42.2005365,54.0803363 42.1520645,54.024023 C42.1013669,53.9744146 42.0727976,53.9065142 42.0727976,53.8356303 C42.0727976,53.7647464 42.1013669,53.696846 42.1520645,53.6472376 L43.3216252,52.5707079 C43.4311837,52.4929543 43.5813604,52.5077101 43.6736455,52.6052963 C43.7659306,52.7028824 43.7721071,52.853461 43.6881235,52.9582586 L42.5185627,54.0347883 C42.4717462,54.0793981 42.4106722,54.1060831 42.346093,54.1101453 L42.346093,54.1101453 Z M43.5857196,56.026387 C43.4779057,56.0248556 43.381373,55.9593073 43.3403189,55.8597344 C43.2992647,55.7601616 43.321593,55.6457343 43.3970808,55.5688431 L49.4389131,49.5348942 C49.5437002,49.4323163 49.7114037,49.4323163 49.8161908,49.5348942 C49.8672076,49.5854283 49.8959038,49.6542174 49.8959038,49.7259782 C49.8959038,49.797739 49.8672076,49.8665282 49.8161908,49.9170623 L43.7743584,55.9456285 C43.7257002,55.9979146 43.6571888,56.0272383 43.5857196,56.026387 L43.5857196,56.026387 Z" id="形状" fill="#3ECDFF"></path>
                    <path d="M48.8029308,50.8213472 C48.7314394,50.8185485 48.6639967,50.7874723 48.6154683,50.7349685 C48.5669398,50.6824646 48.5413093,50.612843 48.5442261,50.5414494 L48.5927332,48.9266549 C48.6013043,48.7813848 48.721895,48.6680358 48.867607,48.6682874 C48.9386176,48.6696757 49.0060754,48.6995699 49.0547529,48.7512223 C49.1034305,48.8028747 49.1292242,48.871931 49.1263116,48.9428029 L49.0778045,50.5575974 C49.0778645,50.629454 49.0485656,50.6982243 48.9966817,50.7480084 C48.9447979,50.7977926 48.8748213,50.8242802 48.8029308,50.8213472 L48.8029308,50.8213472 Z" id="路径" fill="#3ECDFF"></path>
                    <path d="M48.7975411,50.8267298 C48.6487601,50.8266579 48.5281875,50.7061843 48.5281875,50.5575974 C48.5281875,50.4090106 48.6487601,50.2885369 48.7975411,50.288465 L50.4144454,50.2454034 C50.5601574,50.2451518 50.6807481,50.3585008 50.6893191,50.5037709 C50.6923721,50.6503838 50.5773344,50.7724519 50.4306145,50.778286 L48.8137102,50.8267298 L48.7975411,50.8267298 Z M42.8096055,55.2458842 C42.6607736,55.2458842 42.5401214,55.1253895 42.5401214,54.9767518 C42.5401214,54.828114 42.6607736,54.7076193 42.8096055,54.7076193 L44.4265098,54.6591755 C44.4974743,54.6562667 44.5666208,54.6820268 44.6183407,54.7306408 C44.6700605,54.7792548 44.6999938,54.8466246 44.7013835,54.9175426 C44.7043003,54.9889362 44.6786698,55.0585577 44.6301413,55.1110616 C44.5816129,55.1635655 44.5141703,55.1946416 44.4426788,55.1974404 L42.8257745,55.2405015 L42.8096055,55.2458842 Z" id="形状" fill="#3ECDFF"></path>
                    <path d="M44.372613,56.7960869 C44.3011367,56.7946736 44.2331519,56.7649539 44.1836215,56.7134692 C44.1340912,56.6619845 44.1070748,56.5929543 44.1085187,56.5215719 L44.1570258,54.9067773 C44.1655969,54.7615073 44.2861875,54.6481583 44.4318995,54.6484098 C44.5029102,54.6497981 44.570368,54.6796923 44.6190455,54.7313447 C44.667723,54.7829971 44.6935168,54.8520534 44.6906042,54.9229253 L44.6474867,56.5377198 C44.641645,56.6842483 44.5194174,56.7991359 44.372613,56.7960869 L44.372613,56.7960869 Z M15.1982698,56.1556184 C15.1272985,56.1569986 15.0587321,56.1298508 15.0080329,56.0802304 C14.9573337,56.0306101 14.928771,55.9626955 14.9287857,55.891802 L14.9287857,47.3710695 C14.9288578,47.2224827 15.0494888,47.1020674 15.1982698,47.1020674 C15.3470508,47.1020674 15.4676818,47.2224827 15.4677538,47.3710695 L15.4677538,55.90795 C15.4591028,56.0493765 15.3401099,56.158707 15.1982698,56.1556184 L15.1982698,56.1556184 Z" id="形状" fill="#3ECDFF"></path>
                    <path d="M16.2977647,56.1555518 C16.224932,56.1553736 16.1551475,56.1263346 16.1037362,56.074812 L15.0258,54.9067773 C14.9436217,54.8410923 14.907258,54.7336355 14.9326893,54.63163 C14.9581206,54.5296245 15.0406917,54.4517424 15.1441159,54.4322098 C15.2475401,54.4126773 15.3528856,54.4550697 15.413857,54.5407572 L16.4917932,55.7087919 C16.5424908,55.7584003 16.5710601,55.8263007 16.5710601,55.8971846 C16.5710601,55.9680686 16.5424908,56.0359689 16.4917932,56.0855774 C16.439629,56.13476 16.369358,56.1601025 16.2977647,56.1555518 L16.2977647,56.1555518 Z" id="路径" fill="#3ECDFF"></path>
                    <path d="M14.0933852,56.1555564 C14.0250447,56.1540624 13.9597119,56.1271957 13.910136,56.0801947 C13.8594385,56.0305862 13.8308692,55.9626859 13.8308692,55.891802 C13.8308692,55.820918 13.8594385,55.7530177 13.910136,55.7034093 L15.0042413,54.5407572 C15.1091758,54.4568832 15.2599511,54.4630517 15.3576648,54.5552164 C15.4553784,54.6473811 15.4701536,54.7973618 15.3922983,54.9067773 L14.2874137,56.074812 C14.2363469,56.1268451 14.1663382,56.1559773 14.0933852,56.1555564 L14.0933852,56.1555564 Z M15.1982698,48.8082374 C15.0917624,48.8068397 14.9960728,48.7429204 14.9541138,48.6451439 C14.9121549,48.5473674 14.9318008,48.4340831 15.0042413,48.3560942 L16.0821775,47.1880595 C16.1880859,47.0882614 16.3535468,47.0882614 16.4594552,47.1880595 C16.5101527,47.2376679 16.538722,47.3055683 16.538722,47.3764522 C16.538722,47.4473361 16.5101527,47.5152365 16.4594552,47.5648449 L15.3815189,48.7328796 C15.3328727,48.7812944 15.2669469,48.8084049 15.1982698,48.8082374 L15.1982698,48.8082374 Z" id="形状" fill="#3ECDFF"></path>
                    <path d="M15.1982698,48.819002 C15.1245176,48.8180227 15.0543907,48.7868958 15.0042413,48.7328796 L13.8993566,47.5433143 C13.8171783,47.4776293 13.7808146,47.3701725 13.8062459,47.268167 C13.8316772,47.1661615 13.9142484,47.0882793 14.0176726,47.0687468 C14.1210967,47.0492142 14.2264422,47.0916066 14.2874137,47.1772942 L15.3922983,48.3453289 C15.4429959,48.3949373 15.4715652,48.4628377 15.4715652,48.5337216 C15.4715652,48.6046055 15.4429959,48.6725059 15.3922983,48.7221143 C15.3436575,48.7796102 15.2735111,48.8146377 15.1982698,48.819002 L15.1982698,48.819002 Z M18.2164911,54.9229253 C18.1463872,54.9222533 18.0790812,54.895366 18.0278523,54.8475682 L11.9860199,48.8136193 C11.883308,48.7089689 11.883308,48.5414843 11.9860199,48.4368339 C12.0349223,48.384796 12.1031992,48.3552768 12.1746587,48.3552768 C12.2461183,48.3552768 12.3143952,48.384796 12.3632976,48.4368339 L18.40513,54.4654001 C18.4561467,54.5159342 18.4848429,54.5847234 18.4848429,54.6564842 C18.4848429,54.728245 18.4561467,54.7970341 18.40513,54.8475682 C18.3539011,54.8953661 18.286595,54.9222534 18.2164911,54.9229253 L18.2164911,54.9229253 Z" id="形状" fill="#3ECDFF"></path>
                    <path d="M18.9979949,54.1478239 L17.3810906,54.0993801 C17.2322587,54.0993801 17.1116065,53.9788854 17.1116065,53.8302476 C17.1116065,53.6816099 17.2322587,53.5611152 17.3810906,53.5611152 L18.9979949,53.609559 C19.0690056,53.6109469 19.1364634,53.6408412 19.1851409,53.6924935 C19.2338184,53.7441459 19.2596122,53.8132022 19.2566996,53.8840741 C19.2539596,54.0265182 19.1405383,54.1421514 18.9979949,54.1478239 Z" id="路径" fill="#3ECDFF"></path>
                    <path d="M17.4295977,55.692644 C17.2869676,55.6899076 17.1711833,55.5766342 17.1655033,55.4342769 L17.1169962,53.8194823 C17.1139432,53.6728695 17.228981,53.5508014 17.3757009,53.5449668 C17.5214129,53.5447153 17.6420035,53.6580643 17.6505746,53.8033344 L17.6990817,55.4181289 C17.7019943,55.4890008 17.6762006,55.5580571 17.6275231,55.6097095 C17.5788455,55.6613619 17.5113877,55.6912561 17.4403771,55.692644 L17.4295977,55.692644 Z M13.0046696,49.6963737 C12.859065,49.6936328 12.7408707,49.5779535 12.7351856,49.4326239 L12.6866784,47.8178294 C12.6837617,47.7464358 12.7093922,47.6768143 12.7579206,47.6243104 C12.8064491,47.5718065 12.8738917,47.5407303 12.9453831,47.5379315 C13.0930798,47.5378182 13.2144649,47.6542909 13.2202568,47.8016814 L13.268764,49.416476 C13.2718169,49.5630888 13.1567792,49.6851569 13.0100593,49.690991 L13.0046696,49.6963737 Z" id="形状" fill="#3ECDFF"></path>
                    <path d="M13.0100593,49.7232869 L11.393155,49.6748431 C11.2443231,49.6748431 11.123671,49.5543484 11.123671,49.4057106 C11.123671,49.2570729 11.2443231,49.1365782 11.393155,49.1365782 L13.0100593,49.185022 C13.1588912,49.185022 13.2795434,49.3055167 13.2795434,49.4541545 C13.2795434,49.6027922 13.1588912,49.7232869 13.0100593,49.7232869 L13.0100593,49.7232869 Z M19.4722868,51.9086422 L10.9296425,51.9086422 C10.833334,51.9086887 10.7443214,51.8574026 10.6961537,51.7741136 C10.647986,51.6908246 10.647986,51.5881949 10.6961537,51.5049059 C10.7443214,51.4216169 10.833334,51.3703308 10.9296425,51.3703773 L19.4722868,51.3703773 C19.6210678,51.3704493 19.7416404,51.4909229 19.7416404,51.6395097 C19.7416404,51.7880966 19.6210678,51.9085702 19.4722868,51.9086422 Z" id="形状" fill="#3ECDFF"></path>
                    <path d="M18.3027261,51.9086422 C18.2417882,51.9091747 18.1826183,51.8882063 18.1356459,51.849433 C18.0849484,51.7998246 18.0563791,51.7319243 18.0563791,51.6610403 C18.0563791,51.5901564 18.0849484,51.5222561 18.1356459,51.4726476 L19.3052067,50.3961179 C19.4147652,50.3183644 19.5649418,50.3331203 19.6572269,50.4307064 C19.7495119,50.5282925 19.7556885,50.678871 19.671705,50.7836686 L18.5021442,51.8601983 C18.4444272,51.9014535 18.3729684,51.9188127 18.3027261,51.9086422 L18.3027261,51.9086422 Z" id="路径" fill="#3ECDFF"></path>
                    <path d="M19.4615074,53.0067097 C19.3937906,53.0072004 19.3283683,52.9822186 19.2782583,52.936728 L18.1356459,51.849433 C18.0498464,51.7885411 18.0073986,51.6833331 18.0269567,51.5800438 C18.0465148,51.4767546 18.1244986,51.3942912 18.2266374,51.3688931 C18.3287762,51.343495 18.4363734,51.3798112 18.5021442,51.4618823 L19.671705,52.538412 C19.7521635,52.6125818 19.7784494,52.728643 19.737784,52.8301737 C19.6971187,52.9317044 19.5979373,52.9976442 19.4884559,52.9959371 L19.4615074,53.0067097 Z M12.0992032,51.9086429 C12.0305261,51.9088103 11.9646003,51.8816998 11.9159541,51.8332851 L10.7463933,50.7567554 C10.6605938,50.6958635 10.6181459,50.5906555 10.637704,50.4873663 C10.6572621,50.384077 10.735246,50.3016136 10.8373848,50.2762155 C10.9395235,50.2508174 11.0471208,50.2871337 11.1128916,50.3692047 L12.2824524,51.4457344 C12.3851643,51.5503848 12.3851643,51.7178694 12.2824524,51.8225198 C12.2356264,51.8749047 12.1694671,51.9059978 12.0992032,51.9086429 L12.0992032,51.9086429 Z" id="形状" fill="#3ECDFF"></path>
                    <path d="M10.9350321,53.0067024 C10.8621994,53.0065242 10.7924149,52.9774853 10.7410036,52.9259627 C10.6903061,52.8763543 10.6617368,52.808454 10.6617368,52.73757 C10.6617368,52.6666861 10.6903061,52.5987858 10.7410036,52.5491773 L11.9105644,51.4726476 C12.0201228,51.394894 12.1702996,51.4096499 12.2625847,51.507236 C12.3548698,51.6048221 12.3610463,51.7554007 12.2770627,51.8601983 L11.1290606,52.9259627 C11.079145,52.9796693 11.0083645,53.0091227 10.9350321,53.0067024 L10.9350321,53.0067024 Z M12.2069969,54.9229302 C12.136681,54.9233472 12.068985,54.8963041 12.018358,54.8475682 C11.9662521,54.7987296 11.9366943,54.7305418 11.9366943,54.6591755 C11.9366943,54.5878092 11.9662521,54.5196214 12.018358,54.4707828 L18.033242,48.4368339 C18.0821444,48.384796 18.1504212,48.3552768 18.2218808,48.3552768 C18.2933404,48.3552768 18.3616173,48.384796 18.4105196,48.4368339 C18.5132315,48.5414843 18.5132315,48.7089689 18.4105196,48.8136193 L12.3686873,54.8475682 C12.32445,54.8896084 12.2676747,54.916069 12.2069969,54.9229302 L12.2069969,54.9229302 Z" id="形状" fill="#3ECDFF"></path>
                    <path d="M17.3918699,49.6963737 C17.24515,49.6905396 17.1301123,49.5684715 17.1331652,49.4218586 L17.1816724,47.8070641 C17.1816724,47.6584263 17.3023245,47.5379316 17.4511564,47.5379316 C17.5999884,47.5379316 17.7206405,47.6584263 17.7206405,47.8070641 L17.6721334,49.4218586 C17.67368,49.4960715 17.6444669,49.5676272 17.5914027,49.6196029 C17.5383386,49.6715787 17.4661357,49.6993589 17.3918699,49.6963737 Z" id="路径" fill="#3ECDFF"></path>
                    <path d="M17.3864803,49.7232869 C17.3169385,49.7247341 17.2497428,49.6981536 17.2000543,49.6495426 C17.1503657,49.6009317 17.1223708,49.5343859 17.1223859,49.4649198 C17.1194734,49.3940479 17.1452671,49.3249916 17.1939446,49.2733392 C17.2426221,49.2216868 17.31008,49.1917926 17.3810906,49.1904047 L18.9979949,49.1419609 C19.1416608,49.1467455 19.2593876,49.2574025 19.2728687,49.400328 C19.2729823,49.547832 19.1563574,49.6690587 19.0087742,49.6748431 L17.3918699,49.7232869 L17.3864803,49.7232869 Z M11.3985447,54.1478239 C11.2559146,54.1450875 11.1401303,54.0318142 11.1344503,53.8894568 C11.1315377,53.8185849 11.1573315,53.7495286 11.206009,53.6978762 C11.2546865,53.6462238 11.3221443,53.6163296 11.393155,53.6149417 L13.0100593,53.5664979 C13.1588403,53.5665698 13.2794129,53.6870434 13.2794129,53.8356303 C13.2794129,53.9842172 13.1588403,54.1046908 13.0100593,54.1047627 L11.393155,54.1532065 L11.3985447,54.1478239 Z" id="形状" fill="#3ECDFF"></path>
                    <path d="M12.9669419,55.6980267 C12.820222,55.6921926 12.7051842,55.5701245 12.7082372,55.4235116 L12.7567443,53.8087171 C12.7568163,53.6601302 12.8774474,53.5397149 13.0262284,53.5397149 C13.1750094,53.5397149 13.2956404,53.6601302 13.2957124,53.8087171 L13.2472053,55.4235116 C13.2487519,55.4977245 13.2195388,55.5692801 13.1664746,55.6212559 C13.1134105,55.6732316 13.0412077,55.7010119 12.9669419,55.6980267 L12.9669419,55.6980267 Z" id="路径" fill="#3ECDFF"></path>
                </g>
            </g>
        </g>
    </g>
</svg>