<?xml version="1.0" encoding="UTF-8"?>
<svg width="64px" height="64px" viewBox="0 0 64 64" version="1.1" xmlns="http://www.w3.org/2000/svg" xmlns:xlink="http://www.w3.org/1999/xlink">
    <title>大雨</title>
    <g id="页面-1" stroke="none" stroke-width="1" fill="none" fill-rule="evenodd">
        <g id="天气图标" transform="translate(-562.000000, -473.000000)" fill-rule="nonzero">
            <g id="1" transform="translate(66.000000, 363.000000)">
                <g id="大雨" transform="translate(496.000000, 110.000000)">
                    <path d="M49.8485424,15.5301035 C48.9181037,15.5307814 47.9899824,15.6228948 47.0775522,15.8051164 C44.5699544,7.71120769 36.8067977,2.421612 28.3586904,3.0506128 C19.9105831,3.6796136 13.0159082,10.0605529 11.7339498,18.4366116 L11.0654619,18.4366116 L11.0654619,18.5444597 C4.73685493,19.3641807 0,24.7553524 0,31.1384291 C0,37.5215058 4.73685493,42.9126776 11.0654619,43.7323986 L11.0654619,43.8402467 L49.8485424,43.8402467 C57.6641766,43.8402467 64,37.5028053 64,29.6851751 C64,21.867545 57.6641766,15.5301035 49.8485424,15.5301035 Z" id="路径" fill="#FFFFFF"></path>
                    <path d="M28.5593591,57.8173689 C28.4876339,59.5954694 27.0256632,61 25.2465702,61 C23.4674773,61 22.0055066,59.5954694 21.9337814,57.8173689 C21.9337814,55.9839501 25.2438747,48.9899966 25.2438747,48.9899966 C25.2438747,48.9899966 28.5593591,55.98395 28.5593591,57.8173689 L28.5593591,57.8173689 Z M39.4546337,57.8173689 C39.382908,59.5954691 37.9209375,60.9999992 36.1418449,60.9999992 C34.3627522,60.9999992 32.9007817,59.5954691 32.829056,57.8173689 C32.829056,55.9839501 36.1445404,48.9899966 36.1445404,48.9899966 C36.1445404,48.9899966 39.4546337,55.98395 39.4546337,57.8173689 Z M55.7139846,48.7796927 C55.6638453,49.6587833 54.9365377,50.3459561 54.0562425,50.3459561 C53.1759472,50.3459561 52.4486396,49.6587833 52.3985003,48.7796927 C52.3985003,47.8629832 54.058938,44.3687028 54.0589379,44.3687028 C54.0589379,44.3687028 55.7139846,47.8521985 55.7139846,48.7796927 Z M9.22172918,48.7796927 C9.17158987,49.6587833 8.44428224,50.3459561 7.563987,50.3459561 C6.68369176,50.3459561 5.95638413,49.6587833 5.90624482,48.7796927 C5.90624482,47.8629832 7.56129146,44.3687028 7.56129146,44.3687028 C7.56129146,44.3687028 9.22172918,47.8521985 9.22172918,48.7796927 Z M47.9616813,53.9941515 C47.9616813,55.2896445 46.9117449,56.339849 45.6165826,56.339849 C44.3214204,56.339849 43.271484,55.2896445 43.271484,53.9941515 C43.271484,52.6999735 45.6165826,47.7497427 45.6165826,47.7497427 C45.6165826,47.7497427 47.9616813,52.6999735 47.9616813,53.9941515 Z M18.1169311,53.9941515 C18.1169311,55.2896445 17.0669947,56.339849 15.7718324,56.339849 C14.4766702,56.339849 13.4267337,55.2896445 13.4267337,53.9941515 C13.4267337,52.6999735 15.7718324,47.7497427 15.7718324,47.7497427 C15.7718324,47.7497427 18.1169311,52.6999735 18.1169311,53.9941515 Z" id="形状" fill="#3ECDFF"></path>
                </g>
            </g>
        </g>
    </g>
</svg>