<?xml version="1.0" encoding="UTF-8"?>
<svg width="64px" height="64px" viewBox="0 0 64 64" version="1.1" xmlns="http://www.w3.org/2000/svg" xmlns:xlink="http://www.w3.org/1999/xlink">
    <title>轻度雾霾</title>
    <g id="页面-1" stroke="none" stroke-width="1" fill="none" fill-rule="evenodd">
        <g id="天气图标" transform="translate(-438.000000, -363.000000)" fill="#C1C1C1" fill-rule="nonzero">
            <g id="1" transform="translate(66.000000, 363.000000)">
                <g id="轻度雾霾" transform="translate(372.000000, 0.000000)">
                    <path d="M16.6043845,44 C7.29578416,44 0,38.7274385 0,32 C0,25.2725615 7.29578416,20 16.6043845,20 C25.9129848,20 33.2141653,25.2725615 33.2141653,32 C33.2141653,38.7274385 25.9183811,44 16.6043845,44 Z M16.6043845,24.3536919 C9.93457,24.3427529 4.29544692,27.8541476 4.29544692,32 C4.29544692,36.1458524 9.93457,39.6572471 16.6043845,39.6572471 C23.274199,39.6572471 28.9187184,36.1567913 28.9187184,32 C28.9187184,27.8432087 23.2795953,24.3427529 16.6043845,24.3427529 L16.6043845,24.3536919 Z" id="形状"></path>
                    <path d="M47.3956155,44 C38.0816189,44 30.7858347,38.7274385 30.7858347,32 C30.7858347,25.2725615 38.0816189,20 47.3956155,20 C56.7096121,20 64,25.2725615 64,32 C64,38.7274385 56.7042158,44 47.3956155,44 L47.3956155,44 Z M47.3956155,24.3536919 C40.7204047,24.3536919 35.0812816,27.8541476 35.0812816,32.0109389 C35.0812816,36.1677302 40.7204047,39.6572471 47.3956155,39.6572471 C54.0708263,39.6572471 59.7045531,36.1567913 59.7045531,32 C59.7045531,27.8432087 54.06543,24.3427529 47.3956155,24.3427529 L47.3956155,24.3536919 Z" id="形状"></path>
                </g>
            </g>
        </g>
    </g>
</svg>