<?xml version="1.0" encoding="UTF-8"?>
<svg width="64px" height="64px" viewBox="0 0 64 64" version="1.1" xmlns="http://www.w3.org/2000/svg" xmlns:xlink="http://www.w3.org/1999/xlink">
    <title>小雪</title>
    <g id="页面-1" stroke="none" stroke-width="1" fill="none" fill-rule="evenodd">
        <g id="天气图标" transform="translate(-810.000000, -473.000000)" fill-rule="nonzero">
            <g id="1" transform="translate(66.000000, 363.000000)">
                <g id="小雪" transform="translate(744.000000, 110.000000)">
                    <path d="M49.8530001,17.4544047 C48.9231734,17.4553505 47.9956402,17.5462093 47.0834816,17.7256997 C44.5737091,9.68004828 36.8132785,4.42379619 28.3696613,5.05055796 C19.9260442,5.67731972 13.0354531,12.0211034 11.7534077,20.3482179 L11.0850877,20.3482179 L11.0850877,20.4546081 C4.74867635,21.2572163 0,26.6214969 0,32.9767334 C0,39.33197 4.74867635,44.6962506 11.0850877,45.4988588 L11.0850877,45.605249 L49.8530001,45.605249 C57.6661724,45.605249 64,39.3034679 64,31.5298269 C64,23.7561859 57.6661724,17.4544047 49.8530001,17.4544047 L49.8530001,17.4544047 Z" id="路径" fill="#FFFFFF"></path>
                    <path d="M32.0061801,58.999774 C31.8614917,58.999774 31.7441986,58.8830743 31.7441986,58.739118 L31.7441986,50.2810979 C31.7442701,50.134254 31.863936,50.0152512 32.0115267,50.0152512 C32.1591173,50.0152512 32.2787833,50.134254 32.2788547,50.2810979 L32.2788547,58.749757 C32.2760759,58.8189073 32.2457717,58.8841195 32.1946223,58.9310187 C32.1434728,58.977918 32.0756773,59.0026539 32.0061801,58.999774 L32.0061801,58.999774 Z" id="路径" fill="#3ECDFF"></path>
                    <path d="M33.102225,58.999774 C33.0296079,59.0014761 32.9596669,58.9724815 32.9097489,58.9199813 L31.8083574,57.7603282 C31.7580655,57.7113017 31.7297247,57.6441979 31.7297247,57.5741454 C31.7297247,57.504093 31.7580655,57.4369891 31.8083574,57.3879626 C31.8585527,57.3376101 31.9268806,57.3092875 31.9981603,57.3092875 C32.0694399,57.3092875 32.1377679,57.3376101 32.1879632,57.3879626 L33.2572753,58.5476157 C33.3075673,58.5966422 33.335908,58.663746 33.335908,58.7337985 C33.335908,58.803851 33.3075673,58.8709548 33.2572753,58.9199813 C33.216022,58.9630916 33.1614265,58.9911878 33.102225,58.999774 L33.102225,58.999774 Z" id="路径" fill="#3ECDFF"></path>
                    <path d="M30.9047886,58.999774 C30.8369949,58.9983021 30.7721847,58.9717505 30.7230055,58.9253008 C30.6727136,58.8762743 30.6443729,58.8091704 30.6443729,58.739118 C30.6443729,58.6690655 30.6727136,58.6019617 30.7230055,58.5529352 L31.8083574,57.4039211 C31.9109661,57.3083882 32.0703991,57.3082073 32.1732266,57.4035071 C32.2760541,57.498807 32.2871658,57.6570477 32.1986563,57.7656478 L31.0972647,58.9253008 C31.0457229,58.9747753 30.9763837,59.0016041 30.9047886,58.999774 L30.9047886,58.999774 Z M32.0061801,51.7067264 C31.9383864,51.7052545 31.8735763,51.678703 31.8243971,51.6322533 C31.7741051,51.5832268 31.7457644,51.5161229 31.7457644,51.4460704 C31.7457644,51.376018 31.7741051,51.3089141 31.8243971,51.2598876 L32.9257885,50.1002345 C32.9862722,50.0155521 33.0907749,49.9736569 33.1933716,49.9929604 C33.2959683,50.0122638 33.3778789,50.0892324 33.4031067,50.1900414 C33.4283346,50.2908503 33.3922618,50.3970467 33.3107409,50.4619612 L32.2414288,51.6216143 C32.1810107,51.6854898 32.0937241,51.7170697 32.0061801,51.7067264 L32.0061801,51.7067264 Z" id="形状" fill="#3ECDFF"></path>
                    <path d="M32.0061801,51.7120459 C31.9339301,51.7118698 31.8647038,51.6831715 31.8137039,51.6322533 L30.7123124,50.4885588 C30.63508,50.3804267 30.649737,50.2322052 30.7466688,50.1411216 C30.8436007,50.050038 30.9931698,50.0439419 31.0972647,50.1268321 L32.1986563,51.2864852 C32.3005464,51.389908 32.3005464,51.555428 32.1986563,51.6588508 C32.1446423,51.7022836 32.0749705,51.7215389 32.0061801,51.7120459 L32.0061801,51.7120459 Z M35.0109473,57.7709673 C34.9414042,57.7703032 34.8746367,57.7437313 34.8238177,57.6964941 L28.7982436,51.7067264 C28.7465546,51.6584607 28.7172333,51.5910728 28.7172333,51.5205436 C28.7172333,51.4500144 28.7465546,51.3826265 28.7982436,51.3343608 C28.9021924,51.2329861 29.0685541,51.2329861 29.1725029,51.3343608 L35.2141166,57.3241285 C35.2658056,57.3723941 35.2951269,57.4397821 35.2951269,57.5103113 C35.2951269,57.5808405 35.2658056,57.6482284 35.2141166,57.6964941 C35.1592907,57.7476141 35.0860027,57.7744783 35.0109473,57.7709673 L35.0109473,57.7709673 Z" id="形状" fill="#3ECDFF"></path>
                    <path d="M35.7861986,56.9996384 L34.1822304,56.9517628 C34.1113259,56.950366 34.043885,56.920995 33.9947509,56.8701142 C33.9456168,56.8192334 33.9188166,56.751013 33.9202489,56.6804678 C33.9338745,56.5372481 34.0536935,56.4272055 34.1982701,56.4251314 L35.8022383,56.473007 C35.949829,56.4730781 36.0694369,56.5921385 36.0694369,56.7389824 C36.0694369,56.8858264 35.949829,57.0048868 35.8022383,57.0049579 L35.7861986,56.9996384 Z" id="路径" fill="#3ECDFF"></path>
                    <path d="M34.2303494,58.5369767 C34.0867853,58.537091 33.9687639,58.4243637 33.9630214,58.2816402 L33.9149019,56.6857873 C33.914652,56.5419725 34.0272411,56.4229518 34.1715372,56.4144911 C34.3171057,56.4140633 34.4383614,56.5254253 34.4495584,56.6698288 L34.4923309,58.2656817 C34.4952201,58.3357222 34.4696328,58.4039685 34.4213447,58.455015 C34.3730566,58.5060615 34.3061385,58.535605 34.235696,58.5369767 L34.2303494,58.5369767 Z M29.8194368,52.6163626 C29.6758726,52.6164769 29.5578512,52.5037496 29.5521087,52.3610261 L29.5039896,50.7651732 C29.499604,50.694237 29.5245213,50.624595 29.572972,50.5723723 C29.6214227,50.5201495 29.6892051,50.4898751 29.7606246,50.4885584 C29.9051708,50.4883097 30.0247967,50.6003292 30.0332992,50.7438952 L30.0814182,52.3397481 C30.0843075,52.4097887 30.0587201,52.4780349 30.010432,52.5290814 C29.962144,52.5801279 29.8952258,52.6096714 29.8247833,52.6110431 L29.8194368,52.6163626 Z" id="形状" fill="#3ECDFF"></path>
                    <path d="M29.8247833,52.6163626 L28.2208151,52.568487 C28.1252771,52.568533 28.0369766,52.5178484 27.9891943,52.4355364 C27.941412,52.3532244 27.941412,52.2517986 27.9891943,52.1694866 C28.0369766,52.0871746 28.1252771,52.03649 28.2208151,52.036536 L29.8247833,52.0844116 C29.8952258,52.0857833 29.962144,52.1153268 30.010432,52.1663733 C30.0587201,52.2174198 30.0843075,52.285666 30.0814182,52.3557066 C30.0828557,52.424343 30.0564534,52.4906638 30.0081683,52.5397054 C29.9598833,52.588747 29.8937837,52.6163775 29.8247833,52.6163626 L29.8247833,52.6163626 Z M36.2834288,54.7814029 L27.7289314,54.7814029 C27.5812902,54.7814029 27.4616034,54.6623216 27.4616034,54.5154274 C27.4616034,54.3685333 27.5812902,54.249452 27.7289314,54.249452 L36.2834288,54.249452 C36.43107,54.249452 36.5507568,54.3685333 36.5507568,54.5154274 C36.5507568,54.6623216 36.43107,54.7814029 36.2834288,54.7814029 L36.2834288,54.7814029 Z" id="形状" fill="#3ECDFF"></path>
                    <path d="M35.0964923,54.7814029 C35.0230485,54.7817416 34.9529783,54.7507568 34.9040161,54.6962907 C34.8537242,54.6472642 34.8253834,54.5801604 34.8253834,54.5101079 C34.8253834,54.4400555 34.8537242,54.3729516 34.9040161,54.3239251 L36.0695663,53.2600232 C36.1348109,53.1789148 36.2415473,53.1430245 36.3428689,53.1681247 C36.4441905,53.1932249 36.5215505,53.274721 36.5409521,53.3767987 C36.5603537,53.4788763 36.5182455,53.5828502 36.4331325,53.6430279 L35.2675822,54.7335274 C35.2175267,54.7680489 35.1572958,54.7849031 35.0964923,54.7814029 Z" id="路径" fill="#3ECDFF"></path>
                    <path d="M36.2513494,55.8719096 C36.1841744,55.8723945 36.1192754,55.8477058 36.0695663,55.8027488 L34.9040161,54.7069298 C34.8207045,54.6033615 34.8268316,54.4545493 34.9183784,54.3581079 C35.0099251,54.2616665 35.1589002,54.2470836 35.2675822,54.3239251 L36.4331325,55.4144245 C36.5111558,55.4892263 36.5360813,55.6034881 36.496245,55.7037407 C36.4564087,55.8039933 36.3596902,55.8704067 36.2513494,55.8719096 L36.2513494,55.8719096 Z M28.9158679,54.7814029 C28.8480743,54.779931 28.7832641,54.7533795 28.7340849,54.7069298 L27.5685346,53.6164304 C27.4834215,53.5562527 27.4413133,53.4522788 27.4607149,53.3502012 C27.4801166,53.2481235 27.5574765,53.1666274 27.6587981,53.1415272 C27.7601197,53.116427 27.8668561,53.1523173 27.9321008,53.2334257 L29.097651,54.2973275 C29.147943,54.346354 29.1762837,54.4134579 29.1762837,54.4835104 C29.1762837,54.5535629 29.147943,54.6206667 29.097651,54.6696932 C29.0562574,54.731449 28.9899019,54.7722259 28.9158679,54.7814029 L28.9158679,54.7814029 Z" id="形状" fill="#3ECDFF"></path>
                    <path d="M27.7610108,55.8719024 C27.65267,55.8704067 27.5559515,55.8039933 27.5161152,55.7037407 C27.4762789,55.6034881 27.5012044,55.4892263 27.5792278,55.4144245 L28.744778,54.3239251 C28.85346,54.2470836 29.0024351,54.2616665 29.0939819,54.3581079 C29.1855286,54.4545493 29.1916557,54.6033615 29.1083441,54.7069298 L27.9427939,55.8080683 C27.8922876,55.8510993 27.8274757,55.8738584 27.7610108,55.8719024 L27.7610108,55.8719024 Z M28.9960663,57.7763054 C28.8891151,57.7747919 28.7933547,57.7100125 28.752629,57.6116076 C28.7119033,57.5132028 28.7340529,57.4001177 28.8089368,57.3241285 L34.8291642,51.3343608 C34.933113,51.2329861 35.0994747,51.2329861 35.2034234,51.3343608 C35.3059615,51.4395879 35.3059615,51.6068187 35.2034234,51.7120459 L29.183196,57.6964941 C29.1349271,57.748167 29.0669638,57.7771467 28.9960663,57.7763054 L28.9960663,57.7763054 Z" id="形状" fill="#3ECDFF"></path>
                    <path d="M34.1929235,52.6163626 C34.0473774,52.6105969 33.93326,52.4899606 33.9362885,52.3450676 L33.9844076,50.7492147 C33.9857862,50.6791286 34.01548,50.612549 34.066786,50.5645053 C34.1180921,50.5164615 34.1866854,50.4910036 34.2570822,50.4938783 C34.4026283,50.4996439 34.5167456,50.6202802 34.5137171,50.7651732 L34.4655981,52.3610261 C34.4598031,52.5058358 34.3385534,52.6193758 34.1929235,52.6163626 L34.1929235,52.6163626 Z" id="路径" fill="#3ECDFF"></path>
                    <path d="M34.1822304,52.6163626 C34.0346397,52.6162915 33.9150317,52.497231 33.9150317,52.3503871 C33.9150317,52.2035432 34.0346397,52.0844827 34.1822304,52.0844116 L35.7861986,52.036536 C35.8565954,52.0336614 35.9251887,52.0591193 35.9764948,52.1071631 C36.0278008,52.1552068 36.0574946,52.2217864 36.0588732,52.2918725 C36.0633069,52.362312 36.0382389,52.4314356 35.9896216,52.4828301 C35.9410043,52.5342246 35.8731745,52.5633055 35.8022383,52.5631675 L34.1982701,52.6110431 L34.1822304,52.6163626 Z M28.2208151,56.9996384 C28.1518297,57.0010686 28.0851716,56.9747999 28.0358806,56.9267592 C27.9865896,56.8787184 27.9588186,56.8129532 27.9588336,56.744302 C27.9559443,56.6742614 27.9815317,56.6060151 28.0298198,56.5549686 C28.0781079,56.5039221 28.145026,56.4743786 28.2154685,56.473007 L29.8194368,56.4251314 C29.9629463,56.4274559 30.0810897,56.5380871 30.0921114,56.6804678 C30.0950048,56.7510239 30.0695793,56.8198288 30.0214391,56.8717168 C29.9732989,56.9236048 29.9063959,56.9543164 29.8354764,56.9570823 L28.2315082,56.9996384 L28.2208151,56.9996384 Z" id="形状" fill="#3ECDFF"></path>
                    <path d="M29.7820108,58.5422961 C29.7110913,58.5395302 29.6441883,58.5088186 29.5960481,58.4569306 C29.5479079,58.4050426 29.5224825,58.3362378 29.5253759,58.2656817 L29.5734949,56.6698288 C29.5845165,56.5274481 29.70266,56.4168169 29.8461695,56.4144923 C29.9917156,56.420258 30.105833,56.5408942 30.1028044,56.6857873 L30.0546854,58.2816402 C30.0532815,58.3521859 30.0237611,58.4192856 29.9726216,58.4681711 C29.921482,58.5170565 29.8529146,58.5437211 29.7820108,58.5422961 L29.7820108,58.5422961 Z" id="路径" fill="#3ECDFF"></path>
                </g>
            </g>
        </g>
    </g>
</svg>