<?xml version="1.0" encoding="UTF-8"?>
<svg width="64px" height="64px" viewBox="0 0 64 64" version="1.1" xmlns="http://www.w3.org/2000/svg" xmlns:xlink="http://www.w3.org/1999/xlink">
    <title>中雨</title>
    <g id="页面-1" stroke="none" stroke-width="1" fill="none" fill-rule="evenodd">
        <g id="天气图标" transform="translate(-438.000000, -473.000000)" fill-rule="nonzero">
            <g id="1" transform="translate(66.000000, 363.000000)">
                <g id="中雨" transform="translate(372.000000, 110.000000)">
                    <path d="M49.6312192,14.5457658 C48.7056387,14.5467207 47.7823765,14.6387916 46.8746561,14.8206597 C44.3834492,6.71882877 36.6530777,1.42155704 28.2390765,2.05054521 C19.8250754,2.67953337 12.9594986,9.06792436 11.6882545,17.4510171 L11.0178842,17.4510171 L11.0178842,17.5588187 C4.71657454,18.3785686 0,23.7721229 0,30.1581227 C0,36.5441225 4.71657454,41.9376768 11.0178842,42.7574266 L11.0178842,42.8652282 L49.6312192,42.8652282 C54.7310421,42.9652267 59.486634,40.2879677 62.0657003,35.8649793 C64.6447666,31.4419909 64.6447666,25.9636131 62.0657003,21.5406247 C59.486634,17.1176363 54.7310421,14.4403772 49.6312192,14.5403758 L49.6312192,14.5457658 Z" id="路径" fill="#FFFFFF"></path>
                    <path d="M35.1565815,58.6851029 C35.1565815,60.51587 33.6799171,62 31.8583592,62 C30.0368012,62 28.5601368,60.51587 28.5601368,58.6851029 C28.5601368,56.8524769 31.8583592,49.8507674 31.8583592,49.8507674 C31.8583592,49.8507674 35.1565815,56.8524769 35.1565815,58.6851029 L35.1565815,58.6851029 Z M19.8560475,52.3140324 C19.7963032,53.5667618 18.7683359,54.5515902 17.520477,54.5515902 C16.2726181,54.5515902 15.2446509,53.5667618 15.1849066,52.3140324 C15.1849066,51.015024 17.5177956,46.0669337 17.5177956,46.0669337 C17.5177956,46.0669337 19.8560475,51.015024 19.8560475,52.3140324 Z M48.7463303,52.3140324 C48.6865863,53.5667621 47.658619,54.5515908 46.4107598,54.5515908 C45.1629007,54.5515908 44.1349333,53.5667621 44.0751893,52.3140324 C44.0751893,51.015024 46.4134413,46.0669337 46.4134413,46.0669337 C46.4134414,46.0669337 48.7463303,51.015024 48.7463303,52.3140324 Z" id="形状" fill="#3ECDFF"></path>
                </g>
            </g>
        </g>
    </g>
</svg>