<?xml version="1.0" encoding="UTF-8"?>
<svg width="64px" height="64px" viewBox="0 0 64 64" version="1.1" xmlns="http://www.w3.org/2000/svg" xmlns:xlink="http://www.w3.org/1999/xlink">
    <title>中雪</title>
    <g id="页面-1" stroke="none" stroke-width="1" fill="none" fill-rule="evenodd">
        <g id="天气图标" transform="translate(-934.000000, -473.000000)" fill-rule="nonzero">
            <g id="1" transform="translate(66.000000, 363.000000)">
                <g id="中雪" transform="translate(868.000000, 110.000000)">
                    <path d="M49.8485424,16.5231386 C48.9213531,16.5280742 47.9968739,16.6238396 47.0883342,16.8090641 C44.5798075,8.71147233 36.8156188,3.42025261 28.367274,4.05084208 C19.9189291,4.68143154 13.0250592,11.0667374 11.7447319,19.4471315 L11.0654619,19.4471315 L11.0654619,19.5550279 C4.73685493,20.3751156 0,25.7686995 0,32.154632 C0,38.5405646 4.73685493,43.9341485 11.0654619,44.7542362 L11.0654619,44.8621326 L49.8485424,44.8621326 C57.6641766,44.8621326 64,38.5218557 64,30.7007278 C64,22.8795999 57.6641766,16.5393231 49.8485424,16.5393231 L49.8485424,16.5231386 Z" id="路径" fill="#FFFFFF"></path>
                    <path d="M22.381237,60 C22.2990529,59.9972097 22.2330764,59.9311869 22.2302881,59.848945 L22.2302881,53.37516 C22.2441915,53.3012077 22.3087357,53.2476368 22.3839325,53.2476368 C22.4591294,53.2476368 22.5236735,53.3012077 22.5375769,53.37516 L22.5375769,59.848945 C22.5346706,59.933236 22.4655189,60 22.381237,60 L22.381237,60 Z" id="路径" fill="#3ECDFF"></path>
                    <path d="M23.2222379,60 C23.1794513,60 23.1385343,59.9824518 23.1090263,59.9514466 L22.2895895,59.0613011 C22.2520319,59.0217898 22.2383915,58.9652289 22.2538065,58.9129246 C22.2692215,58.8606202 22.3113501,58.8205185 22.3643227,58.8077255 C22.4172953,58.7949325 22.4730642,58.8113917 22.5106218,58.8509031 L23.3462316,59.7410486 C23.3853274,59.7859144 23.3955921,59.8490954 23.3727129,59.9040443 C23.3498336,59.9589931 23.297775,59.9961878 23.238411,60 L23.2222379,60 Z" id="路径" fill="#3ECDFF"></path>
                    <path d="M21.5456271,59.9946052 C21.4862631,59.990793 21.4342045,59.9535984 21.4113253,59.8986495 C21.388446,59.8437006 21.3987107,59.7805196 21.4378065,59.7356538 L22.2895895,58.8455083 C22.3476485,58.784429 22.4441944,58.7820137 22.5052307,58.8401135 C22.5662671,58.8982133 22.5686808,58.994827 22.5106218,59.0559063 L21.6588388,59.967631 C21.6259764,59.9908664 21.585427,60.0005278 21.5456271,59.9946052 L21.5456271,59.9946052 Z M22.381237,54.3947811 C22.3429639,54.3934348 22.3065159,54.3780775 22.2788074,54.3516225 C22.2498301,54.3232108 22.2335007,54.2843228 22.2335007,54.2437261 C22.2335007,54.2031294 22.2498301,54.1642415 22.2788074,54.1358297 L23.1144173,53.2456843 C23.1428091,53.2166866 23.1816697,53.2003457 23.2222379,53.2003457 C23.2628061,53.2003457 23.3016667,53.2166866 23.3300585,53.2456843 C23.3590358,53.274096 23.3753652,53.312984 23.3753652,53.3535807 C23.3753652,53.3941774 23.3590358,53.4330653 23.3300585,53.4614771 L22.4944487,54.3516225 C22.4640416,54.3806503 22.4232369,54.3962059 22.381237,54.3947811 L22.381237,54.3947811 Z" id="形状" fill="#3ECDFF"></path>
                    <path d="M22.381237,54.4001759 C22.340051,54.3999853 22.3008736,54.3823431 22.2734164,54.3516225 L21.4378065,53.493846 C21.3797475,53.4327667 21.3821611,53.336153 21.4431975,53.2780532 C21.5042339,53.2199533 21.6007798,53.2223687 21.6588388,53.283448 L22.4944487,54.1681986 C22.523426,54.1966104 22.5397554,54.2354983 22.5397554,54.276095 C22.5397554,54.3166917 22.523426,54.3555797 22.4944487,54.3839914 C22.4604984,54.4046166 22.4196003,54.4104633 22.381237,54.4001759 L22.381237,54.4001759 Z M24.6778164,59.0505115 C24.6366304,59.0503209 24.597453,59.0326787 24.5699958,59.0019582 L19.982228,54.4109656 C19.9226803,54.351376 19.9226803,54.2547623 19.982228,54.1951727 C20.0417757,54.1355832 20.1383216,54.1355832 20.1978693,54.1951728 L24.785637,58.7861653 C24.8146143,58.814577 24.8309437,58.853465 24.8309437,58.8940617 C24.8309437,58.9346584 24.8146143,58.9735464 24.785637,59.0019582 C24.7581798,59.0326787 24.7190024,59.0503209 24.6778164,59.0505115 L24.6778164,59.0505115 Z" id="形状" fill="#3ECDFF"></path>
                    <path d="M25.2708299,58.4570812 L24.0524568,58.4193175 C23.96909,58.4193175 23.9015079,58.3516879 23.9015079,58.2682625 C23.9015079,58.1848371 23.96909,58.1172075 24.0524568,58.1172075 L25.2762209,58.1495764 C25.3583282,58.1552563 25.4219747,58.2236655 25.4217792,58.3060263 C25.4217792,58.3460885 25.4058753,58.38451 25.3775669,58.4128383 C25.3492584,58.4411666 25.310864,58.4570812 25.2708299,58.4570812 L25.2708299,58.4570812 Z" id="路径" fill="#3ECDFF"></path>
                    <path d="M24.0794119,59.6331522 C23.9981059,59.6332041 23.9313668,59.5688033 23.928463,59.487492 L23.9068989,58.2682625 C23.9054351,58.2272739 23.92069,58.1874518 23.9491587,58.1579457 C23.9776273,58.1284396 24.0168619,58.1117865 24.0578478,58.1118123 C24.1401507,58.1116166 24.2085119,58.1753079 24.2141877,58.2574729 L24.2519249,59.4767024 C24.2533887,59.517691 24.2381338,59.5575131 24.2096652,59.5870192 C24.1811966,59.6165253 24.141962,59.6331784 24.1009761,59.6331522 L24.0794119,59.6331522 Z M20.7154083,55.1122923 C20.6332242,55.109502 20.5672477,55.0434792 20.5644594,54.9612373 L20.5267222,53.7420078 C20.5266721,53.6576667 20.5934393,53.5884663 20.677671,53.5855579 C20.7619529,53.5855078 20.8311047,53.6523219 20.834011,53.7366129 L20.8717482,54.9558425 C20.8717983,55.0401836 20.8050311,55.1093839 20.7207993,55.1122923 L20.7154083,55.1122923 Z" id="形状" fill="#3ECDFF"></path>
                    <path d="M20.7207993,55.1122923 L19.5024262,55.0745285 C19.461879,55.07464 19.4231231,55.0578217 19.3954934,55.0281245 C19.3678637,54.9984272 19.3538647,54.9585431 19.3568684,54.9180787 C19.3568684,54.8317616 19.4323428,54.7508393 19.5132082,54.7724185 L20.7315814,54.8047875 C20.8054817,54.8187007 20.859015,54.8832902 20.859015,54.9585399 C20.859015,55.0337896 20.8054817,55.0983791 20.7315814,55.1122923 L20.7207993,55.1122923 Z M25.632029,56.7307385 L19.1627912,56.7307385 C19.1227571,56.7307385 19.0843627,56.7148239 19.0560542,56.6864956 C19.0277458,56.6581673 19.0118423,56.6197458 19.0118423,56.5796836 C19.010313,56.5391715 19.0257248,56.4998544 19.0543715,56.4711876 C19.0830182,56.4425208 19.1223076,56.4270982 19.1627912,56.4286286 L25.632029,56.4286286 C25.7153958,56.4286286 25.7829779,56.4962582 25.7829779,56.5796836 C25.7801896,56.6619254 25.7142131,56.7279483 25.632029,56.7307385 L25.632029,56.7307385 Z" id="形状" fill="#3ECDFF"></path>
                    <path d="M24.7425088,56.7307385 C24.6998492,56.7301305 24.6591576,56.712679 24.6292972,56.6821851 C24.6003199,56.6537734 24.5839905,56.6148854 24.5839905,56.5742887 C24.5839905,56.533692 24.6003199,56.4948041 24.6292972,56.4663923 L25.5242084,55.6517744 C25.5526002,55.6227767 25.5914608,55.6064359 25.632029,55.6064359 C25.6725972,55.6064359 25.7114578,55.6227767 25.7398496,55.6517744 C25.7702722,55.6793846 25.787623,55.7185714 25.787623,55.7596708 C25.787623,55.8007702 25.7702722,55.839957 25.7398496,55.8675672 L24.8449384,56.7307385 C24.8122489,56.7448389 24.7751983,56.7448389 24.7425088,56.7307385 L24.7425088,56.7307385 Z" id="路径" fill="#3ECDFF"></path>
                    <path d="M25.6266379,57.588515 C25.5873808,57.5889913 25.5492093,57.5756219 25.5188173,57.5507513 L24.6292972,56.7307385 C24.5682608,56.6726387 24.5658471,56.576025 24.6239061,56.5149457 C24.6819651,56.4538664 24.778511,56.4514511 24.8395474,56.5095509 L25.7290676,57.351143 C25.7580449,57.3795547 25.7743742,57.4184427 25.7743742,57.4590394 C25.7743742,57.4996361 25.7580449,57.538524 25.7290676,57.5669358 C25.6989901,57.5870955 25.6622848,57.5948284 25.6266379,57.588515 L25.6266379,57.588515 Z M20.0307473,56.7307385 C19.9903803,56.7319431 19.9513277,56.7163111 19.9229267,56.68758 L19.0549706,55.872962 C19.0259933,55.8445502 19.0096639,55.8056623 19.0096639,55.7650656 C19.0096639,55.7244689 19.0259933,55.685581 19.0549706,55.6571692 C19.1171545,55.5989281 19.213819,55.5989281 19.2760029,55.6571692 L20.1331769,56.4879716 C20.1621542,56.5163834 20.1784836,56.5552713 20.1784836,56.595868 C20.1784836,56.6364647 20.1621542,56.6753527 20.1331769,56.7037645 C20.1036302,56.725309 20.067064,56.7349384 20.0307473,56.7307385 L20.0307473,56.7307385 Z" id="形状" fill="#3ECDFF"></path>
                    <path d="M19.1466181,57.588515 C19.1061329,57.5904046 19.0668122,57.5746652 19.0387975,57.5453565 C19.0083748,57.5177463 18.9910241,57.4785595 18.9910241,57.4374601 C18.9910241,57.3963606 19.0083748,57.3571739 19.0387975,57.3295636 L19.9283177,56.4879716 C19.9567095,56.4589739 19.9955701,56.4426331 20.0361383,56.4426331 C20.0767065,56.4426331 20.1155671,56.4589739 20.1439589,56.4879716 C20.2014633,56.5483936 20.2014633,56.6433425 20.1439589,56.7037645 L19.2544387,57.5453565 C19.2248092,57.5721774 19.1865582,57.5874885 19.1466181,57.588515 L19.1466181,57.588515 Z M20.0900486,59.0505115 C20.028484,59.0484197 19.9738854,59.0103462 19.9506069,58.9532737 C19.9273284,58.8962013 19.9397096,58.8307698 19.982228,58.7861653 L24.5699958,54.1951728 C24.6321797,54.1369317 24.7288442,54.1369317 24.7910281,54.1951728 C24.8200054,54.2235845 24.8363348,54.2624725 24.8363348,54.3030692 C24.8363348,54.3436659 24.8200054,54.3825538 24.7910281,54.4109656 L20.1978693,59.0019582 C20.1713199,59.0338965 20.1315434,59.0518085 20.0900486,59.0505115 L20.0900486,59.0505115 Z" id="形状" fill="#3ECDFF"></path>
                    <path d="M24.0524568,55.1122923 C24.0119096,55.1123921 23.9731536,55.0955854 23.9455239,55.0658882 C23.9178942,55.036191 23.9038953,54.9963068 23.9068989,54.9558425 L23.9392451,53.7366129 C23.9406505,53.6951115 23.9584858,53.6558716 23.9888218,53.6275382 C24.0191577,53.5992047 24.0595054,53.5841023 24.1009761,53.585558 C24.1830833,53.5912378 24.2467298,53.659647 24.2465344,53.7420078 L24.2087967,54.9666321 C24.2073922,55.0067031 24.1901251,55.0445713 24.1608,55.0718932 C24.1314748,55.0992152 24.0924978,55.1137489 24.0524568,55.1122923 L24.0524568,55.1122923 Z" id="路径" fill="#3ECDFF"></path>
                    <path d="M24.0470658,55.1122923 C23.9657597,55.1123442 23.8990206,55.0479434 23.8961168,54.9666321 C23.8930085,54.8822038 23.9574456,54.8105568 24.0416747,54.8047875 L25.2600478,54.7724185 C25.3434146,54.7724185 25.4109967,54.8400482 25.4109967,54.9234735 C25.4109967,55.0068989 25.3434146,55.0745285 25.2600478,55.0745285 L24.0416747,55.1122923 L24.0470658,55.1122923 Z M19.5024262,58.4570817 C19.4201233,58.4572773 19.3517621,58.393586 19.3460859,58.3114211 C19.3458966,58.2260863 19.4119498,58.1552652 19.4970351,58.1495764 L20.7154083,58.1172075 C20.7967143,58.1171556 20.8634534,58.1815564 20.8663572,58.2628677 C20.8693608,58.303332 20.8553619,58.3432162 20.8277322,58.3729134 C20.8001025,58.4026106 20.7613465,58.419429 20.7207993,58.4193175 L19.4970351,58.4570817 L19.5024262,58.4570817 Z" id="形状" fill="#3ECDFF"></path>
                    <path d="M20.67228,59.638547 C20.6312497,59.6371864 20.592543,59.6191611 20.5650801,59.5886253 C20.5376172,59.5580896 20.5237673,59.5176775 20.5267222,59.4767024 L20.5590684,58.2574729 C20.5674043,58.1744626 20.6374306,58.1113946 20.7207993,58.1118106 C20.7613465,58.1117012 20.8001024,58.1285196 20.8277321,58.1582168 C20.8553618,58.187914 20.8693608,58.2277981 20.8663572,58.2682625 L20.82862,59.487492 C20.8286461,59.5285068 20.8120047,59.567769 20.7825194,59.5962576 C20.753034,59.6247462 20.7132398,59.6400118 20.67228,59.638547 Z M38.5219853,57.4590393 C38.4519255,57.4590394 38.3847353,57.4311887 38.3351955,57.3816142 C38.2856558,57.3320396 38.2578247,57.2648021 38.2578247,57.1946931 L38.2578247,48.676271 C38.2578247,48.5799018 38.3092009,48.490853 38.3926005,48.4426684 C38.476,48.3944837 38.5787525,48.3944837 38.6621521,48.4426684 C38.7455516,48.490853 38.796928,48.5799018 38.796928,48.676271 L38.796928,57.1946931 C38.7969878,57.2667122 38.7676816,57.335638 38.7157847,57.3855347 C38.6638879,57.4354314 38.5938938,57.4619789 38.5219853,57.4590393 L38.5219853,57.4590393 Z" id="形状" fill="#3ECDFF"></path>
                    <path d="M39.6217557,57.4590393 C39.5486609,57.4601 39.478395,57.430802 39.4276786,57.378117 L38.3494722,56.2128357 C38.2672733,56.1470022 38.2309004,56.0393023 38.2563381,55.9370661 C38.2817757,55.8348299 38.3643676,55.7567716 38.4678178,55.7371949 C38.5712679,55.7176182 38.6766398,55.7601065 38.7376265,55.8459879 L39.8158328,57.0112693 C39.8665431,57.0609899 39.8951195,57.1290437 39.8951195,57.200088 C39.8951195,57.2711322 39.8665431,57.3391861 39.8158328,57.3889067 C39.7629965,57.4371183 39.6931829,57.4623465 39.6217557,57.4590393 L39.6217557,57.4590393 Z" id="路径" fill="#3ECDFF"></path>
                    <path d="M37.4276059,57.4536562 C37.3589115,57.4538131 37.2929692,57.4266413 37.2443108,57.378117 C37.1415732,57.27323 37.1415732,57.1053666 37.2443108,57.0004796 L38.3225171,55.8351983 C38.3835038,55.7493169 38.4888757,55.7068287 38.5923258,55.7264054 C38.6957759,55.7459821 38.7783677,55.8240404 38.8038054,55.9262766 C38.8292431,56.0285127 38.7928702,56.1362126 38.7106713,56.2020461 L37.6324651,57.3673274 C37.5789819,57.4231193 37.5048607,57.4543502 37.4276059,57.4536562 Z M38.5219853,50.1058985 C38.4542515,50.1063976 38.3888127,50.0813593 38.3386902,50.0357659 C38.2879799,49.9860453 38.2594035,49.9179914 38.2594035,49.8469471 C38.2594035,49.7759029 38.2879799,49.707849 38.3386902,49.6581284 L39.4168965,48.4928471 C39.4778832,48.4069657 39.5832551,48.3644774 39.6867052,48.3840542 C39.7901553,48.4036309 39.8727471,48.4816892 39.8981848,48.5839253 C39.9236225,48.6861615 39.8872496,48.7938613 39.8050507,48.8596949 L38.7268444,50.0249762 C38.6735872,50.0805091 38.5987879,50.1100559 38.5219853,50.1058985 L38.5219853,50.1058985 Z" id="形状" fill="#3ECDFF"></path>
                    <path d="M38.5219853,50.116691 C38.4479306,50.1170316 38.3772776,50.0856082 38.3279081,50.030371 L37.2497018,48.8650897 C37.1469642,48.7602026 37.1469642,48.5923393 37.2497018,48.4874523 C37.3556367,48.3874285 37.5211391,48.3874285 37.627074,48.4874523 L38.7052803,49.6581284 C38.7559906,49.707849 38.784567,49.7759029 38.784567,49.8469471 C38.784567,49.9179914 38.7559906,49.9860453 38.7052803,50.0357659 C38.6575179,50.0862738 38.5914629,50.1154362 38.5219853,50.116691 L38.5219853,50.116691 Z M41.5301808,56.1912565 C41.4602612,56.1895796 41.3932818,56.162769 41.3414947,56.1157289 L35.3251036,50.1112933 C35.2729846,50.0623443 35.2434194,49.9940023 35.2434194,49.9224746 C35.2434194,49.8509469 35.2729846,49.7826049 35.3251036,49.7336559 C35.429917,49.630846 35.5976624,49.630846 35.7024758,49.7336559 L41.6973028,55.754276 C41.7728095,55.8313411 41.7951434,55.9460271 41.7540789,56.0458251 C41.7130145,56.1456232 41.6164575,56.2113197 41.5086167,56.2128357 L41.5301808,56.1912565 Z" id="形状" fill="#3ECDFF"></path>
                    <path d="M42.3064894,55.4359815 L40.6891799,55.3874281 C40.6181515,55.3860371 40.5506767,55.3560753 40.501987,55.3043061 C40.4532973,55.2525369 40.4274971,55.1833244 40.4304104,55.1122923 C40.4389836,54.9666937 40.5596045,54.8530883 40.705353,54.8533404 L42.3226625,54.9018942 C42.4715317,54.9018942 42.5922141,55.0226614 42.5922141,55.1716353 C42.5922141,55.3206092 42.4715317,55.4413764 42.3226625,55.4413764 L42.3064894,55.4359815 Z" id="路径" fill="#3ECDFF"></path>
                    <path d="M40.7484812,56.9842951 C40.604669,56.9843251 40.4872556,56.869227 40.4843207,56.7253437 L40.4358014,55.1068975 C40.4328881,55.0358653 40.4586883,54.9666528 40.507378,54.9148836 C40.5560678,54.8631145 40.6235425,54.8331526 40.6945709,54.8317612 C40.8403194,54.8315091 40.9609403,54.9451144 40.9695135,55.090713 L41.0180328,56.7091593 C41.0210865,56.8561037 40.90602,56.9784478 40.7592633,56.9842951 L40.7484812,56.9842951 Z M36.3386175,51.0122284 C36.1938593,51.0123444 36.0748562,50.8980211 36.0690659,50.753277 L36.0205466,49.1348308 C36.0205,49.0384305 36.071866,48.9493329 36.1552847,48.9011193 C36.2387034,48.8529057 36.341493,48.8529057 36.4249117,48.9011193 C36.5083304,48.9493329 36.5596964,49.0384305 36.5596498,49.1348308 L36.602778,50.753277 C36.6072486,50.8247137 36.5819721,50.894816 36.5329504,50.9469381 C36.4839288,50.9990603 36.4155348,51.0285528 36.3440085,51.0284134 L36.3386175,51.0122284 Z" id="形状" fill="#3ECDFF"></path>
                    <path d="M36.3440085,51.0230181 L34.7266991,50.9744647 C34.6556706,50.9730736 34.5881959,50.9431118 34.5395062,50.8913427 C34.4908165,50.8395735 34.4650163,50.770361 34.4679296,50.6993288 C34.4643301,50.6267064 34.4927393,50.556158 34.5456507,50.5063239 C34.5985621,50.4564899 34.6706519,50.4323847 34.7428722,50.4403774 L36.3601816,50.483536 C36.5090508,50.483536 36.6297332,50.6043032 36.6297332,50.753277 C36.6297332,50.9022509 36.5090508,51.0230181 36.3601816,51.0230181 L36.3440085,51.0230181 Z M42.7755091,53.2025257 L34.2684614,53.2025257 C34.1196432,53.2024536 33.9990403,53.0817075 33.9990403,52.9327846 C33.9990403,52.7838618 34.1196432,52.6631157 34.2684614,52.6630436 L42.7755091,52.6630436 C42.8718417,52.6629969 42.9608766,52.7143991 43.0090564,52.7978764 C43.0572361,52.8813537 43.0572361,52.9842155 43.0090564,53.0676929 C42.9608766,53.1511702 42.8718417,53.2025723 42.7755091,53.2025257 L42.7755091,53.2025257 Z" id="形状" fill="#3ECDFF"></path>
                    <path d="M41.6164373,53.2025285 C41.5423827,53.2028691 41.4717297,53.1714457 41.4223602,53.1162086 C41.3716499,53.066488 41.3430735,52.9984341 41.3430735,52.9273898 C41.3430735,52.8563456 41.3716499,52.7882917 41.4223602,52.7385711 L42.586823,51.6596069 C42.6526103,51.5773503 42.7602345,51.5409518 42.8623988,51.5664074 C42.9645632,51.5918629 43.0425666,51.6745129 43.0621296,51.7780357 C43.0816926,51.8815585 43.0392342,51.9870044 42.9534131,52.048034 L41.7889503,53.1269982 C41.7429649,53.1729606 41.6813794,53.1999232 41.6164373,53.2025285 Z" id="路径" fill="#3ECDFF"></path>
                    <path d="M42.7755091,54.3030691 C42.7071515,54.3015764 42.6418023,54.274649 42.592214,54.2275417 L41.4277512,53.1485775 C41.3309338,53.0450426 41.3307505,52.8841704 41.4273317,52.7804148 C41.5239129,52.6766592 41.6842812,52.6654471 41.7943414,52.7547556 L42.9588042,53.8337197 C43.0615418,53.9386068 43.0615418,54.1064702 42.9588042,54.2113572 C42.9114615,54.263981 42.8459841,54.2967427 42.7755091,54.3030691 L42.7755091,54.3030691 Z M35.4329242,53.2025382 C35.3651904,53.2030248 35.2997517,53.1779865 35.2496291,53.132393 L34.0851663,52.0534288 C33.9993453,51.9923992 33.9568869,51.8869533 33.9764498,51.7834305 C33.9960128,51.6799077 34.0740163,51.5972577 34.1761806,51.5718022 C34.278345,51.5463466 34.3859692,51.5827451 34.4517565,51.6650017 L35.6162193,52.7439659 C35.6669295,52.7936865 35.695506,52.8617404 35.695506,52.9327846 C35.695506,53.0038289 35.6669295,53.0718828 35.6162193,53.1216034 C35.5696238,53.1737425 35.5028192,53.2032359 35.4329242,53.2025382 L35.4329242,53.2025382 Z" id="形状" fill="#3ECDFF"></path>
                    <path d="M34.2792435,54.3030691 C34.205742,54.3008823 34.136042,54.2698828 34.0851663,54.216752 C34.0344561,54.1670314 34.0058796,54.0989775 34.0058796,54.0279333 C34.0058796,53.9568891 34.0344561,53.8888352 34.0851663,53.8391146 L35.2496291,52.7601504 C35.3555641,52.6601266 35.5210664,52.6601266 35.6270014,52.7601504 C35.6780309,52.8107987 35.7067343,52.8797434 35.7067343,52.9516665 C35.7067343,53.0235896 35.6780309,53.0925343 35.6270014,53.1431827 L34.4625386,54.2221468 C34.4137847,54.2712294 34.3483375,54.3001235 34.2792435,54.3030691 Z M35.5191807,56.1912565 C35.4488473,56.1916793 35.3811343,56.1645751 35.3304946,56.1157289 C35.2783756,56.0667799 35.2488104,55.9984379 35.2488104,55.9269102 C35.2488104,55.8553825 35.2783756,55.7870405 35.3304946,55.7380915 L41.3468857,49.7174714 C41.4142968,49.650013 41.5125505,49.6236674 41.6046357,49.6483589 C41.6967209,49.6730504 41.7686477,49.7450277 41.7933219,49.8371777 C41.817996,49.9293276 41.791669,50.0276504 41.724258,50.0951089 L35.7078668,56.1373083 C35.6531061,56.1766017 35.5864198,56.1956683 35.5191807,56.1912565 L35.5191807,56.1912565 Z" id="形状" fill="#3ECDFF"></path>
                    <path d="M40.710744,51.0176236 C40.6397156,51.0162322 40.5722409,50.9862704 40.5235511,50.9345012 C40.4748614,50.882732 40.4490612,50.8135195 40.4519745,50.7424874 L40.4951028,49.1240411 C40.4964929,49.0529627 40.5264336,48.9854406 40.5781664,48.9367166 C40.6298993,48.8879927 40.6990631,48.8621744 40.7700454,48.8650897 C40.8415396,48.8665063 40.9095415,48.8962931 40.9590842,48.9478943 C41.008627,48.9994954 41.0356501,49.0686817 41.0342059,49.1402256 L40.9856866,50.7586718 C40.9771134,50.9042704 40.8564925,51.0178758 40.710744,51.0176236 L40.710744,51.0176236 Z" id="路径" fill="#3ECDFF"></path>
                    <path d="M40.705353,51.0230182 C40.5605948,51.023134 40.4415917,50.9088108 40.4358014,50.7640667 C40.4343572,50.6925228 40.4613804,50.6233365 40.5109231,50.5717354 C40.5604659,50.5201342 40.6284678,50.4903474 40.6999619,50.4889308 L42.3172714,50.4403774 C42.3886579,50.4359038 42.4587109,50.461198 42.5107965,50.5102541 C42.562882,50.5593103 42.5923538,50.6277523 42.592214,50.6993288 C42.5951273,50.770361 42.5693271,50.8395735 42.5206374,50.8913427 C42.4719477,50.9431118 42.4044729,50.9730736 42.3334445,50.9744647 L40.716135,51.0230182 L40.705353,51.0230182 Z M34.7428722,55.4359815 C34.5940539,55.4359094 34.4734511,55.3151634 34.4734511,55.1662405 C34.4734511,55.0173176 34.5940539,54.8965715 34.7428722,54.8964994 L36.3601816,54.8479461 C36.5038835,54.8527415 36.6216398,54.9636488 36.6351242,55.1068975 C36.6380417,55.1784525 36.6124048,55.2482314 36.5638642,55.3008541 C36.5153236,55.3534767 36.447864,55.3846231 36.3763547,55.3874281 L34.7590453,55.4305867 L34.7428722,55.4359815 Z" id="形状" fill="#3ECDFF"></path>
                    <path d="M36.3062713,56.9842951 C36.1595147,56.9784478 36.0444481,56.8561037 36.0475018,56.7091593 L36.0960211,55.090713 C36.0959745,54.9943127 36.1473405,54.9052152 36.2307592,54.8570016 C36.3141779,54.8087879 36.4169674,54.8087879 36.5003861,54.8570016 C36.5838048,54.9052152 36.6351709,54.9943127 36.6351243,55.090713 L36.5866049,56.7091593 C36.5898058,56.784019 36.5611099,56.8567212 36.5076534,56.9091866 C36.4541969,56.961652 36.3810022,56.9889511 36.3062713,56.9842951 L36.3062713,56.9842951 Z" id="路径" fill="#3ECDFF"></path>
                </g>
            </g>
        </g>
    </g>
</svg>