<?xml version="1.0" encoding="UTF-8"?>
<svg width="64px" height="64px" viewBox="0 0 64 64" version="1.1" xmlns="http://www.w3.org/2000/svg" xmlns:xlink="http://www.w3.org/1999/xlink">
    <title>中度雾霾</title>
    <g id="页面-1" stroke="none" stroke-width="1" fill="none" fill-rule="evenodd">
        <g id="天气图标" transform="translate(-562.000000, -363.000000)" fill-rule="nonzero">
            <g id="1" transform="translate(66.000000, 363.000000)">
                <g id="中度雾霾" transform="translate(496.000000, 0.000000)">
                    <path d="M16.6038247,43.808894 C7.2946353,43.808894 0,38.6229204 0,32 C0,25.3770796 7.2946353,20.191106 16.6038247,20.191106 C25.913014,20.191106 33.2130648,25.3770796 33.2130648,32 C33.2130648,38.6229204 25.9184295,43.808894 16.6038247,43.808894 Z M16.6038247,24.4749363 C9.93196822,24.4749363 4.29446611,27.9214479 4.29446611,32 C4.29446611,36.0785521 9.93196822,39.5250637 16.6038247,39.5250637 C23.2756811,39.5250637 28.9185987,36.0785521 28.9185987,32 C28.9185987,27.9214479 23.2810966,24.4749363 16.6038247,24.4749363 Z" id="形状" fill="#C1C1C1"></path>
                    <path d="M47.3961753,43.808894 C38.0815705,43.808894 30.7869352,38.6229204 30.7869352,32 C30.7869352,25.3770796 38.0815705,20.191106 47.3961753,20.191106 C56.7107802,20.191106 64,25.3770796 64,32 C64,38.6229204 56.7053647,43.808894 47.3961753,43.808894 L47.3961753,43.808894 Z M47.3961753,24.4749363 C40.7189034,24.4749363 35.0814013,27.9214479 35.0814013,32 C35.0814013,36.0785521 40.7189034,39.5250637 47.3961753,39.5250637 C54.0734473,39.5250637 59.7055339,36.0785521 59.7055339,32 C59.7055339,27.9214479 54.0680318,24.4749363 47.3961753,24.4749363 Z" id="形状" fill="#C1C1C1"></path>
                    <path d="M13.5711626,12.5255889 C13.5710059,13.6064755 14.1489938,14.6053229 15.087367,15.1458114 C16.0257403,15.6862999 17.1819091,15.6862999 18.1202824,15.1458114 C19.0586556,14.6053229 19.6366435,13.6064755 19.6364868,12.5255889 C19.6366435,11.4447022 19.0586556,10.4458548 18.1202824,9.90536636 C17.1819091,9.36487788 16.0257403,9.36487788 15.087367,9.90536636 C14.1489938,10.4458548 13.5710059,11.4447022 13.5711626,12.5255889 L13.5711626,12.5255889 Z" id="路径" fill="#FFBF44"></path>
                    <path d="M44.3635132,12.5255889 C44.3633565,13.6064755 44.9413444,14.6053229 45.8797176,15.1458114 C46.8180909,15.6862999 47.9742597,15.6862999 48.912633,15.1458114 C49.8510062,14.6053229 50.4289941,13.6064755 50.4288374,12.5255889 C50.4289941,11.4447022 49.8510062,10.4458548 48.912633,9.90536636 C47.9742597,9.36487788 46.8180909,9.36487788 45.8797176,9.90536636 C44.9413444,10.4458548 44.3633565,11.4447022 44.3635132,12.5255889 L44.3635132,12.5255889 Z" id="路径" fill="#FFBF44"></path>
                    <path d="M13.5711626,51.4744111 C13.5710059,52.5552978 14.1489938,53.5541452 15.087367,54.0946336 C16.0257403,54.6351221 17.1819091,54.6351221 18.1202824,54.0946336 C19.0586556,53.5541452 19.6366435,52.5552978 19.6364868,51.4744111 C19.6366435,50.3935245 19.0586556,49.3946771 18.1202824,48.8541886 C17.1819091,48.3137001 16.0257403,48.3137001 15.087367,48.8541886 C14.1489938,49.3946771 13.5710059,50.3935245 13.5711626,51.4744111 L13.5711626,51.4744111 Z" id="路径" fill="#FFBF44"></path>
                    <path d="M44.3635132,51.4744111 C44.3633565,52.5552978 44.9413444,53.5541452 45.8797176,54.0946336 C46.8180909,54.6351221 47.9742597,54.6351221 48.912633,54.0946336 C49.8510062,53.5541452 50.4289941,52.5552978 50.4288374,51.4744111 C50.4289941,50.3935245 49.8510062,49.3946771 48.912633,48.8541886 C47.9742597,48.3137001 46.8180909,48.3137001 45.8797176,48.8541886 C44.9413444,49.3946771 44.3633565,50.3935245 44.3635132,51.4744111 L44.3635132,51.4744111 Z" id="路径" fill="#FFBF44"></path>
                </g>
            </g>
        </g>
    </g>
</svg>