<?xml version="1.0" encoding="UTF-8"?>
<svg width="64px" height="64px" viewBox="0 0 64 64" version="1.1" xmlns="http://www.w3.org/2000/svg" xmlns:xlink="http://www.w3.org/1999/xlink">
    <title>多云（夜间）</title>
    <g id="页面-1" stroke="none" stroke-width="1" fill="none" fill-rule="evenodd">
        <g id="天气图标" transform="translate(-190.000000, -473.000000)" fill-rule="nonzero">
            <g id="1" transform="translate(66.000000, 363.000000)">
                <g id="多云（夜间）" transform="translate(124.000000, 110.000000)">
                    <path d="M56.8682431,25.9575664 C51.7185617,25.9573084 46.9376796,23.2923895 44.2388664,18.9178058 C41.5400532,14.5432222 41.3097243,9.08532581 43.6304201,4.5 C37.4799913,6.91148261 33.6715116,13.0912103 34.2913837,19.6537376 C34.9112558,26.2162648 39.8098776,31.5777695 46.303633,32.8010539 C52.7973884,34.0243383 59.3190529,30.8141709 62.2958574,24.9291804 C60.5675971,25.6094002 58.7261901,25.958297 56.8682431,25.9575664 L56.8682431,25.9575664 Z" id="路径" fill="#FFBF44"></path>
                    <path d="M49.8433289,31.2753343 C48.914142,31.2736502 47.9871168,31.3646867 47.0761004,31.5470839 C44.5930454,23.4523389 36.8209344,18.1517725 28.3574698,18.7810098 C19.8940053,19.4102471 12.9956343,25.801527 11.7431862,34.1739973 L11.0700766,34.1739973 L11.0700766,34.2805658 C4.73973797,35.0945307 0,40.4706635 0,46.8369987 C0,53.2033338 4.73973797,58.5794666 11.0700766,59.3934315 L11.0700766,59.5 L49.8433289,59.5 C57.6618425,59.5 64,53.1781149 64,45.3796745 C64,37.5812341 57.6618425,31.259349 49.8433289,31.259349 L49.8433289,31.2753343 Z" id="路径" fill="#FFFFFF"></path>
                </g>
            </g>
        </g>
    </g>
</svg>