<?xml version="1.0" encoding="UTF-8"?>
<svg width="64px" height="64px" viewBox="0 0 64 64" version="1.1" xmlns="http://www.w3.org/2000/svg" xmlns:xlink="http://www.w3.org/1999/xlink">
    <title>沙尘</title>
    <g id="页面-1" stroke="none" stroke-width="1" fill="none" fill-rule="evenodd">
        <g id="天气图标" transform="translate(-314.000000, -363.000000)" fill-rule="nonzero">
            <g id="1" transform="translate(66.000000, 363.000000)">
                <g id="沙尘" transform="translate(248.000000, 0.000000)">
                    <path d="M15.6693334,17.6026781 C15.6693334,18.3449488 16.2710627,18.9466781 17.0133334,18.9466781 C17.7556041,18.9466781 18.3573334,18.3449488 18.3573334,17.6026781 C18.3573334,16.8604074 17.7556041,16.2586781 17.0133334,16.2586781 C16.2710627,16.2586781 15.6693334,16.8604074 15.6693334,17.6026781 L15.6693334,17.6026781 Z" id="路径" fill="#FFBF44"></path>
                    <path d="M4.37333337,27.7253447 C4.37333337,28.6856747 4.88566325,29.5730561 5.71733335,30.0532211 C6.54900346,30.5333861 7.57366329,30.5333861 8.4053334,30.0532211 C9.2370035,29.5730561 9.74933337,28.6856747 9.74933337,27.7253447 C9.74933337,26.2408033 8.54587478,25.0373447 7.06133337,25.0373447 C5.57679197,25.0373447 4.37333337,26.2408033 4.37333337,27.7253447 L4.37333337,27.7253447 Z" id="路径" fill="#FFBF44"></path>
                    <path d="M31.392,18.9466781 C31.392,20.4312195 32.5954586,21.6346781 34.08,21.6346781 C35.5645414,21.6346781 36.768,20.4312195 36.768,18.9466781 C36.768,17.4621367 35.5645414,16.2586781 34.08,16.2586781 C32.5954586,16.2586781 31.392,17.4621367 31.392,18.9466781 Z" id="路径" fill="#FFBF44"></path>
                    <path d="M23.376,7.11734474 C23.376,8.60188615 24.5794586,9.80534474 26.064,9.80534474 C27.5485414,9.80534474 28.752,8.60188615 28.752,7.11734474 C28.752,5.63280334 27.5485414,4.42934474 26.064,4.42934474 C24.5794586,4.42934474 23.376,5.63280334 23.376,7.11734474 Z" id="路径" fill="#FFBF44"></path>
                    <path d="M9.70666669,56.3760114 C9.70666669,57.1182821 10.308396,57.7200114 11.0506667,57.7200114 C11.7929374,57.7200114 12.3946667,57.1182821 12.3946667,56.3760114 C12.3946667,55.8958465 12.1385018,55.4521557 11.7226667,55.2120733 C11.3068316,54.9719908 10.7945017,54.9719908 10.3786667,55.2120733 C9.96283162,55.4521557 9.70666669,55.8958465 9.70666669,56.3760114 L9.70666669,56.3760114 Z" id="路径" fill="#FFBF44"></path>
                    <path d="M25.4293334,57.7200114 C25.4293334,59.2045528 26.632792,60.4080114 28.1173334,60.4080114 C29.6018748,60.4080114 30.8053334,59.2045528 30.8053334,57.7200114 C30.8053334,56.23547 29.6018748,55.0320114 28.1173334,55.0320114 C26.632792,55.0320114 25.4293334,56.23547 25.4293334,57.7200114 Z" id="路径" fill="#FFBF44"></path>
                    <path d="M17.4133334,45.8906781 C17.4133334,47.3752195 18.616792,48.5786781 20.1013334,48.5786781 C21.5858748,48.5786781 22.7893334,47.3752195 22.7893334,45.8906781 C22.7893334,44.4061367 21.5858748,43.2026781 20.1013334,43.2026781 C18.616792,43.2026781 17.4133334,44.4061367 17.4133334,45.8906781 Z" id="路径" fill="#FFBF44"></path>
                    <path d="M42.0533334,38.8453447 L3.904,38.8453447 C2.85244984,38.8453447 2,37.9928949 2,36.9413447 C2,35.8897946 2.85244984,35.0373447 3.904,35.0373447 L42.0533334,35.0373447 C50.6744808,35.0367992 57.6630123,28.0478255 57.6630123,19.4266781 C57.6630123,10.8055307 50.6744808,3.81655693 42.0533334,3.81601143 C41.0394563,3.76237026 40.244876,2.92463987 40.244876,1.90934477 C40.244876,0.894049682 41.0394563,0.0563192875 42.0533334,0.00267811817 C49.0686151,-0.113579537 55.6013306,3.5624687 59.1429616,9.61924529 C62.6845926,15.6760219 62.6845926,23.172001 59.1429616,29.2287776 C55.6013306,35.2855542 49.0686151,38.9616024 42.0533334,38.8453447 L42.0533334,38.8453447 Z" id="路径" fill="#C1C1C1"></path>
                    <path d="M39.072,29.5920114 L19.2266667,29.5920114 C18.1751165,29.5920114 17.3226667,28.7395616 17.3226667,27.6880114 C17.3226667,26.6364613 18.1751165,25.7840114 19.2266667,25.7840114 L39.072,25.7840114 C41.7104118,25.8855826 44.1930587,24.5359178 45.5424607,22.266414 C46.8918627,19.9969101 46.8918627,17.1711128 45.5424607,14.9016089 C44.1930587,12.632105 41.7104118,11.2824403 39.072,11.3840114 C38.0204498,11.3840114 37.168,10.5315616 37.168,9.48001143 C37.168,8.42846127 38.0204498,7.57601143 39.072,7.57601143 C45.1544961,7.57601143 50.0853333,12.5068487 50.0853333,18.5893448 C50.0853333,24.6718408 45.1544961,29.6026781 39.072,29.6026781 L39.072,29.5920114 Z M47.9146667,63.7573447 C46.9007896,63.7037036 46.1062093,62.8659732 46.1062093,61.8506781 C46.1062093,60.835383 46.9007896,59.9976526 47.9146667,59.9440114 C51.7833513,59.7950784 54.8428211,56.6155617 54.8428211,52.7440114 C54.8428211,48.8724611 51.7833513,45.6929445 47.9146667,45.5440114 L28.0693334,45.5440114 C27.0177832,45.5440114 26.1653334,44.6915616 26.1653334,43.6400114 C26.1653334,42.5884613 27.0177832,41.7360114 28.0693334,41.7360114 L47.9146667,41.7360114 C53.9042004,41.8678093 58.6909296,46.7610278 58.6909296,52.7520114 C58.6909296,58.7429951 53.9042004,63.6362136 47.9146667,63.7680114 L47.9146667,63.7573447 Z" id="形状" fill="#C1C1C1"></path>
                </g>
            </g>
        </g>
    </g>
</svg>