<?xml version="1.0" encoding="UTF-8"?>
<svg width="64px" height="64px" viewBox="0 0 64 64" version="1.1" xmlns="http://www.w3.org/2000/svg" xmlns:xlink="http://www.w3.org/1999/xlink">
    <title>小雨</title>
    <g id="页面-1" stroke="none" stroke-width="1" fill="none" fill-rule="evenodd">
        <g id="天气图标" transform="translate(-314.000000, -473.000000)" fill-rule="nonzero">
            <g id="1" transform="translate(66.000000, 363.000000)">
                <g id="小雨" transform="translate(248.000000, 110.000000)">
                    <path d="M49.4258198,18.5166822 C48.5040443,18.5173826 47.5845221,18.608051 46.6802422,18.7874068 C44.2137729,10.7102702 36.503354,5.42248815 28.1077907,6.05047552 C19.7122274,6.6784629 12.868321,13.0549071 11.6225489,21.4097191 L10.977153,21.4097191 L10.977153,21.5158856 C4.70007968,22.3273436 0,27.6901603 0,34.0408773 C0,40.3915943 4.70007968,45.7544109 10.977153,46.565869 L10.977153,46.6720355 L49.4258198,46.6720355 C54.5641808,46.8723925 59.4000257,44.2359082 62.0285824,39.8010572 C64.6571392,35.3662062 64.6571392,29.8437448 62.0285824,25.4088938 C59.4000257,20.9740428 54.5641808,18.3375585 49.4258198,18.5379155 L49.4258198,18.5166822 Z" id="路径" fill="#FFFFFF"></path>
                    <path d="M34.8991221,55.6696455 C34.8991221,56.9566648 33.8593629,58 32.5767549,58 C31.2941469,58 30.2543877,56.9566648 30.2543877,55.6696455 C30.2543877,54.385031 32.5767548,49.4589058 32.5767549,49.4589058 C32.576755,49.4589058 34.8991221,54.385031 34.8991221,55.6696455 Z" id="路径" fill="#3ECDFF"></path>
                </g>
            </g>
        </g>
    </g>
</svg>