<?xml version="1.0" encoding="UTF-8"?>
<svg width="64px" height="64px" viewBox="0 0 64 64" version="1.1" xmlns="http://www.w3.org/2000/svg" xmlns:xlink="http://www.w3.org/1999/xlink">
    <title>暴雨</title>
    <g id="页面-1" stroke="none" stroke-width="1" fill="none" fill-rule="evenodd">
        <g id="天气图标" transform="translate(-686.000000, -473.000000)" fill-rule="nonzero">
            <g id="1" transform="translate(66.000000, 363.000000)">
                <g id="暴雨" transform="translate(620.000000, 110.000000)">
                    <path d="M49.8483918,14.6169018 C48.9189433,14.6175833 47.9918097,14.710192 47.0803505,14.8933935 C44.5778429,6.74440567 36.8142506,1.41708796 28.3649759,2.05104647 C19.9157012,2.68500499 13.0223415,9.11205018 11.7474354,17.5444616 L11.0796589,17.5444616 L11.0796589,17.6528898 C4.74562336,18.4676436 0,23.894366 0,30.3227182 C0,36.7510704 4.74562336,42.1777928 11.0796589,42.9925467 L11.0796589,43.1009748 L49.8537771,43.1009748 C57.6666731,43.1004494 64,36.7242264 64,28.8589383 C64,20.9936502 57.6666731,14.6174271 49.8537771,14.6169018 L49.8483918,14.6169018 Z" id="路径" fill="#FFFFFF"></path>
                    <path d="M35.3134828,54.0034245 C35.3134828,55.8448332 33.8306696,57.3375899 32.0015268,57.3375899 C30.1723841,57.3375899 28.6895709,55.8448332 28.6895709,54.0034245 C28.6895709,52.1655675 32.0015268,45.1231597 32.0015268,45.1231597 C32.0015268,45.1231597 35.3134828,52.1655675 35.3134828,54.0034245 Z M54.3343418,54.0034245 C54.3343418,55.8448332 52.8515286,57.3375898 51.0223859,57.3375898 C49.1932432,57.3375898 47.7104299,55.8448332 47.7104299,54.0034245 C47.7104299,52.1655675 51.0223859,45.1231597 51.0223859,45.1231597 C51.0223859,45.1231597 54.3343418,52.1655675 54.3343418,54.0034245 L54.3343418,54.0034245 Z M16.2926237,54.0034245 C16.2926237,55.8448332 14.8098106,57.3375899 12.9806678,57.3375899 C11.1515251,57.3375899 9.66871189,55.8448332 9.66871189,54.0034245 C9.66871189,52.1655675 12.9806678,45.1231597 12.9806678,45.1231597 C12.9806678,45.1231597 16.2926237,52.1655675 16.2926237,54.0034245 Z M25.8030532,58.6658346 C25.8030532,60.5072433 24.32024,62 22.4910973,62 C20.6619545,62 19.1791414,60.5072433 19.1791414,58.6658346 C19.1791414,56.8225562 22.4910973,49.7855698 22.4910973,49.7855698 C22.4910973,49.7855698 25.8030532,56.8225562 25.8030532,58.6658346 Z M44.8239123,58.6658346 C44.8239123,60.5072433 43.3410991,62 41.5119564,62 C39.6828136,62 38.2000005,60.5072433 38.2000005,58.6658346 C38.2000005,56.8225562 41.5119564,49.7855698 41.5119564,49.7855698 C41.5119564,49.7855698 44.8239123,56.8225562 44.8239123,58.6658346 Z" id="形状" fill="#3ECDFF"></path>
                </g>
            </g>
        </g>
    </g>
</svg>