<?xml version="1.0" encoding="UTF-8"?>
<svg width="64px" height="64px" viewBox="0 0 64 64" version="1.1" xmlns="http://www.w3.org/2000/svg" xmlns:xlink="http://www.w3.org/1999/xlink">
    <title>暴雪</title>
    <g id="页面-1" stroke="none" stroke-width="1" fill="none" fill-rule="evenodd">
        <g id="天气图标" transform="translate(-1182.000000, -473.000000)" fill-rule="nonzero">
            <g id="1" transform="translate(66.000000, 363.000000)">
                <g id="暴雪" transform="translate(1116.000000, 110.000000)">
                    <path d="M49.8528698,15.0076008 C48.9175933,15.0034304 47.9841947,15.0915976 47.0662908,15.270816 C44.5567821,7.1975115 36.7983171,1.92282546 28.3562149,2.55054514 C19.9141126,3.17826482 13.0235478,9.54219191 11.7391403,17.8975963 L11.0828419,17.8975963 L11.0828419,18.005031 C4.74711561,18.8128858 0,24.1969399 0,30.5748998 C0,36.9528596 4.74711561,42.3369137 11.0828419,43.1447686 L11.0828419,43.2522033 L49.8528698,43.2522033 C57.6662668,43.2516825 64,36.9266604 64,29.1245303 C64,21.3224002 57.6662668,14.9973781 49.8528698,14.9968573 L49.8528698,15.0076008 Z" id="路径" fill="#FFFFFF"></path>
                    <path d="M42.8003505,61.5 C42.7141911,61.5 42.6443451,61.4302548 42.6443451,61.3442196 L42.6443451,54.8659026 C42.6582188,54.7922668 42.7226248,54.738925 42.7976607,54.738925 C42.8726967,54.738925 42.9371027,54.7922668 42.9509764,54.8659026 L42.9509764,61.3442196 C42.9510263,61.4281999 42.884402,61.4971041 42.8003505,61.5 L42.8003505,61.5 Z" id="路径" fill="#3ECDFF"></path>
                    <path d="M43.6341724,61.5 C43.5914773,61.5 43.5506479,61.4825269 43.521203,61.4516544 L42.6873811,60.5653175 C42.6584658,60.5370272 42.6421713,60.4983057 42.6421713,60.4578827 C42.6421713,60.4174597 42.6584658,60.3787381 42.6873811,60.3504479 C42.7157121,60.3215743 42.7544896,60.3053034 42.794971,60.3053034 C42.8354524,60.3053034 42.8742298,60.3215743 42.9025609,60.3504479 L43.7417623,61.2367848 C43.7706775,61.265075 43.786972,61.3037966 43.786972,61.3442196 C43.786972,61.3846426 43.7706775,61.4233641 43.7417623,61.4516544 C43.7143638,61.4822434 43.6752703,61.4998102 43.6341724,61.5 L43.6341724,61.5 Z" id="路径" fill="#3ECDFF"></path>
                    <path d="M41.9611491,61.4677696 C41.9233902,61.4695423 41.8865205,61.4559783 41.8589387,61.4301674 C41.8300234,61.4018772 41.813729,61.3631557 41.813729,61.3227327 C41.813729,61.2823096 41.8300234,61.2435881 41.8589387,61.2152979 L42.6981401,60.328961 C42.7336727,60.2858111 42.790228,60.265881 42.8450121,60.2772034 C42.8997962,60.2885258 42.9437828,60.329235 42.9592437,60.3829239 C42.9747045,60.4366127 42.9590924,60.4944353 42.9186994,60.533087 L42.0741185,61.4677696 C42.0377844,61.4818622 41.9974832,61.4818622 41.9611491,61.4677696 L41.9611491,61.4677696 Z M42.8003505,55.9080199 C42.7605915,55.9065411 42.7225729,55.8913556 42.6927605,55.8650461 C42.6638453,55.8367558 42.6475508,55.7980343 42.6475508,55.7576113 C42.6475508,55.7171882 42.6638453,55.6784667 42.6927605,55.6501765 L43.5265825,54.7638396 C43.5869492,54.7162232 43.6730655,54.7196566 43.7294383,54.7719273 C43.7858111,54.824198 43.7956103,54.9097005 43.7525213,54.9733374 L42.9133199,55.8596743 C42.8846834,55.8916888 42.8433162,55.909392 42.8003505,55.9080199 L42.8003505,55.9080199 Z" id="形状" fill="#3ECDFF"></path>
                    <path d="M42.8003505,55.9133917 C42.7573848,55.9147638 42.7160175,55.8970605 42.6873811,55.8650461 L41.8481797,54.9787091 C41.8050907,54.9150723 41.8148899,54.8295698 41.8712627,54.7772991 C41.9276355,54.7250284 42.0137517,54.721595 42.0741185,54.7692113 L42.9079404,55.6555482 C42.9368557,55.6838384 42.9531502,55.72256 42.9531502,55.762983 C42.9531502,55.803406 42.9368557,55.8421276 42.9079404,55.8704178 C42.8783743,55.8971239 42.8402051,55.9123696 42.8003505,55.9133917 L42.8003505,55.9133917 Z M45.0920158,60.5492022 C45.0520614,60.5486717 45.0137248,60.5333591 44.9844259,60.5062284 L40.3957158,55.9241351 C40.3362955,55.8648006 40.3362955,55.7686002 40.3957158,55.7092656 C40.455136,55.649931 40.5514753,55.649931 40.6108956,55.7092656 L45.1996057,60.2913588 C45.228521,60.319649 45.2448155,60.3583705 45.2448155,60.3987936 C45.2448155,60.4392166 45.228521,60.4779382 45.1996057,60.5062284 C45.1697934,60.5325379 45.1317748,60.5477234 45.0920158,60.5492022 L45.0920158,60.5492022 Z" id="形状" fill="#3ECDFF"></path>
                    <path d="M45.6837604,59.958311 L44.4626148,59.9207088 C44.4221544,59.9208198 44.3834813,59.9040734 44.3559108,59.8745033 C44.3283402,59.8449331 44.3143712,59.8052196 44.3173684,59.7649284 C44.3230321,59.683115 44.3912469,59.6196962 44.4733738,59.619891 L45.6945193,59.6521219 C45.7785682,59.6578665 45.8428674,59.729207 45.8397657,59.8132741 C45.8383642,59.8531736 45.8211341,59.8908798 45.7918717,59.9180848 C45.7626093,59.9452898 45.7237157,59.9597614 45.6837604,59.958311 L45.6837604,59.958311 Z" id="路径" fill="#3ECDFF"></path>
                    <path d="M44.4948917,61.1347224 C44.4137597,61.1347735 44.3471634,61.0706482 44.3442659,60.9896849 L44.3066094,59.7703001 C44.3036121,59.7300089 44.3175811,59.6902954 44.3451517,59.6607252 C44.3727223,59.6311551 44.4113953,59.6144087 44.4518558,59.6145191 C44.5271687,59.6145191 44.6078612,59.6789805 44.6132406,59.7595566 L44.6455176,60.9789414 C44.6485148,61.0192326 44.6345458,61.0589461 44.6069753,61.0885163 C44.5794047,61.1180864 44.5407316,61.1348328 44.5002712,61.1347224 L44.4948917,61.1347224 Z M41.1488452,56.5956025 C41.0677132,56.5956542 41.0011168,56.531529 40.9982193,56.4505656 L40.9605628,55.2311808 C40.9575656,55.1908896 40.9715346,55.1511761 40.9991052,55.121606 C41.0266758,55.0920358 41.0653488,55.0752894 41.1058092,55.0753999 C41.1879361,55.0752052 41.2561509,55.138624 41.2618146,55.2204374 L41.2994711,56.4398221 C41.3009236,56.4797198 41.2864311,56.5185573 41.2591868,56.5477775 C41.2319425,56.5769977 41.1941819,56.594203 41.1542247,56.5956025 L41.1488452,56.5956025 Z" id="形状" fill="#3ECDFF"></path>
                    <path d="M41.1488452,56.6009742 L39.9276996,56.5633721 C39.8872392,56.5634831 39.8485661,56.5467367 39.8209956,56.5171665 C39.793425,56.4875964 39.779456,56.4478828 39.7824532,56.4075916 C39.7805959,56.3666568 39.7968349,56.3269726 39.8268689,56.2990502 C39.8569029,56.2711278 39.8977016,56.2577846 39.9384586,56.2625547 L41.1596042,56.2947851 C41.2436531,56.3005297 41.3079522,56.3718702 41.3048506,56.4559373 C41.303449,56.4958368 41.2862189,56.533543 41.2569565,56.560748 C41.2276941,56.587953 41.1888006,56.6024246 41.1488452,56.6009742 L41.1488452,56.6009742 Z M46.0441866,58.2447263 L39.5349964,58.2447263 C39.4612542,58.2308726 39.4078355,58.1665595 39.4078355,58.0916317 C39.4078355,58.016704 39.4612542,57.9523909 39.5349964,57.9385372 L46.0441866,57.9385372 C46.1179288,57.9523909 46.1713476,58.016704 46.1713476,58.0916317 C46.1713476,58.1665595 46.1179288,58.2308726 46.0441866,58.2447263 Z" id="形状" fill="#3ECDFF"></path>
                    <path d="M45.1565698,58.2447263 C45.1138747,58.2447263 45.0730452,58.2272532 45.0436003,58.1963806 C44.9862191,58.1362172 44.9862191,58.0416746 45.0436003,57.9815111 L45.9365967,57.1703786 C45.9649277,57.141505 46.0037052,57.125234 46.0441866,57.125234 C46.084668,57.125234 46.1234455,57.141505 46.1517765,57.1703786 C46.1806918,57.1986688 46.1969863,57.2373903 46.1969863,57.2778133 C46.1969863,57.3182363 46.1806918,57.3569579 46.1517765,57.3852481 L45.2587802,58.2447263 C45.2258353,58.257092 45.1895146,58.257092 45.1565698,58.2447263 L45.1565698,58.2447263 Z" id="路径" fill="#3ECDFF"></path>
                    <path d="M46.0388071,59.093461 C45.999634,59.0939353 45.9615441,59.0806231 45.9312172,59.0558589 L45.0436003,58.2447263 C44.9826946,58.1868751 44.9802861,58.0906747 45.0382209,58.0298568 C45.0961556,57.9690388 45.1924949,57.9666338 45.2534007,58.024485 L46.1410175,58.8571045 C46.1699328,58.8853947 46.1862273,58.9241163 46.1862273,58.9645393 C46.1862273,59.0049623 46.1699328,59.0436839 46.1410175,59.0719741 C46.1107944,59.0915446 46.0743668,59.0992025 46.0388071,59.093461 L46.0388071,59.093461 Z M40.4441312,58.2447263 C40.40571,58.2444649 40.3689577,58.2290126 40.3419208,58.2017524 L39.454304,57.3691329 C39.3919127,57.312765 39.3870957,57.2165647 39.443545,57.1542634 C39.4999942,57.0919621 39.5963335,57.087152 39.6587248,57.1435199 L40.5463416,57.9815111 C40.5752569,58.0098013 40.5915514,58.0485229 40.5915514,58.0889459 C40.5915514,58.1293689 40.5752569,58.1680904 40.5463416,58.1963806 C40.5195266,58.2246946 40.4830578,58.2419443 40.4441312,58.2447263 L40.4441312,58.2447263 Z" id="形状" fill="#3ECDFF"></path>
                    <path d="M39.5618939,59.093461 C39.520796,59.0932712 39.4817024,59.0757045 39.454304,59.0451154 C39.4253887,59.0168252 39.4090942,58.9781036 39.4090942,58.9376806 C39.4090942,58.8972576 39.4253887,58.8585361 39.454304,58.8302459 L40.3419208,57.9976263 C40.4028266,57.9397751 40.4991659,57.9421801 40.5571007,58.0029981 C40.6150354,58.063816 40.6126269,58.1600164 40.5517212,58.2178676 L39.6641043,59.0558589 C39.6352095,59.0794637 39.5992185,59.0927044 39.5618939,59.093461 L39.5618939,59.093461 Z M40.5086852,60.5492177 C40.468518,60.5497769 40.4297849,60.5343061 40.4010952,60.5062284 C40.3707377,60.4787363 40.353424,60.4397172 40.353424,60.3987936 C40.353424,60.35787 40.3707377,60.3188509 40.4010952,60.2913588 L44.9844259,55.7092656 C45.0438461,55.649931 45.1401854,55.649931 45.1996057,55.7092656 C45.259026,55.7686002 45.259026,55.8648005 45.1996057,55.9241351 L40.6108956,60.5062284 C40.5825057,60.5314196 40.5465699,60.5465286 40.5086852,60.5492177 L40.5086852,60.5492177 Z" id="形状" fill="#3ECDFF"></path>
                    <path d="M44.4679942,56.5956025 C44.427096,56.5956286 44.3879454,56.5790467 44.3595377,56.5496669 C44.33113,56.5202871 44.3159077,56.4806353 44.3173684,56.4398221 L44.3550248,55.2204374 C44.3531675,55.1795025 44.3694065,55.1398184 44.3994405,55.111896 C44.4294745,55.0839736 44.4702732,55.0706304 44.5110302,55.0754004 C44.5519285,55.0753744 44.5910791,55.0919562 44.6194868,55.121336 C44.6478945,55.1507159 44.6631168,55.1903676 44.6616561,55.2311808 L44.6239996,56.4505656 C44.6225981,56.4904651 44.605368,56.5281713 44.5761056,56.5553763 C44.5468432,56.5825814 44.5079496,56.5970529 44.4679942,56.5956025 L44.4679942,56.5956025 Z" id="路径" fill="#3ECDFF"></path>
                    <path d="M44.4626148,56.6009747 C44.3804879,56.6011695 44.3122731,56.5377507 44.306609,56.4559373 C44.3064201,56.3709676 44.372332,56.3004495 44.4572353,56.2947851 L45.6730014,56.2625526 C45.7561917,56.2621384 45.8260682,56.3249365 45.8343863,56.4075916 C45.8358469,56.4484048 45.8206247,56.4880566 45.792217,56.5174365 C45.7638093,56.5468163 45.7246586,56.5633981 45.6837604,56.5633721 L44.4679942,56.6009747 L44.4626148,56.6009747 Z M39.9169406,59.9583115 C39.8348138,59.9585062 39.766599,59.8950874 39.7609352,59.8132741 C39.7594746,59.7724608 39.7746968,59.7328091 39.8031045,59.7034292 C39.8315122,59.6740494 39.8706629,59.6574676 39.9115611,59.6574936 L41.1273272,59.6198894 C41.2105176,59.6194752 41.280394,59.6822733 41.2887125,59.7649284 C41.2889014,59.8498981 41.2229895,59.9204161 41.1380862,59.9260806 L39.9223201,59.9583115 L39.9169406,59.9583115 Z" id="形状" fill="#3ECDFF"></path>
                    <path d="M41.1004298,61.1347223 C41.0595315,61.1347479 41.0203808,61.118166 40.9919731,61.0887862 C40.9635654,61.0594064 40.9483432,61.0197546 40.9498038,60.9789414 L40.9874603,59.7595566 C40.9835531,59.718058 40.9991645,59.6771002 41.029715,59.6486976 C41.0602656,59.6202949 41.1022918,59.6076676 41.1434657,59.6145197 C41.1843639,59.6144936 41.2235146,59.6310754 41.2519223,59.6604553 C41.28033,59.6898351 41.2955523,59.7294869 41.2940916,59.7703001 L41.2564351,60.9896849 C41.2507714,61.0714982 41.1825566,61.134917 41.1004298,61.1347223 L41.1004298,61.1347223 Z M22.5088914,61.0058001 C22.4679932,61.0058001 22.4288425,60.9892443 22.4004348,60.9598645 C22.3720271,60.9304846 22.3568048,60.8908329 22.3582655,60.8500196 L22.3582655,54.4039331 C22.3582655,54.3208646 22.425703,54.2535244 22.5088914,54.2535244 C22.5920798,54.2535244 22.6595173,54.3208646 22.6595173,54.4039331 L22.6595173,60.8500196 C22.660978,60.8908328 22.6457557,60.9304846 22.617348,60.9598645 C22.5889403,60.9892443 22.5497897,61.0058001 22.5088914,61.0058001 L22.5088914,61.0058001 Z" id="形状" fill="#3ECDFF"></path>
                    <path d="M23.3427133,61.0058001 C23.3016154,61.0056103 23.2625218,60.9880435 23.2351234,60.9574544 L22.395922,60.0711175 C22.3385407,60.010954 22.3385407,59.9164114 22.395922,59.8562479 C22.4568384,59.7954556 22.5555649,59.7954556 22.6164813,59.8562479 L23.4503032,60.7425848 C23.4792185,60.770875 23.495513,60.8095966 23.495513,60.8500196 C23.495513,60.8904426 23.4792185,60.9291642 23.4503032,60.9574544 C23.4212626,60.9857217 23.38316,61.0028431 23.3427133,61.0058001 L23.3427133,61.0058001 Z" id="路径" fill="#3ECDFF"></path>
                    <path d="M21.6696901,60.9950566 C21.6319312,60.9968293 21.5950614,60.9832654 21.5674796,60.9574544 C21.5385643,60.9291642 21.5222698,60.8904426 21.5222698,60.8500196 C21.5222698,60.8095966 21.5385643,60.770875 21.5674796,60.7425848 L22.395922,59.8562479 C22.4324383,59.815946 22.4877126,59.7981587 22.5409236,59.8095861 C22.5941346,59.8210136 22.6371983,59.8599198 22.653893,59.9116492 C22.6705877,59.9633786 22.6583771,60.0200721 22.6218609,60.060374 L21.7826595,60.9305957 C21.7548983,60.966013 21.7143416,60.9891548 21.6696901,60.9950566 L21.6696901,60.9950566 Z M22.5088914,55.41382 C22.4691324,55.4123412 22.4311139,55.3971557 22.4013015,55.3708461 C22.3439202,55.3106826 22.3439202,55.21614 22.4013015,55.1559765 L23.2405029,54.2696396 C23.2984376,54.2088217 23.3947769,54.2064167 23.4556827,54.2642679 C23.5165885,54.3221191 23.518997,54.4183195 23.4610622,54.4791374 L22.6272403,55.3654743 C22.5961396,55.3971737 22.5533245,55.4146637 22.5088914,55.41382 L22.5088914,55.41382 Z" id="形状" fill="#3ECDFF"></path>
                    <path d="M22.5088914,55.4191917 C22.4661964,55.4191917 22.4253669,55.4017186 22.395922,55.3708461 L21.5621001,54.4845092 C21.5041654,54.4236912 21.5065738,54.3274908 21.5674796,54.2696396 C21.6283854,54.2117884 21.7247247,54.2141934 21.7826595,54.2750113 L22.6218609,55.1613482 C22.6507761,55.1896385 22.6670706,55.22836 22.6670706,55.268783 C22.6670706,55.309206 22.6507761,55.3479276 22.6218609,55.3762178 C22.5936616,55.4083493 22.5513526,55.4244437 22.5088914,55.4191917 L22.5088914,55.4191917 Z M24.8005568,60.0550023 C24.7607977,60.0535235 24.7227792,60.038338 24.6929668,60.0120284 L20.1096362,55.4299352 C20.0792786,55.4024431 20.061965,55.363424 20.061965,55.3225004 C20.061965,55.2815768 20.0792786,55.2425577 20.1096362,55.2150656 C20.1379672,55.186192 20.1767447,55.1699211 20.2172261,55.1699211 C20.2577075,55.1699211 20.2964849,55.186192 20.324816,55.2150656 L24.9081466,59.7971588 C24.9370619,59.8254491 24.9533564,59.8641706 24.9533564,59.9045936 C24.9533564,59.9450166 24.9370619,59.9837382 24.9081466,60.0120284 C24.8788477,60.0391591 24.8405111,60.0544717 24.8005568,60.0550023 L24.8005568,60.0550023 Z" id="形状" fill="#3ECDFF"></path>
                    <path d="M25.3923013,59.464111 L24.1765352,59.4265089 C24.135637,59.4265349 24.0964863,59.4099531 24.0680786,59.3805733 C24.0396709,59.3511934 24.0244487,59.3115416 24.0259093,59.2707284 C24.031573,59.188915 24.0997878,59.1254963 24.1819147,59.125691 L25.4030603,59.1632936 C25.4435207,59.1631826 25.4821937,59.179929 25.5097643,59.2094992 C25.5373349,59.2390693 25.5513039,59.2787829 25.5483067,59.3190741 C25.5469052,59.3589736 25.5296751,59.3966798 25.5004126,59.4238848 C25.4711502,59.4510899 25.4322566,59.4655614 25.3923013,59.464111 L25.3923013,59.464111 Z" id="路径" fill="#3ECDFF"></path>
                    <path d="M24.2034327,60.6405218 C24.1223006,60.6405735 24.0557043,60.5764483 24.0528068,60.4954849 L24.0151503,59.2761001 C24.0136897,59.2352869 24.0289119,59.1956352 24.0573196,59.1662554 C24.0857273,59.1368755 24.124878,59.1202937 24.1657762,59.1203197 C24.2469083,59.120268 24.3135046,59.1843933 24.3164021,59.2653567 L24.3540586,60.4847414 C24.3555192,60.5255546 24.340297,60.5652064 24.3118893,60.5945862 C24.2834816,60.623966 24.2443309,60.6405479 24.2034327,60.6405218 L24.2034327,60.6405218 Z M20.8412476,56.0960308 C20.7601156,56.0960825 20.6935193,56.0319572 20.6906218,55.9509938 L20.6529653,54.7316091 C20.6515047,54.6907959 20.6667269,54.6511442 20.6951346,54.6217643 C20.7235423,54.5923845 20.7626929,54.5758027 20.8035912,54.5758287 C20.8439406,54.5728358 20.8837115,54.5867847 20.9133243,54.6143155 C20.9429372,54.6418463 20.9597077,54.6804636 20.9595966,54.7208657 L20.997253,55.9402504 C20.9987137,55.9810636 20.9834914,56.0207153 20.9550837,56.0500952 C20.9266761,56.079475 20.8875254,56.0960569 20.8466272,56.0960308 L20.8412476,56.0960308 Z" id="形状" fill="#3ECDFF"></path>
                    <path d="M20.8466272,56.0960308 L19.630861,56.0960308 C19.5476726,56.0960308 19.4802351,56.0286905 19.4802351,55.9456221 C19.4802351,55.8625537 19.5476726,55.7952134 19.630861,55.7952134 L20.8520066,55.8274438 C20.8929492,55.8287987 20.931573,55.8467468 20.9589772,55.8771519 C20.9863813,55.907557 21.0002016,55.9477962 20.997253,55.988596 C20.9776035,56.0546234 20.9155485,56.0988845 20.8466272,56.0960308 L20.8466272,56.0960308 Z M25.7527276,57.7666416 L19.2650553,57.7666416 C19.1913131,57.7527879 19.1378944,57.6884748 19.1378944,57.613547 C19.1378944,57.5386193 19.1913131,57.4743062 19.2650553,57.4604525 L25.7527276,57.4604525 C25.8143517,57.4488754 25.8769285,57.4752665 25.911585,57.527449 C25.9462415,57.5796315 25.9462415,57.6474626 25.911585,57.6996451 C25.8769285,57.7518276 25.8143517,57.7782187 25.7527276,57.7666416 L25.7527276,57.7666416 Z" id="形状" fill="#3ECDFF"></path>
                    <path d="M24.8651107,57.7666416 C24.8240128,57.7664518 24.7849192,57.748885 24.7575208,57.7182959 C24.7286055,57.6900057 24.712311,57.6512842 24.712311,57.6108611 C24.712311,57.5704381 24.7286055,57.5317166 24.7575208,57.5034263 L25.6451376,56.6708069 C25.6734687,56.6419333 25.7122461,56.6256623 25.7527275,56.6256623 C25.7932089,56.6256623 25.8319864,56.6419333 25.8603174,56.6708069 C25.8892327,56.6990971 25.9055272,56.7378186 25.9055272,56.7782416 C25.9055272,56.8186646 25.8892327,56.8573862 25.8603174,56.8856764 L24.9727006,57.7075524 C24.9453306,57.7397855 24.9070287,57.7608212 24.8651107,57.7666416 L24.8651107,57.7666416 Z" id="路径" fill="#3ECDFF"></path>
                    <path d="M25.747348,58.5992611 C25.7095891,58.6010338 25.6727194,58.5874698 25.6451376,58.5616589 L24.7575208,57.7075524 C24.7143089,57.6720709 24.6943503,57.6155973 24.7056891,57.5608925 C24.7170278,57.5061876 24.7577958,57.4622645 24.8115619,57.4468259 C24.8653281,57.4313873 24.9232341,57.4469767 24.9619416,57.4873111 L25.8495585,58.3199307 C25.9076341,58.381892 25.9076341,58.4782106 25.8495585,58.540172 C25.8229693,58.5706127 25.7870244,58.5913929 25.747348,58.5992611 L25.747348,58.5992611 Z M20.1688107,57.7666416 C20.1303894,57.7663802 20.0936371,57.7509279 20.0666002,57.7236677 L19.1789834,56.8910481 C19.1500681,56.8627579 19.1337736,56.8240364 19.1337736,56.7836134 C19.1337736,56.7431903 19.1500681,56.7044688 19.1789834,56.6761786 C19.2065152,56.6458648 19.2455906,56.6285761 19.2865733,56.6285761 C19.327556,56.6285761 19.3666314,56.6458648 19.3941632,56.6761786 L20.2817801,57.5087981 C20.3106954,57.5370883 20.3269898,57.5758099 20.3269898,57.6162329 C20.3269898,57.6566559 20.3106954,57.6953774 20.2817801,57.7236677 C20.2514381,57.7525713 20.2107207,57.7680603 20.1688107,57.7666416 L20.1688107,57.7666416 Z" id="形状" fill="#3ECDFF"></path>
                    <path d="M19.2758143,58.5992669 C19.2341934,58.5990448 19.1940604,58.5837781 19.1628449,58.5562872 C19.1047692,58.4943258 19.1047692,58.3980072 19.1628449,58.3360459 L20.0504617,57.5034263 C20.0787928,57.4745527 20.1175703,57.4582818 20.1580517,57.4582818 C20.198533,57.4582818 20.2373105,57.4745527 20.2656416,57.5034263 C20.2959992,57.5309184 20.3133128,57.5699375 20.3133128,57.6108611 C20.3133128,57.6517847 20.2959992,57.6908038 20.2656416,57.7182959 L19.3780247,58.5562872 C19.3513404,58.5840638 19.3143591,58.5996124 19.2758143,58.5992669 L19.2758143,58.5992669 Z M20.2172261,60.0550023 C20.1768275,60.0568837 20.1375909,60.0412117 20.1096362,60.0120284 C20.0807209,59.9837382 20.0644265,59.9450166 20.0644265,59.9045936 C20.0644265,59.8641706 20.0807209,59.8254491 20.1096362,59.7971588 L24.6983463,55.2150656 C24.7577666,55.155731 24.8541059,55.155731 24.9135262,55.2150656 C24.9729465,55.2744002 24.9729465,55.3706006 24.9135262,55.4299352 L20.324816,60.0120284 C20.2968613,60.0412117 20.2576247,60.0568837 20.2172261,60.0550023 L20.2172261,60.0550023 Z" id="形状" fill="#3ECDFF"></path>
                    <path d="M24.1765352,56.0960313 C24.1360748,56.0961418 24.0974017,56.0793954 24.0698312,56.0498253 C24.0422606,56.0202551 24.0282916,55.9805416 24.0312888,55.9402504 L24.0635658,54.7208657 C24.0692295,54.6390523 24.1374443,54.5756335 24.2195712,54.5758282 C24.2600316,54.5757177 24.2987046,54.5924641 24.3262752,54.6220343 C24.3538458,54.6516044 24.3678148,54.6913179 24.3648176,54.7316091 L24.3271611,55.9509938 C24.3242635,56.0319572 24.2576672,56.0960825 24.1765352,56.0960313 L24.1765352,56.0960313 Z" id="路径" fill="#3ECDFF"></path>
                    <path d="M24.1711557,56.0960308 C24.0900236,56.0960825 24.0234273,56.0319573 24.0205298,55.9509938 C24.0175325,55.9107026 24.0315016,55.8709891 24.0590721,55.8414189 C24.0866427,55.8118488 24.1253158,55.7951024 24.1657762,55.7952134 L25.3869218,55.7576108 C25.4690487,55.757416 25.5372635,55.8208348 25.5429272,55.9026482 C25.5459244,55.9429394 25.5319554,55.982653 25.5043849,56.0122231 C25.4768143,56.0417933 25.4381412,56.0585397 25.3976808,56.0584286 L24.1765352,56.0960308 L24.1711557,56.0960308 Z M19.630861,59.4641111 C19.549729,59.4641627 19.4831327,59.4000375 19.4802351,59.3190741 C19.4772379,59.2787829 19.4912069,59.2390693 19.5187775,59.2094992 C19.5463481,59.179929 19.5850211,59.1631826 19.6254815,59.1632936 L20.8466272,59.1256915 C20.9277527,59.1279899 20.9945493,59.1900902 21.0026346,59.2707284 C21.0030494,59.3537988 20.9401606,59.4235745 20.8573861,59.4318806 L19.6362406,59.4641111 L19.630861,59.4641111 Z" id="形状" fill="#3ECDFF"></path>
                    <path d="M20.8143502,60.6405218 C20.7738898,60.6406212 20.7352167,60.6238864 20.7076462,60.5943163 C20.6800756,60.5647461 20.6661066,60.5250326 20.6691038,60.4847414 L20.7013808,59.2707284 C20.709489,59.1871246 20.7786814,59.1226381 20.8627657,59.1203198 C20.9446972,59.1259753 21.0082075,59.1940917 21.0080125,59.2761001 L20.9703555,60.4954849 C20.968954,60.5353844 20.9517239,60.5730906 20.9224615,60.6002956 C20.8931991,60.6275006 20.8543055,60.6419722 20.8143502,60.6405218 L20.8143502,60.6405218 Z M12.9549065,55.7147022 C12.8084608,55.7117121 12.6912819,55.5923142 12.6913111,55.4460504 L12.6913111,46.9640748 C12.6913111,46.8157383 12.8117353,46.6954879 12.9602859,46.6954879 C13.1088366,46.6954879 13.2292608,46.8157383 13.2292608,46.9640748 L13.2292608,55.4621656 C13.2206206,55.6062728 13.0994458,55.7177827 12.9549065,55.7147022 Z" id="形状" fill="#3ECDFF"></path>
                    <path d="M14.0523237,55.7146373 C13.9789795,55.7124599 13.9094286,55.6815929 13.8586618,55.6286895 L12.7827626,54.4683939 C12.7007396,54.4028421 12.6644445,54.295603 12.6898278,54.1938043 C12.715211,54.0920055 12.7976262,54.0142812 12.9008549,53.9947883 C13.0040836,53.9752953 13.10923,54.0176018 13.1700863,54.1031157 L14.2459855,55.2634113 C14.2965873,55.3129191 14.3251026,55.3806819 14.3251026,55.4514221 C14.3251026,55.5221624 14.2965873,55.5899252 14.2459855,55.639433 C14.1938029,55.6888864 14.1242552,55.7158937 14.0523237,55.7146373 L14.0523237,55.7146373 Z" id="路径" fill="#3ECDFF"></path>
                    <path d="M11.8574893,55.7038939 C11.789278,55.7024075 11.7240686,55.6755953 11.6745864,55.6286895 C11.6239846,55.5791817 11.5954694,55.5114189 11.5954694,55.4406787 C11.5954694,55.3699384 11.6239846,55.3021757 11.6745864,55.2526678 L12.7504856,54.0923722 C12.8589276,53.9751864 13.0419722,53.9679714 13.1593273,54.076257 C13.2766823,54.1845427 13.2839078,54.3673234 13.1754658,54.4845092 L12.0995666,55.6448047 C12.0354196,55.7065972 11.9429501,55.7291683 11.8574893,55.7038939 L11.8574893,55.7038939 Z M12.9549065,48.3768422 C12.8873176,48.3773391 12.8220188,48.352408 12.7720036,48.3070096 C12.7214018,48.2575017 12.6928865,48.189739 12.6928865,48.1189987 C12.6928865,48.0482584 12.7214018,47.9804957 12.7720036,47.9309878 L13.8479028,46.7653205 C13.952639,46.6816165 14.1031294,46.6877725 14.2006584,46.7797504 C14.2981874,46.8717282 14.3129346,47.021405 14.2352265,47.1305988 L13.1593273,48.2962661 C13.106184,48.3515614 13.0315448,48.3809817 12.9549065,48.3768422 L12.9549065,48.3768422 Z" id="形状" fill="#3ECDFF"></path>
                    <path d="M12.9549065,48.3875857 C12.8810103,48.3879276 12.8105085,48.3566386 12.7612446,48.3016378 L11.6853454,47.1413422 C11.6033223,47.0757903 11.5670272,46.9685513 11.5924105,46.8667525 C11.6177937,46.7649537 11.7002089,46.6872294 11.8034377,46.6677364 C11.9066664,46.6482435 12.0118129,46.6905501 12.0726691,46.776064 L13.1485683,47.9363596 C13.1994886,47.9867913 13.2281306,48.055441 13.2281306,48.1270563 C13.2281306,48.1986716 13.1994886,48.2673213 13.1485683,48.317753 C13.0965027,48.366836 13.0263645,48.3921272 12.9549065,48.3875857 L12.9549065,48.3875857 Z M15.9620447,54.4845092 C15.8910974,54.4835001 15.8234233,54.4545387 15.7737624,54.4039331 L9.75948582,48.3822139 C9.70747836,48.3334743 9.67797644,48.2654247 9.67797644,48.194203 C9.67797644,48.1229813 9.70747836,48.0549318 9.75948582,48.0061922 C9.86407493,47.9038222 10.0314614,47.9038222 10.1360505,48.0061922 L16.1503271,54.0117962 C16.2023346,54.0605357 16.2318365,54.1285853 16.2318365,54.199807 C16.2318365,54.2710287 16.2023346,54.3390783 16.1503271,54.3878179 C16.1047531,54.4459996 16.0359486,54.4813337 15.9620447,54.4845092 L15.9620447,54.4845092 Z" id="形状" fill="#3ECDFF"></path>
                    <path d="M16.7420716,53.6948636 L15.1282228,53.6465179 C14.979723,53.6464461 14.8593782,53.5262167 14.8593782,53.377931 C14.8593782,53.2296453 14.979723,53.1094158 15.1282228,53.1093441 L16.7420716,53.1576897 C16.8129481,53.1590748 16.8802785,53.1889084 16.928864,53.2404561 C16.9774495,53.2920038 17.0031945,53.3609201 17.0002875,53.4316484 C16.9975526,53.5738037 16.8843456,53.6892025 16.7420716,53.6948636 L16.7420716,53.6948636 Z" id="路径" fill="#3ECDFF"></path>
                    <path d="M15.1820178,55.2365527 C15.0375693,55.236668 14.9188209,55.122834 14.913043,54.9787091 L14.870007,53.3671875 C14.8655461,53.2960564 14.8907685,53.2262541 14.9396852,53.174355 C14.988602,53.1224559 15.0568496,53.0930895 15.1282228,53.0932288 C15.1990532,53.090326 15.2680691,53.1160338 15.3196912,53.1645493 C15.3713133,53.2130648 15.40119,53.280298 15.4025771,53.3510723 L15.4509927,54.9625939 C15.451106,55.1097989 15.3347015,55.2307799 15.1873973,55.2365527 L15.1820178,55.2365527 Z M10.770831,49.2846661 C10.6263826,49.2847814 10.5076342,49.1709473 10.5018563,49.0268225 L10.4534407,47.4153009 C10.4533274,47.2680959 10.5697319,47.1471149 10.7170361,47.1413422 C10.8594723,47.1483913 10.9757195,47.2576427 10.9913904,47.3991857 L11.0398059,49.0107073 C11.0399193,49.1579123 10.9235148,49.2788933 10.7762106,49.2846661 L10.770831,49.2846661 Z" id="形状" fill="#3ECDFF"></path>
                    <path d="M10.7762106,49.2900378 L9.16236176,49.2416921 C9.01381107,49.2416921 8.89338694,49.1214416 8.89338694,48.9731052 C8.89338694,48.8247687 9.01381107,48.7045182 9.16236176,48.7045182 L10.7762106,48.7528638 C10.847087,48.7542489 10.9144174,48.7840826 10.9630029,48.8356302 C11.0115884,48.8871779 11.0373334,48.9560943 11.0344264,49.0268225 C11.0316916,49.1689779 10.9184846,49.2843767 10.7762106,49.2900378 L10.7762106,49.2900378 Z M17.2154673,51.465592 L8.70510456,51.465592 C8.6090091,51.465592 8.52021322,51.4143996 8.47216549,51.3312985 C8.42411776,51.2481974 8.42411776,51.1458126 8.47216549,51.0627115 C8.52021322,50.9796104 8.6090091,50.9284181 8.70510456,50.9284181 L17.2154673,50.9284181 C17.364018,50.9284181 17.4844421,51.0486686 17.4844421,51.197005 C17.4844421,51.3453415 17.364018,51.465592 17.2154673,51.465592 L17.2154673,51.465592 Z" id="形状" fill="#3ECDFF"></path>
                    <path d="M16.0481167,51.4655948 C15.9742205,51.4659339 15.9037186,51.434645 15.8544548,51.3796441 C15.8038531,51.3301362 15.7753378,51.2623735 15.7753378,51.1916333 C15.7753378,51.120893 15.8038531,51.0531303 15.8544548,51.0036224 L17.0218055,49.9292746 C17.1316302,49.8403483 17.2916553,49.8515124 17.3880299,49.9548241 C17.4844044,50.0581359 17.4842214,50.2183197 17.3876112,50.3214116 L16.2202605,51.3957593 C16.1735448,51.4395601 16.1121878,51.4644505 16.0481167,51.4655948 L16.0481167,51.4655948 Z" id="路径" fill="#3ECDFF"></path>
                    <path d="M17.2047083,52.5614267 C17.1369236,52.5630312 17.0712267,52.537948 17.0218055,52.491594 L15.8598343,51.4172463 C15.7737549,51.3575221 15.7302616,51.2533044 15.7483939,51.1502147 C15.7665262,51.0471251 15.8429807,50.963944 15.9442893,50.9370842 C16.045598,50.9102244 16.1533046,50.944579 16.2202605,51.0251094 L17.3876112,52.0994571 C17.4382129,52.148965 17.4667282,52.2167277 17.4667282,52.287468 C17.4667282,52.3582082 17.4382129,52.425971 17.3876112,52.4754788 C17.3408737,52.5277576 17.2748394,52.5587877 17.2047083,52.5614267 L17.2047083,52.5614267 Z M9.8670757,51.465592 C9.79948686,51.4660889 9.73418811,51.4411577 9.68417286,51.3957593 L8.52220171,50.3214116 C8.47159997,50.2719037 8.44308466,50.204141 8.44308466,50.1334007 C8.44308466,50.0626605 8.47159997,49.9948977 8.52220171,49.9453899 C8.62679082,49.8430199 8.79417731,49.8430199 8.89876642,49.9453899 L10.0607376,51.0197376 C10.1113393,51.0692455 10.1398546,51.1370082 10.1398546,51.2077485 C10.1398546,51.2784887 10.1113393,51.3462515 10.0607376,51.3957593 C10.0098085,51.446657 9.93882046,51.4722547 9.8670757,51.465592 Z" id="形状" fill="#3ECDFF"></path>
                    <path d="M8.71586357,52.5614267 C8.64024077,52.562618 8.56774879,52.5313153 8.51682224,52.4754788 C8.41430443,52.3710405 8.41430443,52.2038954 8.51682224,52.0994571 L9.67879338,51.0251094 C9.78861808,50.936183 9.94864325,50.9473471 10.0450178,51.0506588 C10.1413923,51.1539706 10.1412093,51.3141544 10.0445991,51.4172463 L8.88262793,52.491594 C8.8367767,52.5333925 8.77785679,52.5580652 8.71586357,52.5614267 L8.71586357,52.5614267 Z M9.94776814,54.4845092 C9.87799815,54.4828394 9.8111621,54.4561436 9.75948582,54.4093048 C9.65696802,54.3048665 9.65696802,54.1377214 9.75948582,54.0332831 L15.7791419,48.0061922 C15.8831274,47.9023567 16.0517211,47.9023567 16.1557066,48.0061922 C16.2596921,48.1100277 16.2596921,48.2783783 16.1557066,48.3822139 L10.14143,54.3931896 C10.0908795,54.4471479 10.0216134,54.4798097 9.94776814,54.4845092 L9.94776814,54.4845092 Z" id="形状" fill="#3ECDFF"></path>
                    <path d="M15.1443613,49.284666 C14.9979187,49.2788437 14.8830983,49.157023 14.8861455,49.0107073 L14.934561,47.3991857 C14.940342,47.2520939 15.0614977,47.1358573 15.2089153,47.1359704 C15.3553579,47.1417928 15.4701783,47.2636135 15.4671311,47.4099292 L15.4187156,49.0214508 C15.4203649,49.0936491 15.3916169,49.1632291 15.3394656,49.213263 C15.2873143,49.2632969 15.2165401,49.2891983 15.1443613,49.284666 L15.1443613,49.284666 Z" id="路径" fill="#3ECDFF"></path>
                    <path d="M15.1389818,49.2900378 C14.9904312,49.2900378 14.870007,49.1697873 14.870007,49.0214508 C14.870007,48.8731143 14.9904312,48.7528638 15.1389818,48.7528638 L16.7528307,48.7045182 C16.8952669,48.7115672 17.0115141,48.8208187 17.027185,48.9623617 C17.028626,49.0335994 17.0016607,49.1024897 16.952224,49.1538701 C16.9027873,49.2052504 16.8349309,49.2349098 16.7635897,49.2363203 L15.1497409,49.284666 L15.1389818,49.2900378 Z M9.17312071,53.6948636 C9.02462089,53.6947918 8.90427611,53.5745623 8.90427611,53.4262766 C8.90427611,53.2779909 9.02462089,53.1577615 9.17312071,53.1576897 L10.7869695,53.1093441 C10.8577999,53.1064412 10.9268158,53.1321491 10.9784379,53.1806645 C11.03006,53.22918 11.0599367,53.2964133 11.0613238,53.3671875 C11.064371,53.5135032 10.9495507,53.6353239 10.803108,53.6411462 L9.1892592,53.6894918 L9.17312071,53.6948636 Z" id="形状" fill="#3ECDFF"></path>
                    <path d="M10.7331746,55.2365526 C10.6622981,55.2351675 10.5949678,55.2053339 10.5463822,55.1537862 C10.4977967,55.1022385 10.4720517,55.0333222 10.4749588,54.9625939 L10.5233742,53.3510723 C10.5292049,53.2048408 10.6512015,53.090186 10.7977285,53.0932288 C10.8713294,53.1021326 10.9377725,53.1415753 10.980768,53.2018867 C11.0237635,53.262198 11.0393359,53.3378015 11.0236674,53.4101614 L10.9752519,55.021683 C10.9551656,55.1412195 10.8544131,55.2306482 10.7331746,55.2365526 L10.7331746,55.2365526 Z M33.2033295,55.7147022 C33.0568839,55.711712 32.939705,55.5923141 32.9397342,55.4460504 L32.9397342,46.9640748 C32.9398061,46.8157891 33.0602092,46.6956179 33.208709,46.6956179 C33.3572089,46.6956179 33.4776119,46.8157891 33.4776838,46.9640748 L33.4776838,55.4621656 C33.4690437,55.6062728 33.3478689,55.7177827 33.2033295,55.7147022 L33.2033295,55.7147022 Z" id="形状" fill="#3ECDFF"></path>
                    <path d="M34.3007467,55.7146373 C34.2274025,55.7124599 34.1578517,55.6815929 34.1070849,55.6286895 L33.0311857,54.4683939 C32.9491627,54.4028421 32.9128677,54.295603 32.9382509,54.1938043 C32.9636342,54.0920055 33.0460493,54.0142812 33.149278,53.9947883 C33.2525067,53.9752953 33.3576532,54.0176018 33.4185094,54.1031157 L34.4944086,55.2634113 C34.5667121,55.3412421 34.586321,55.4542968 34.5444413,55.5518751 C34.5025617,55.6494534 34.4070529,55.7132432 34.3007467,55.7146373 Z" id="路径" fill="#3ECDFF"></path>
                    <path d="M32.1059123,55.7038939 C32.037701,55.7024075 31.9724917,55.6755953 31.9230095,55.6286895 C31.8724078,55.5791817 31.8438925,55.5114189 31.8438925,55.4406787 C31.8438925,55.3699384 31.8724078,55.3021757 31.9230095,55.2526678 L32.9989087,54.0923722 C33.0597649,54.0068583 33.1649114,53.9645517 33.2681401,53.9840447 C33.3713689,54.0035376 33.4537841,54.0812619 33.4791673,54.1830607 C33.5045506,54.2848595 33.4682555,54.3920986 33.3862324,54.4576504 L32.3103332,55.617946 C32.2595864,55.6771926 32.1838153,55.7090502 32.1059123,55.7038939 L32.1059123,55.7038939 Z M33.2033295,48.3768422 C33.1357407,48.3773391 33.0704419,48.352408 33.0204267,48.3070096 C32.9698249,48.2575017 32.9413096,48.189739 32.9413096,48.1189987 C32.9413096,48.0482584 32.9698249,47.9804957 33.0204267,47.9309878 L34.0963259,46.7653205 C34.2010621,46.6816165 34.3515525,46.6877725 34.4490815,46.7797504 C34.5466105,46.8717282 34.5613577,47.021405 34.4836496,47.1305988 L33.4077504,48.2962661 C33.3538305,48.3503944 33.2797368,48.3795998 33.2033295,48.3768422 Z" id="形状" fill="#3ECDFF"></path>
                    <path d="M33.2033295,48.3875857 C33.1294334,48.3879276 33.0589315,48.3566386 33.0096677,48.3016378 L31.9337685,47.1413422 C31.8560605,47.0321485 31.8708078,46.8824718 31.9683367,46.7904939 C32.0658657,46.6985161 32.216356,46.6923601 32.3210922,46.776064 L33.3969914,47.9363596 C33.4479117,47.9867913 33.4765537,48.055441 33.4765537,48.1270563 C33.4765537,48.1986716 33.4479117,48.2673213 33.3969914,48.317753 C33.3449258,48.366836 33.2747875,48.3921272 33.2033295,48.3875857 L33.2033295,48.3875857 Z M36.2104679,54.4845092 C36.1395206,54.4835001 36.0718464,54.4545387 36.0221855,54.4039331 L30.0079089,48.3822139 C29.9559014,48.3334743 29.9263995,48.2654247 29.9263995,48.194203 C29.9263995,48.1229813 29.9559014,48.0549318 30.0079089,48.0061922 C30.112498,47.9038222 30.2798845,47.9038222 30.3844736,48.0061922 L36.3987502,54.0117962 C36.4507576,54.0605357 36.4802596,54.1285853 36.4802596,54.199807 C36.4802596,54.2710287 36.4507576,54.3390783 36.3987502,54.3878179 C36.3531761,54.4459996 36.2843717,54.4813337 36.2104679,54.4845092 L36.2104679,54.4845092 Z" id="形状" fill="#3ECDFF"></path>
                    <path d="M36.9904948,53.6948636 L35.376646,53.6465179 C35.3057695,53.6451328 35.2384391,53.6152992 35.1898536,53.5637515 C35.1412681,53.5122038 35.1155231,53.4432875 35.1184301,53.3725592 C35.1166374,53.3007766 35.1455389,53.2316275 35.1979028,53.1824149 C35.2502667,53.1332023 35.3211386,53.1085824 35.3927844,53.1147158 L37.0066333,53.1630614 C37.0775097,53.1644465 37.1448401,53.1942801 37.1934256,53.2458278 C37.2420111,53.2973755 37.2677561,53.3662918 37.2648491,53.4370201 C37.2590184,53.5832516 37.1370218,53.6979064 36.9904948,53.6948636 L36.9904948,53.6948636 Z" id="路径" fill="#3ECDFF"></path>
                    <path d="M35.4304409,55.2365527 C35.2859924,55.236668 35.167244,55.1228339 35.1614661,54.9787091 L35.1130507,53.3671875 C35.1116096,53.2959498 35.1385749,53.2270595 35.1880116,53.1756791 C35.2374483,53.1242987 35.3053047,53.0946394 35.376646,53.0932288 C35.4478797,53.0887743 35.5177829,53.1139603 35.5697569,53.1628066 C35.621731,53.2116528 35.6511398,53.279802 35.6510002,53.3510723 L35.6994158,54.9625939 C35.6995291,55.1097989 35.5831247,55.2307799 35.4358204,55.2365527 L35.4304409,55.2365527 Z M31.0192542,49.2846661 C30.8748057,49.2847814 30.7560572,49.1709473 30.7502793,49.0268225 L30.7018638,47.4153009 C30.7017505,47.2680959 30.818155,47.1471149 30.9654592,47.1413422 C31.1098528,47.1436896 31.228724,47.255407 31.2398135,47.3991857 L31.2882291,49.0107073 C31.2883424,49.1579123 31.1719379,49.2788933 31.0246336,49.2846661 L31.0192542,49.2846661 Z" id="形状" fill="#3ECDFF"></path>
                    <path d="M31.0246336,49.2900378 L29.4107848,49.2416921 C29.2643422,49.2358699 29.1495218,49.1140491 29.152569,48.9677334 C29.1611239,48.8227578 29.2814867,48.7096385 29.4269233,48.7098896 L31.0407721,48.7582356 C31.1116486,48.7596207 31.1789789,48.7894543 31.2275645,48.841002 C31.27615,48.8925497 31.301895,48.961466 31.2989879,49.0321943 C31.2931573,49.1784258 31.1711606,49.2930806 31.0246336,49.2900378 L31.0246336,49.2900378 Z M37.4638904,51.465592 L28.9535277,51.465592 C28.8574322,51.465592 28.7686363,51.4143996 28.7205886,51.3312985 C28.6725409,51.2481974 28.6725409,51.1458126 28.7205886,51.0627115 C28.7686363,50.9796104 28.8574322,50.9284181 28.9535277,50.9284181 L37.4638904,50.9284181 C37.6124411,50.9284181 37.7328652,51.0486686 37.7328652,51.197005 C37.7328652,51.3453415 37.6124411,51.465592 37.4638904,51.465592 L37.4638904,51.465592 Z" id="形状" fill="#3ECDFF"></path>
                    <path d="M36.3072988,51.4655948 C36.2334026,51.4659339 36.1629008,51.434645 36.1136369,51.3796441 C36.0630352,51.3301362 36.0345199,51.2623735 36.0345199,51.1916333 C36.0345199,51.120893 36.0630352,51.0531303 36.1136369,51.0036224 L37.2809876,49.9292746 C37.3908122,49.8403481 37.5508376,49.8515121 37.6472122,49.9548239 C37.7435868,50.0581357 37.7434038,50.2183197 37.6467933,50.3214116 L36.4794426,51.3957593 C36.4327269,51.4395601 36.3713699,51.4644505 36.3072988,51.4655948 Z" id="路径" fill="#3ECDFF"></path>
                    <path d="M37.4531314,52.5614267 C37.3853467,52.5630312 37.3196498,52.537948 37.2702285,52.491594 L36.1028779,51.4172463 C35.9997082,51.310986 35.9997082,51.1421132 36.1028779,51.0358529 C36.207467,50.9334829 36.3748535,50.9334829 36.4794426,51.0358529 L37.6467933,52.1102006 C37.697395,52.1597085 37.7259103,52.2274712 37.7259103,52.2982115 C37.7259103,52.3689517 37.697395,52.4367145 37.6467933,52.4862223 C37.5956343,52.5372651 37.5253837,52.5645454 37.4531314,52.5614267 L37.4531314,52.5614267 Z M30.1154988,51.465592 C30.04791,51.4660889 29.9826112,51.4411577 29.932596,51.3957593 L28.7706248,50.3214116 C28.7200231,50.2719037 28.6915078,50.204141 28.6915078,50.1334007 C28.6915078,50.0626605 28.7200231,49.9948977 28.7706248,49.9453899 C28.8752139,49.8430199 29.0426004,49.8430199 29.1471895,49.9453899 L30.3091607,51.0197376 C30.3597624,51.0692455 30.3882777,51.1370082 30.3882777,51.2077485 C30.3882777,51.2784887 30.3597624,51.3462515 30.3091607,51.3957593 C30.2578304,51.446023 30.1871466,51.4715109 30.1154988,51.465592 L30.1154988,51.465592 Z" id="形状" fill="#3ECDFF"></path>
                    <path d="M28.9642867,52.5614267 C28.8886639,52.562618 28.8161719,52.5313153 28.7652453,52.4754788 C28.6627275,52.3710405 28.6627275,52.2038954 28.7652453,52.0994571 L29.9272164,51.0251094 C30.0370411,50.9361828 30.1970665,50.9473468 30.2934411,51.0506586 C30.3898157,51.1539704 30.3896327,51.3141544 30.2930222,51.4172463 L29.131051,52.491594 C29.0851998,52.5333925 29.0262799,52.5580652 28.9642867,52.5614267 L28.9642867,52.5614267 Z M30.2015707,54.4845092 C30.1299391,54.4841416 30.0609691,54.4573586 30.0079089,54.4093048 C29.9053911,54.3048665 29.9053911,54.1377214 30.0079089,54.0332831 L36.027565,48.0061922 C36.0948318,47.9390224 36.1928753,47.9127896 36.2847634,47.9373754 C36.3766516,47.9619613 36.4484245,48.0336306 36.4730458,48.1253863 C36.4976672,48.2171419 36.4713965,48.3150441 36.4041297,48.3822139 L30.3898531,54.3931896 C30.3406372,54.4459351 30.2735152,54.4784902 30.2015707,54.4845092 L30.2015707,54.4845092 Z" id="形状" fill="#3ECDFF"></path>
                    <path d="M35.3927844,49.284666 C35.2463418,49.2788437 35.1315214,49.157023 35.1345686,49.0107073 L35.1829841,47.3991857 C35.1914045,47.2532927 35.3110149,47.1385387 35.4573384,47.1359705 C35.5282149,47.1373556 35.5955452,47.1671892 35.6441307,47.2187369 C35.6927163,47.2702846 35.7184613,47.3392009 35.7155542,47.4099292 L35.6671387,49.0214508 C35.668788,49.0936491 35.64004,49.1632291 35.5878887,49.213263 C35.5357374,49.2632969 35.4649633,49.2891983 35.3927844,49.284666 L35.3927844,49.284666 Z" id="路径" fill="#3ECDFF"></path>
                    <path d="M35.387405,49.2900378 C35.2388543,49.2900378 35.1184301,49.1697873 35.1184301,49.0214508 C35.1184301,48.8731143 35.2388543,48.7528638 35.387405,48.7528638 L37.0012538,48.704517 C37.147719,48.7040849 37.2697216,48.8165403 37.2809876,48.9623617 C37.2824286,49.0335994 37.2554633,49.1024897 37.2060266,49.1538701 C37.1565899,49.2052504 37.0887335,49.2349098 37.0173923,49.2363203 L35.4035435,49.284666 L35.387405,49.2900378 Z M29.4215438,53.6948636 C29.273044,53.6947918 29.1526992,53.5745623 29.1526992,53.4262766 C29.1526992,53.2779909 29.273044,53.1577615 29.4215438,53.1576897 L31.0353926,53.1093441 C31.1062231,53.1064412 31.1752389,53.1321491 31.226861,53.1806645 C31.2784832,53.22918 31.3083598,53.2964133 31.3097469,53.3671875 C31.3127941,53.5135032 31.1979738,53.6353239 31.0515311,53.6411462 L29.4376823,53.6894918 L29.4215438,53.6948636 Z" id="形状" fill="#3ECDFF"></path>
                    <path d="M30.9815977,55.2365526 C30.8351551,55.2307303 30.7203347,55.1089096 30.7233819,54.9625939 L30.7717974,53.3510723 C30.7803523,53.2060966 30.900715,53.0929774 31.0461517,53.0932284 C31.1170281,53.0946139 31.1843585,53.1244475 31.232944,53.1759952 C31.2815295,53.2275429 31.3072745,53.2964592 31.3043675,53.3671875 L31.2613315,54.9787091 C31.2585344,55.0499626 31.2274765,55.1171807 31.1750033,55.1655476 C31.1225302,55.2139144 31.0529495,55.2394596 30.9815977,55.2365526 L30.9815977,55.2365526 Z M53.3387832,55.7146965 C53.2679313,55.7146965 53.2000565,55.6861844 53.1504652,55.635654 C53.1008739,55.5851236 53.073742,55.5167855 53.0751879,55.4460504 L53.0751879,46.9640748 C53.075133,46.868087 53.1263975,46.7793707 53.2096377,46.7313633 C53.2928779,46.683356 53.3954475,46.683356 53.4786877,46.7313633 C53.5619279,46.7793707 53.6131841,46.868087 53.6131376,46.9640748 L53.6131376,55.4567939 C53.6073069,55.6030253 53.4853102,55.7176801 53.3387832,55.7146965 L53.3387832,55.7146965 Z" id="形状" fill="#3ECDFF"></path>
                    <path d="M54.4362004,55.7146401 C54.3623043,55.7149793 54.2918024,55.6836903 54.2425386,55.6286895 L53.1666393,54.4683939 C53.0889312,54.3592002 53.1036785,54.2095234 53.2012074,54.1175455 C53.2987364,54.0255676 53.4492268,54.0194117 53.5539631,54.1031157 L54.6298623,55.2634113 C54.7021658,55.3412421 54.7217747,55.4542968 54.679895,55.5518751 C54.6380154,55.6494534 54.5425066,55.7132432 54.4362004,55.7146401 L54.4362004,55.7146401 Z" id="路径" fill="#3ECDFF"></path>
                    <path d="M52.241366,55.7038939 C52.1737772,55.7043908 52.1084785,55.6794597 52.0584632,55.6340612 C52.0078615,55.5845534 51.9793462,55.5167907 51.9793462,55.4460504 C51.9793462,55.3753101 52.0078615,55.3075474 52.0584632,55.2580395 L53.1343624,54.0923722 C53.2390986,54.0086683 53.3895889,54.0148243 53.4871179,54.1068022 C53.5846468,54.19878 53.5993941,54.3484567 53.5216861,54.4576504 L52.4457869,55.6233178 C52.3926436,55.6786131 52.3180044,55.7080335 52.241366,55.7038939 L52.241366,55.7038939 Z M53.3387832,48.3822139 C53.2705719,48.3807275 53.2053626,48.3539153 53.1558804,48.3070096 C53.1052786,48.2575017 53.0767633,48.189739 53.0767633,48.1189987 C53.0767633,48.0482584 53.1052786,47.9804957 53.1558804,47.9309878 L54.2317796,46.7706922 C54.2926358,46.6851783 54.3977822,46.6428718 54.5010109,46.6623648 C54.6042397,46.6818578 54.6866548,46.7595821 54.7120381,46.8613808 C54.7374213,46.9631796 54.7011263,47.0704186 54.6191033,47.1359705 L53.5432041,48.2962661 C53.4906158,48.3529421 53.4161318,48.3842585 53.3387832,48.3822139 L53.3387832,48.3822139 Z" id="形状" fill="#3ECDFF"></path>
                    <path d="M53.3387832,48.3875857 C53.2660882,48.3874078 53.1964355,48.3584277 53.1451214,48.3070096 L52.0692221,47.1413422 C51.9915141,47.0321485 52.0062614,46.8824718 52.1037904,46.7904939 C52.2013193,46.6985161 52.3518097,46.6923601 52.4565459,46.776064 L53.5324451,47.9417313 C53.5830468,47.9912392 53.6115621,48.0590019 53.6115621,48.1297422 C53.6115621,48.2004824 53.5830468,48.2682451 53.5324451,48.317753 C53.4803795,48.366836 53.4102412,48.3921272 53.3387832,48.3875857 L53.3387832,48.3875857 Z M56.3459215,54.4845092 C56.2761515,54.4828394 56.2093155,54.4561436 56.1576392,54.4093048 L50.1433626,48.3822139 C50.0393771,48.2783783 50.0393771,48.1100277 50.1433626,48.0061922 C50.2473481,47.9023567 50.4159418,47.9023567 50.5199273,48.0061922 L56.5342039,54.0171679 C56.5862114,54.0659075 56.6157133,54.1339571 56.6157133,54.2051787 C56.6157133,54.2764004 56.5862114,54.34445 56.5342039,54.3931896 C56.4863653,54.4477662 56.4184558,54.4807033 56.3459215,54.4845092 L56.3459215,54.4845092 Z" id="形状" fill="#3ECDFF"></path>
                    <path d="M57.1259485,53.6948636 L55.5120997,53.6465179 C55.4412232,53.6451328 55.3738928,53.6152992 55.3253073,53.5637515 C55.2767218,53.5122038 55.2509768,53.4432875 55.2538838,53.3725592 C55.2537443,53.3012889 55.2831531,53.2331397 55.3351272,53.1842935 C55.3871012,53.1354473 55.4570043,53.1102612 55.5282381,53.1147158 L57.142087,53.1630614 C57.2905868,53.1631332 57.4109316,53.2833626 57.4109316,53.4316483 C57.4109316,53.5799341 57.2905868,53.7001635 57.142087,53.7002353 L57.1259485,53.6948636 Z" id="路径" fill="#3ECDFF"></path>
                    <path d="M55.5658946,55.2365527 C55.4214461,55.236668 55.3026977,55.122834 55.2969198,54.9787091 L55.2538838,53.3671875 C55.2509768,53.2964592 55.2767218,53.2275429 55.3253073,53.1759952 C55.3738928,53.1244475 55.4412232,53.0946139 55.5120997,53.0932284 C55.6575363,53.0929774 55.7778991,53.2060966 55.786454,53.3510723 L55.8348694,54.9625939 C55.8363105,55.0338317 55.8093452,55.102722 55.7599085,55.1541024 C55.7104717,55.2054827 55.6426153,55.2351421 55.5712741,55.2365527 L55.5658946,55.2365527 Z M51.1547079,49.284666 C51.0102594,49.2847814 50.8915109,49.1709473 50.885733,49.0268225 L50.842697,47.4153009 C50.83979,47.3445726 50.865535,47.2756563 50.9141205,47.2241086 C50.962706,47.1725609 51.0300364,47.1427273 51.1009129,47.1413422 C51.2472364,47.1439104 51.3668467,47.2586644 51.3752672,47.4045575 L51.4236827,49.0160791 C51.423796,49.1632841 51.3073916,49.2842651 51.1600873,49.2900378 L51.1547079,49.284666 Z" id="形状" fill="#3ECDFF"></path>
                    <path d="M51.1600873,49.2900378 L49.5462385,49.2416921 C49.3997959,49.2358699 49.2849755,49.1140491 49.2880227,48.9677334 C49.2991122,48.8239548 49.4179835,48.7122373 49.562377,48.70989 L51.1762258,48.7582356 C51.3247257,48.7583074 51.4450704,48.8785369 51.4450704,49.0268226 C51.4450704,49.1751083 51.3247257,49.2953377 51.1762258,49.2954095 L51.1600873,49.2900378 Z M57.5993441,51.465592 L49.0889814,51.465592 C48.9928859,51.465592 48.90409,51.4143996 48.8560423,51.3312985 C48.8079946,51.2481974 48.8079946,51.1458126 48.8560423,51.0627115 C48.90409,50.9796104 48.9928859,50.9284181 49.0889814,50.9284181 L57.5993441,50.9284181 C57.7478948,50.9284181 57.8683189,51.0486686 57.8683189,51.197005 C57.8683189,51.3453415 57.7478948,51.465592 57.5993441,51.465592 L57.5993441,51.465592 Z" id="形状" fill="#3ECDFF"></path>
                    <path d="M56.4319935,51.465592 C56.3592984,51.4654142 56.2896457,51.436434 56.2383316,51.3850159 C56.1877299,51.335508 56.1592146,51.2677453 56.1592146,51.197005 C56.1592146,51.1262647 56.1877299,51.058502 56.2383316,51.0089941 L57.4056822,49.9346464 C57.4552616,49.8841177 57.5231222,49.8556435 57.5939646,49.8556435 C57.664807,49.8556435 57.7326676,49.8841177 57.7822469,49.9346464 C57.8847647,50.0390847 57.8847647,50.2062298 57.7822469,50.3106681 L56.6148963,51.3850159 C56.5672361,51.4353077 56.5013225,51.4643453 56.4319935,51.465592 L56.4319935,51.465592 Z" id="路径" fill="#3ECDFF"></path>
                    <path d="M57.5885851,52.5614267 C57.5209962,52.5619236 57.4556975,52.5369925 57.4056822,52.491594 L56.2437111,51.4172463 C56.1580737,51.3564778 56.1157061,51.251483 56.1352272,51.1484032 C56.1547484,51.0453233 56.2325849,50.963027 56.3345306,50.9376804 C56.4364764,50.9123337 56.5438703,50.9485764 56.6095168,51.0304811 L57.771488,52.1048289 C57.849992,52.1803651 57.875071,52.2957488 57.8349893,52.3969857 C57.7949076,52.4982226 57.6975933,52.5652881 57.5885851,52.5667984 L57.5885851,52.5614267 Z M50.2509525,51.4655993 C50.1833637,51.466089 50.1180649,51.4411578 50.0680496,51.3957593 L48.9060785,50.3214116 C48.8222536,50.2168264 48.8284184,50.066553 48.9205292,49.9691647 C49.0126399,49.8717763 49.1625328,49.8570504 49.2718842,49.9346464 L50.4338554,51.0089941 C50.4844571,51.058502 50.5129724,51.1262647 50.5129724,51.197005 C50.5129724,51.2677453 50.4844571,51.335508 50.4338554,51.3850159 C50.3861952,51.4353077 50.3202815,51.4643453 50.2509525,51.4655993 L50.2509525,51.4655993 Z" id="形状" fill="#3ECDFF"></path>
                    <path d="M49.0997403,52.5614267 C48.987876,52.5658038 48.8854455,52.4991459 48.8442861,52.3951867 C48.8031266,52.2912276 48.8322178,52.1726478 48.9168375,52.0994571 L50.0788086,51.0251094 C50.1881601,50.9475133 50.338053,50.9622393 50.4301637,51.0596276 C50.5222744,51.157016 50.5284393,51.3072894 50.4446144,51.4118746 L49.2826432,52.4862223 C49.2334544,52.5335783 49.1680608,52.5604663 49.0997403,52.5614267 L49.0997403,52.5614267 Z M50.3370244,54.4845092 C50.2663867,54.4874496 50.1978627,54.4600795 50.1487421,54.4093048 C50.0967346,54.3605652 50.0672327,54.2925156 50.0672327,54.2212939 C50.0672327,54.1500723 50.0967346,54.0820227 50.1487421,54.0332831 L56.1630187,48.0223074 C56.2670041,47.9184719 56.4355979,47.9184719 56.5395834,48.0223074 C56.6435688,48.1261429 56.6435688,48.2944936 56.5395834,48.3983291 L50.5253068,54.3931896 C50.4778582,54.448274 50.4097174,54.4813233 50.3370244,54.4845092 L50.3370244,54.4845092 Z" id="形状" fill="#3ECDFF"></path>
                    <path d="M55.5282381,49.284666 C55.3830531,49.2761234 55.2697705,49.1559342 55.2700219,49.0107073 L55.3184378,47.3991857 C55.3269927,47.25421 55.4473555,47.1410907 55.5927921,47.1413418 C55.6636686,47.1427273 55.7309989,47.1725609 55.7795844,47.2241086 C55.82817,47.2756563 55.853915,47.3445726 55.8510079,47.4153009 L55.8079719,49.0268225 C55.8051748,49.0980759 55.7741169,49.165294 55.7216438,49.2136609 C55.6691706,49.2620278 55.5995899,49.287573 55.5282381,49.284666 L55.5282381,49.284666 Z" id="路径" fill="#3ECDFF"></path>
                    <path d="M55.5228586,49.2900378 C55.3743079,49.2900378 55.2538838,49.1697873 55.2538838,49.0214508 C55.2538838,48.8731143 55.3743079,48.7528638 55.5228586,48.7528638 L57.1367074,48.7045182 C57.281101,48.7068656 57.3999722,48.818583 57.4110617,48.9623617 C57.4125028,49.0335994 57.3855375,49.1024897 57.3361008,49.1538701 C57.286664,49.2052504 57.2188076,49.2349098 57.1474664,49.2363203 L55.5336176,49.284666 L55.5228586,49.2900378 Z M49.5569975,53.6948636 C49.4084977,53.6947918 49.2881529,53.5745623 49.2881529,53.4262766 C49.2881529,53.2779909 49.4084977,53.1577615 49.5569975,53.1576897 L51.1708464,53.1093441 C51.2420801,53.1048895 51.3119833,53.1300756 51.3639573,53.1789218 C51.4159314,53.227768 51.4453402,53.2959172 51.4452006,53.3671875 C51.4481077,53.4379158 51.4223627,53.5068321 51.3737772,53.5583798 C51.3251917,53.6099275 51.2578613,53.6397611 51.1869848,53.6411462 L49.573136,53.6894918 L49.5569975,53.6948636 Z" id="形状" fill="#3ECDFF"></path>
                    <path d="M51.1170513,55.2419244 C50.9676376,55.2360999 50.8504104,55.1118749 50.8534561,54.9625939 L50.9018715,53.3510723 C50.901732,53.279802 50.9311408,53.2116528 50.9831148,53.1628066 C51.0350889,53.1139603 51.104992,53.0887743 51.1762258,53.0932288 C51.2471023,53.0946139 51.3144326,53.1244475 51.3630182,53.1759952 C51.4116037,53.2275429 51.4373487,53.2964592 51.4344416,53.3671875 L51.3914056,54.9787091 C51.3856246,55.125801 51.2644689,55.2420376 51.1170513,55.2419244 L51.1170513,55.2419244 Z" id="路径" fill="#3ECDFF"></path>
                </g>
            </g>
        </g>
    </g>
</svg>