<?xml version="1.0" encoding="UTF-8"?>
<svg width="64px" height="64px" viewBox="0 0 64 64" version="1.1" xmlns="http://www.w3.org/2000/svg" xmlns:xlink="http://www.w3.org/1999/xlink">
    <title>晴（白天）</title>
    <g id="页面-1" stroke="none" stroke-width="1" fill="none" fill-rule="evenodd">
        <g id="天气图标" transform="translate(-66.000000, -363.000000)" fill="#FFBF44" fill-rule="nonzero">
            <g id="晴（白天）" transform="translate(66.000000, 363.000000)">
                <path d="M11.6906667,32 C11.6906667,43.2165351 20.7834649,52.3093333 32,52.3093333 C43.2165351,52.3093333 52.3093333,43.2165351 52.3093333,32 C52.3093333,20.7834649 43.2165351,11.6906667 32,11.6906667 C20.7834649,11.6906667 11.6906667,20.7834649 11.6906667,32 Z" id="路径"></path>
                <path d="M62.56,33.44 L56.9813333,33.44 C56.1860433,33.44 55.5413333,32.79529 55.5413333,32 C55.5413333,31.20471 56.1860433,30.56 56.9813333,30.56 L62.56,30.56 C63.35529,30.56 64,31.20471 64,32 C64,32.79529 63.35529,33.44 62.56,33.44 L62.56,33.44 Z M53.6373333,20.9493431 C52.9992451,20.9344366 52.4470976,20.5012812 52.2807244,19.8850844 C52.1143513,19.2688876 52.3734547,18.6166945 52.9173333,18.2826667 L57.7173333,15.4933333 C58.4065847,15.0956883 59.2876883,15.332082 59.6853333,16.0213333 C60.0829783,16.7105847 59.8465847,17.5916883 59.1573333,17.9893333 L54.3253333,20.7786667 C54.1136413,20.8915729 53.8772511,20.9502124 53.6373333,20.9493431 L53.6373333,20.9493431 Z M44.4906667,11.8026971 C44.2378458,11.8039665 43.9892707,11.7376799 43.7706667,11.6106667 C43.0822922,11.2152898 42.843733,10.3373918 43.2373333,9.648 L46.032,4.8 C46.4325906,4.10927591 47.3172759,3.87407619 48.008,4.27466672 C48.6987241,4.67525726 48.9339238,5.55994257 48.5333333,6.25066669 L45.744,11.0826667 C45.4864708,11.5309633 45.0076579,11.8060261 44.4906667,11.8026971 L44.4906667,11.8026971 Z M32,8.45866669 C31.20471,8.45866669 30.56,7.81395673 30.56,7.01866669 L30.56,1.44 C30.56,0.64470996 31.20471,0 32,0 C32.79529,0 33.44,0.64470996 33.44,1.44 L33.44,7.01866669 C33.44,7.40057843 33.2882861,7.76684807 33.0182338,8.03690045 C32.7481814,8.30695284 32.3819117,8.45866669 32,8.45866669 L32,8.45866669 Z M19.5093333,11.8026723 C18.9942455,11.804104 18.5179188,11.5293001 18.2613333,11.0826667 L15.4666667,6.25066669 C15.20753,5.80384653 15.2064536,5.25271992 15.4638429,4.80489092 C15.7212322,4.35706192 16.1979836,4.08056641 16.7145096,4.07955481 C17.2310355,4.07854874 17.7088634,4.35317984 17.968,4.8 L20.7573333,9.632 C21.1509337,10.3213918 20.9123744,11.1992898 20.224,11.5946667 C20.0085361,11.7263712 19.7618221,11.798176 19.5093333,11.8026723 L19.5093333,11.8026723 Z M10.3626667,20.9493333 C10.1117864,20.9486817 9.86542943,20.8824963 9.648,20.7573333 L4.8,17.968 C4.35317984,17.7088634 4.07854874,17.2310355 4.07955481,16.7145096 C4.08056641,16.1979836 4.35706192,15.7212322 4.80489092,15.4638429 C5.25271992,15.2064536 5.80384653,15.20753 6.25066669,15.4666667 L11.0826667,18.256 C11.6265454,18.5900278 11.8856488,19.2422209 11.7192757,19.8584178 C11.5529025,20.4746146 11.000755,20.90777 10.3626667,20.9226667 L10.3626667,20.9493333 Z M7.01866669,33.44 L1.44,33.44 C0.64470996,33.44 0,32.79529 0,32 C0,31.20471 0.64470996,30.56 1.44,30.56 L7.01866669,30.56 C7.81395673,30.56 8.45866669,31.20471 8.45866669,32 C8.45866669,32.79529 7.81395673,33.44 7.01866669,33.44 Z M5.536,48.7200109 C4.89791171,48.7051033 4.34576414,48.2719479 4.179391,47.6557511 C4.01301785,47.0395542 4.27212133,46.3873611 4.816,46.0533333 L9.648,43.264 C10.3346081,42.893778 11.1911646,43.1375851 11.5798938,43.8138872 C11.9686231,44.4901894 11.7481642,45.3530502 11.0826667,45.76 L6.25066669,48.5333333 C6.03272609,48.656634 5.78640012,48.7209729 5.536,48.7200109 L5.536,48.7200109 Z M16.72,59.904 C16.4691284,59.9118046 16.220677,59.8529124 16,59.7333333 C15.3116256,59.3379564 15.0730664,58.4600584 15.4666667,57.7706667 L18.256,52.9386667 C18.6629499,52.2731695 19.5258105,52.0527109 20.2021124,52.44144 C20.8784144,52.8301692 21.1222217,53.6867252 20.752,54.3733333 L17.968,59.2 C17.707357,59.6404787 17.2317946,59.9087447 16.72,59.904 L16.72,59.904 Z M32,64 C31.20471,64 30.56,63.35529 30.56,62.56 L30.56,56.9813333 C30.56,56.1860433 31.20471,55.5413333 32,55.5413333 C32.79529,55.5413333 33.44,56.1860433 33.44,56.9813333 L33.44,62.56 C33.44,62.9419117 33.2882861,63.3081814 33.0182338,63.5782338 C32.7481814,63.8482861 32.3819117,64 32,64 L32,64 Z M47.28,59.904 C46.7682054,59.9087447 46.292643,59.6404787 46.032,59.2 L43.2426667,54.368 C42.8724446,53.6813919 43.1162518,52.8248354 43.7925539,52.4361062 C44.4688561,52.0473769 45.3317169,52.2678358 45.7386667,52.9333333 L48.5333333,57.7493333 C48.729189,58.0823436 48.7830188,58.4800866 48.6827257,58.8531771 C48.5824325,59.2262677 48.3364291,59.5434103 48,59.7333333 C47.779323,59.8529124 47.5308716,59.9118046 47.28,59.904 L47.28,59.904 Z M58.464,48.72 C58.211505,48.7188114 57.9635605,48.6526929 57.744,48.528 L52.944,45.7386667 C52.2785025,45.3317169 52.0580436,44.4688561 52.4467729,43.7925539 C52.8355021,43.1162518 53.6920586,42.8724446 54.3786667,43.2426667 L59.2,46.032 C59.7438787,46.3660278 60.0029822,47.0182209 59.836609,47.6344178 C59.6702359,48.2506146 59.1180883,48.68377 58.48,48.6986667 L58.464,48.72 Z" id="形状"></path>
            </g>
        </g>
    </g>
</svg>