<?xml version="1.0" encoding="UTF-8"?>
<svg width="64px" height="64px" viewBox="0 0 64 64" version="1.1" xmlns="http://www.w3.org/2000/svg" xmlns:xlink="http://www.w3.org/1999/xlink">
    <title>大风</title>
    <g id="页面-1" stroke="none" stroke-width="1" fill="none" fill-rule="evenodd">
        <g id="天气图标" transform="translate(-1058.000000, -363.000000)" fill="#C1C1C1" fill-rule="nonzero">
            <g id="1" transform="translate(66.000000, 363.000000)">
                <g id="大风" transform="translate(992.000000, 0.000000)">
                    <path d="M2.44898704,28.0641831 L44.7954875,28.0641831 C51.9248388,28.0641831 56.7144279,23.8745731 56.7144279,17.6395305 C56.7589412,14.3648275 55.2975296,11.2487169 52.7449982,9.17567182 C50.3736269,7.27414403 47.2508736,6.56736391 44.2842192,7.26072379 C43.3538657,7.46612267 42.6395338,8.20771577 42.4740393,9.1399859 C42.3085448,10.072256 42.7244455,11.0117973 43.5279683,11.520866 C44.05388,11.8564917 44.692999,11.9694902 45.3032052,11.8347341 C46.8767691,11.4543289 48.5389209,11.8246906 49.798105,12.8362907 C51.2305308,14.02045 52.0409945,15.7888879 51.9993987,17.6395305 C51.9993987,23.1057725 45.9990981,23.3843746 44.7954875,23.3843746 L2.44898704,23.3843746 C1.58554862,23.351073 0.772955677,23.7896296 0.331266719,24.5273089 C-0.11042224,25.2649881 -0.11042224,26.1835696 0.331266719,26.9212489 C0.772955677,27.6589281 1.58554862,28.0974847 2.44898704,28.0641831 L2.44898704,28.0641831 Z M44.7954875,42.2869923 L2.44898704,42.2869923 C1.14696768,42.2869923 0.0914724417,43.3353926 0.0914724417,44.6286599 C0.0914724417,45.9219272 1.14696768,46.9703275 2.44898704,46.9703275 L44.7954875,46.9703275 C46.2447748,47.0226057 47.3924974,48.2047651 47.3924974,49.6452595 C47.3924974,51.0857538 46.2447748,52.2679132 44.7954875,52.3201914 C43.530011,52.3689991 42.5294453,53.4021785 42.5294453,54.6600957 C42.5294453,55.918013 43.530011,56.9511923 44.7954875,57 C48.8858675,57 52.2017755,53.7063809 52.2017755,49.6434961 C52.2017755,45.5806113 48.8858675,42.2869923 44.7954875,42.2869923 L44.7954875,42.2869923 Z" id="形状"></path>
                    <path d="M61.6424854,23.0352377 C60.3418514,23.0352377 59.2869297,24.0814916 59.2849709,25.3733814 C59.2849709,29.7534282 54.669355,32.8145238 48.0761252,32.8145238 L2.55195075,32.8145238 C1.25010438,32.8147668 0.194879073,33.8630959 0.194879073,35.1561914 C0.194879073,36.4492869 1.25010438,37.497616 2.55195075,37.4978589 L48.0761252,37.4978589 C57.3073569,37.4978589 64,32.4019107 64,25.3733814 C64,24.7526563 63.7515072,24.1574059 63.3092851,23.7188179 C62.867063,23.2802299 62.2674104,23.0343042 61.6424854,23.0352377 L61.6424854,23.0352377 Z" id="路径"></path>
                </g>
            </g>
        </g>
    </g>
</svg>